<svg width="1000" height="1001" viewBox="0 0 1000 1001" fill="none" xmlns="http://www.w3.org/2000/svg">
<path d="M156.38 430.767H145.54C133.908 430.767 122.752 435.388 114.526 443.613C106.301 451.838 101.68 462.994 101.68 474.627V715.307C101.68 726.939 106.301 738.095 114.526 746.32C122.752 754.546 133.908 759.167 145.54 759.167H294.26C305.893 759.167 317.049 754.546 325.274 746.32C333.499 738.095 338.12 726.939 338.12 715.307" stroke="#263238" stroke-width="1.10311" stroke-linecap="round" stroke-linejoin="round" stroke-dasharray="4.41 4.41"/>
<path d="M326 203.667V156.127C326 149.013 328.822 142.191 333.846 137.155C338.87 132.12 345.687 129.283 352.8 129.267H546.2C553.324 129.267 560.156 132.097 565.193 137.134C570.23 142.171 573.06 149.003 573.06 156.127" stroke="#263238" stroke-width="1.10311" stroke-linecap="round" stroke-linejoin="round" stroke-dasharray="4.41 4.41"/>
<path d="M500 944.727C711.547 944.727 883.04 920.765 883.04 891.207C883.04 861.648 711.547 837.687 500 837.687C288.453 837.687 116.96 861.648 116.96 891.207C116.96 920.765 288.453 944.727 500 944.727Z" fill="#8BDD76"/>
<path opacity="0.5" d="M500 944.727C711.547 944.727 883.04 920.765 883.04 891.207C883.04 861.648 711.547 837.687 500 837.687C288.453 837.687 116.96 861.648 116.96 891.207C116.96 920.765 288.453 944.727 500 944.727Z" fill="white"/>
<path d="M861.08 267.447V627.567C861.08 639.339 856.405 650.629 848.083 658.955C839.76 667.281 828.472 671.961 816.7 671.967H183.3C171.528 671.961 160.24 667.281 151.917 658.955C143.595 650.629 138.92 639.339 138.92 627.567V267.447C138.92 266.387 138.92 265.447 139.06 264.327C139.84 253.124 144.839 242.634 153.049 234.973C161.26 227.312 172.07 223.05 183.3 223.047H816.7C827.942 223.051 838.764 227.325 846.976 235.002C855.189 242.68 860.18 253.19 860.94 264.407C861.04 265.367 861.08 266.407 861.08 267.447Z" fill="white" stroke="#E1E8F4" stroke-width="1.10311" stroke-linecap="round" stroke-linejoin="round"/>
<path d="M160.52 280.967H841.74V613.627C841.74 624.66 837.357 635.241 829.556 643.042C821.754 650.844 811.173 655.227 800.14 655.227H202.14C191.107 655.227 180.526 650.844 172.724 643.042C164.923 635.241 160.54 624.66 160.54 613.627V280.967H160.52Z" fill="#E1E8F4"/>
<path d="M860.94 264.407H139.06C139.84 253.204 144.839 242.714 153.05 235.053C161.26 227.392 172.07 223.13 183.3 223.127H816.7C827.93 223.13 838.74 227.392 846.951 235.053C855.161 242.714 860.16 253.204 860.94 264.407Z" fill="#7196CE" stroke="#E1E8F4" stroke-width="1.10311" stroke-miterlimit="10"/>
<path d="M227.76 243.687C227.76 245.241 227.299 246.761 226.435 248.054C225.572 249.346 224.344 250.354 222.908 250.948C221.472 251.543 219.891 251.699 218.367 251.396C216.842 251.092 215.441 250.344 214.342 249.245C213.243 248.145 212.494 246.745 212.191 245.22C211.888 243.695 212.043 242.115 212.638 240.679C213.233 239.243 214.241 238.015 215.533 237.151C216.826 236.288 218.345 235.827 219.9 235.827C221.985 235.827 223.984 236.655 225.458 238.129C226.932 239.603 227.76 241.602 227.76 243.687Z" fill="#263238"/>
<path d="M261 243.687C261 245.241 260.539 246.761 259.675 248.054C258.811 249.346 257.584 250.354 256.148 250.948C254.711 251.543 253.131 251.699 251.606 251.396C250.082 251.092 248.681 250.344 247.582 249.245C246.483 248.145 245.734 246.745 245.431 245.22C245.128 243.695 245.283 242.115 245.878 240.679C246.473 239.243 247.48 238.015 248.773 237.151C250.066 236.288 251.585 235.827 253.14 235.827C255.224 235.827 257.224 236.655 258.698 238.129C260.172 239.603 261 241.602 261 243.687Z" fill="#263238"/>
<path d="M286.38 251.547C290.721 251.547 294.24 248.028 294.24 243.687C294.24 239.346 290.721 235.827 286.38 235.827C282.039 235.827 278.52 239.346 278.52 243.687C278.52 248.028 282.039 251.547 286.38 251.547Z" fill="#263238"/>
<path d="M841.74 280.967V613.627C841.74 624.66 837.357 635.241 829.556 643.042C821.754 650.844 811.173 655.227 800.14 655.227H202.14C192.511 655.225 183.18 651.883 175.74 645.77C168.3 639.657 163.21 631.153 161.34 621.707V621.587C160.832 618.95 160.577 616.272 160.58 613.587V280.967H841.74Z" stroke="#E1E8F4" stroke-width="1.10311" stroke-miterlimit="10"/>
<path d="M406.16 375.947H197C182.519 375.947 170.78 387.686 170.78 402.167V691.747C170.78 706.228 182.519 717.967 197 717.967H406.16C420.641 717.967 432.38 706.228 432.38 691.747V402.167C432.38 387.686 420.641 375.947 406.16 375.947Z" fill="#7196CE" stroke="#263238" stroke-width="1.10311" stroke-miterlimit="10"/>
<path opacity="0.2" d="M406.16 375.947H197C182.519 375.947 170.78 387.686 170.78 402.167V691.747C170.78 706.228 182.519 717.967 197 717.967H406.16C420.641 717.967 432.38 706.228 432.38 691.747V402.167C432.38 387.686 420.641 375.947 406.16 375.947Z" fill="black"/>
<path d="M456.72 428.007V717.587C456.722 721.032 456.046 724.443 454.73 727.627C453.413 730.81 451.482 733.703 449.047 736.14C446.612 738.577 443.721 740.51 440.538 741.829C437.356 743.148 433.945 743.827 430.5 743.827H221.34C217.896 743.824 214.487 743.143 211.307 741.823C208.127 740.503 205.238 738.57 202.805 736.133C200.372 733.696 198.443 730.804 197.128 727.622C195.813 724.44 195.137 721.03 195.14 717.587V428.007C195.14 421.056 197.899 414.39 202.812 409.473C207.725 404.557 214.389 401.792 221.34 401.787H430.5C437.454 401.787 444.123 404.549 449.04 409.466C453.957 414.384 456.72 421.053 456.72 428.007Z" fill="white" stroke="#263238" stroke-width="1.10311" stroke-linecap="round" stroke-linejoin="round"/>
<path d="M456.72 428.007V443.507H195.14V428.007C195.14 421.056 197.899 414.39 202.812 409.473C207.725 404.557 214.389 401.792 221.34 401.787H430.5C437.454 401.787 444.123 404.549 449.04 409.466C453.957 414.384 456.72 421.053 456.72 428.007Z" fill="#7196CE" stroke="#263238" stroke-width="1.10311" stroke-miterlimit="10"/>
<path d="M284.1 461.467H219.74V472.267H284.1V461.467Z" fill="#7196CE"/>
<path d="M284.1 558.247H219.74V569.047H284.1V558.247Z" fill="#7196CE"/>
<path d="M284.1 646.007H219.74V656.807H284.1V646.007Z" fill="#7196CE"/>
<path d="M402.52 488.207H219.74V496.127H402.52V488.207Z" fill="#263238"/>
<path d="M369.56 503.347H219.74V511.067H369.56V503.347Z" fill="#263238"/>
<path d="M389.18 518.247H219.74V525.967H389.18V518.247Z" fill="#263238"/>
<path d="M389.18 533.127H219.74V540.847H389.18V533.127Z" fill="#263238"/>
<path d="M402.52 575.967H219.74V583.887H402.52V575.967Z" fill="#263238"/>
<path d="M369.56 591.107H219.74V598.827H369.56V591.107Z" fill="#263238"/>
<path d="M389.18 606.007H219.74V613.727H389.18V606.007Z" fill="#263238"/>
<path d="M402.52 672.327H219.74V680.247H402.52V672.327Z" fill="#263238"/>
<path d="M369.56 687.487H219.74V695.207H369.56V687.487Z" fill="#263238"/>
<path d="M389.18 702.387H219.74V710.107H389.18V702.387Z" fill="#263238"/>
<path d="M751.54 200.987V318.027C751.54 322.134 750.731 326.2 749.158 329.994C747.586 333.788 745.282 337.235 742.377 340.138C739.472 343.041 736.024 345.343 732.229 346.913C728.434 348.483 724.367 349.289 720.26 349.287H450.7C446.593 349.289 442.526 348.483 438.731 346.913C434.936 345.343 431.488 343.041 428.583 340.138C425.678 337.235 423.374 333.788 421.801 329.994C420.229 326.2 419.42 322.134 419.42 318.027V200.987C419.425 192.692 422.722 184.739 428.587 178.874C434.452 173.009 442.406 169.712 450.7 169.707H720.26C728.556 169.707 736.512 173.002 742.378 178.868C748.244 184.735 751.54 192.691 751.54 200.987Z" fill="white" stroke="#222221" stroke-width="1.10311" stroke-miterlimit="10"/>
<path d="M751.54 200.987V203.667H419.42V200.987C419.425 192.692 422.722 184.739 428.587 178.874C434.452 173.009 442.406 169.712 450.7 169.707H720.26C728.556 169.707 736.512 173.002 742.378 178.868C748.244 184.735 751.54 192.691 751.54 200.987Z" fill="#7196CE" stroke="#263238" stroke-width="1.10311" stroke-miterlimit="10"/>
<path d="M468.22 192.287C467.549 192.959 466.694 193.417 465.762 193.604C464.831 193.79 463.865 193.695 462.987 193.332C462.11 192.97 461.359 192.354 460.831 191.565C460.303 190.775 460.021 189.847 460.021 188.897C460.021 187.947 460.303 187.018 460.831 186.229C461.359 185.439 462.11 184.824 462.987 184.461C463.865 184.098 464.831 184.004 465.762 184.19C466.694 184.376 467.549 184.834 468.22 185.507C469.113 186.409 469.613 187.627 469.613 188.897C469.613 190.166 469.113 191.384 468.22 192.287Z" fill="#263238"/>
<path d="M490.46 192.287C489.789 192.959 488.934 193.417 488.002 193.604C487.071 193.79 486.105 193.695 485.228 193.332C484.35 192.97 483.599 192.354 483.071 191.565C482.544 190.775 482.262 189.847 482.262 188.897C482.262 187.947 482.544 187.018 483.071 186.229C483.599 185.439 484.35 184.824 485.228 184.461C486.105 184.098 487.071 184.004 488.002 184.19C488.934 184.376 489.789 184.834 490.46 185.507C491.353 186.409 491.854 187.627 491.854 188.897C491.854 190.166 491.353 191.384 490.46 192.287Z" fill="#263238"/>
<path d="M512.7 192.287C512.029 192.959 511.174 193.417 510.242 193.604C509.311 193.79 508.345 193.695 507.467 193.332C506.59 192.97 505.839 192.354 505.311 191.565C504.783 190.775 504.501 189.847 504.501 188.897C504.501 187.947 504.783 187.018 505.311 186.229C505.839 185.439 506.59 184.824 507.467 184.461C508.345 184.098 509.311 184.004 510.242 184.19C511.174 184.376 512.029 184.834 512.7 185.507C513.593 186.409 514.093 187.627 514.093 188.897C514.093 190.166 513.593 191.384 512.7 192.287Z" fill="#263238"/>
<path d="M549.16 225.187H440.6V319.027H549.16V225.187Z" stroke="#263238" stroke-width="1.10311" stroke-linecap="round" stroke-linejoin="round" stroke-dasharray="4.41 4.41"/>
<path d="M690.86 225.187H565.92V231.787H690.86V225.187Z" fill="#263238"/>
<path d="M661.76 238.847H565.92V245.427H661.76V238.847Z" fill="#263238"/>
<path d="M708.62 252.447H565.92V259.107H708.62V252.447Z" fill="#263238"/>
<path d="M687.44 265.707H565.92V272.367H687.44V265.707Z" fill="#263238"/>
<path d="M593.72 881.347C593.72 881.347 535.72 897.967 527.62 900.847C520.26 903.447 500.3 910.447 485.32 908.267C483.874 908.059 482.444 907.751 481.04 907.347C465.86 902.827 459.04 898.607 457.04 889.067C455.04 879.527 462.6 872.487 469.88 867.987C477.16 863.487 516.64 858.787 516.64 858.787L526.18 861.587L593.72 881.347Z" fill="#7196CE"/>
<path d="M485.32 908.267C483.874 908.059 482.444 907.751 481.04 907.347C465.86 902.827 459.04 898.607 457.04 889.067C455.04 879.527 462.6 872.487 469.88 867.987C477.16 863.487 516.64 858.787 516.64 858.787L526.18 861.587C517.54 865.587 485.38 867.767 478.36 871.807C471.34 875.847 467.96 883.447 472.1 893.807C474.32 899.207 480.24 904.507 485.32 908.267Z" fill="white"/>
<path d="M585 883.707C585 883.707 541.44 894.987 524.16 902.207C506.88 909.427 473.94 912.587 462.16 897.707C450.38 882.827 460.8 869.987 472.54 867.127C484.28 864.267 508.02 859.767 520.98 861.587" stroke="#263238" stroke-width="1.10311" stroke-linecap="round" stroke-linejoin="round"/>
<path d="M486.18 907.487C486.18 907.487 464.02 895.327 471.38 878.287C476.82 865.727 506.38 868.447 521.02 861.587" stroke="#263238" stroke-width="1.10311" stroke-linecap="round" stroke-linejoin="round"/>
<path d="M770.38 910.967C769.78 916.967 767.68 922.587 761.68 926.127C757.68 928.487 752 929.887 743.86 929.807C723.52 929.547 685.28 915.007 685.28 915.007L649.48 895.207L668.1 865.747L673.2 857.747L686.36 860.707C686.36 860.707 697.26 866.887 708.22 871.807C719.18 876.727 745.8 877.807 755.18 885.347C764.56 892.887 771.4 901.087 770.38 910.967Z" fill="#7196CE"/>
<path d="M770.38 910.967C769.78 916.967 767.68 922.587 761.68 926.127C763.408 920.229 763.055 913.915 760.68 908.247C756.68 899.267 743.66 891.347 726.54 890.027C709.42 888.707 696.32 880.707 689.46 877.127C684.1 874.347 672.8 868.267 668.1 865.747L673.2 857.747L686.36 860.707C686.36 860.707 697.26 866.887 708.22 871.807C719.18 876.727 745.8 877.807 755.18 885.347C764.56 892.887 771.4 901.087 770.38 910.967Z" fill="white"/>
<path d="M657.42 900.767C683.19 915.746 711.671 925.473 741.22 929.387C747.74 930.167 755.32 930.287 759.68 925.387C760.84 923.972 761.704 922.337 762.219 920.582C762.734 918.826 762.891 916.984 762.68 915.167C761.9 905.967 754.16 898.687 745.68 895.027C737.2 891.367 727.86 890.527 718.84 888.507C709.87 886.484 701.198 883.311 693.04 879.067C686.56 875.687 680.3 871.587 673.16 870.067C666.02 868.547 657.52 870.387 653.7 876.627" stroke="#263238" stroke-width="1.10311" stroke-linecap="round" stroke-linejoin="round"/>
<path d="M757.28 927.887C760.631 926.282 763.561 923.917 765.835 920.979C768.109 918.041 769.666 914.613 770.38 910.967C771.68 902.307 766.74 893.587 759.8 888.267C752.86 882.947 744.16 880.427 735.58 878.647C727 876.867 718.22 875.667 710 872.407C697.46 867.487 685.08 857.807 672 861.267" stroke="#263238" stroke-width="1.10311" stroke-linecap="round" stroke-linejoin="round"/>
<path d="M697.82 590.927L637.24 567.887L636.48 567.587C636.48 567.587 636.7 565.987 636.88 563.587C637.26 558.747 637.46 550.867 635.18 548.207C631.8 544.207 622.24 547.567 612.9 543.287C603.56 539.007 586.3 546.667 586.3 546.667C586.3 546.667 573.82 544.367 568.3 553.367C565.5 560.627 566.46 571.367 566.46 571.367L565.32 571.767C558.1 574.467 518.82 589.247 510.52 595.187C501.34 601.687 491.18 668.427 487.92 688.027C484.66 707.627 478.86 725.287 481.8 732.027C484.74 738.767 526.94 771.267 551.22 779.647C575.5 788.027 661.6 785.647 661.6 785.647C661.6 785.647 663 785.267 665.5 784.467C680.06 779.787 731.72 760.467 759.14 715.107C759.18 715.187 732.62 628.127 697.82 590.927ZM534.14 703.187C529.68 706.347 532.14 718.587 532.14 718.587L524.56 711.907L543.6 665.087L551.72 701.087C551.72 701.087 538.6 700.047 534.14 703.187ZM686.46 732.927C684.36 734.007 692.46 711.507 688.62 706.407C684.78 701.307 673.2 701.787 673.2 701.787L674.18 695.647L681.04 660.447L683.32 657.747C683.32 657.747 706.88 698.127 711.1 712.367C711.1 712.407 685.42 732.927 686.46 732.927Z" fill="#99256E"/>
<path d="M583.44 444.907L552.16 478.107C552.16 478.107 547.86 481.927 549.56 491.547C551.26 501.167 555.26 509.547 558.28 510.107C560.671 510.525 563.093 510.739 565.52 510.747C565.52 510.747 572.22 525.267 576.98 530.967C576.98 530.967 578.62 553.387 577.74 559.607C577.74 559.607 588.98 569.427 599.56 570.667C610.14 571.907 626.48 555.707 626.48 555.707L630.48 535.867C630.48 535.867 640.08 521.307 640.72 517.427C641.36 513.547 645.76 514.547 647.92 512.627C650.08 510.707 655.06 502.167 655.92 494.087C656.78 486.007 656.8 476.727 647.42 479.447C639.28 477.267 644.38 460.067 644.38 460.067L630.08 447.467L583.44 444.907Z" fill="white"/>
<path opacity="0.5" d="M637.24 567.887C636.768 569.123 636.227 570.331 635.62 571.507C630.46 581.227 607.98 599.767 607.98 599.767L601.18 578.867L597.46 599.767C589.96 596.487 567.08 576.667 567.08 576.667C567.08 576.667 566.3 574.807 565.36 571.907L566.5 571.507C566.5 571.507 565.54 560.687 568.34 553.507C573.82 544.507 586.34 546.807 586.34 546.807C586.34 546.807 603.6 539.147 612.94 543.427C622.28 547.707 631.84 544.387 635.22 548.347C638.6 552.307 636.52 567.667 636.52 567.667L637.24 567.887Z" fill="white"/>
<path opacity="0.2" d="M697.82 590.927L637.24 567.887L636.48 567.587C636.48 567.587 636.7 565.987 636.88 563.587L635.62 571.447L626.66 583.607C636.238 587.133 645.589 591.248 654.66 595.927C659.003 598.253 662.546 601.831 664.828 606.197C667.111 610.562 668.028 615.513 667.46 620.407L656.3 715.907L651.72 770.127L665.54 784.467C680.1 779.787 731.76 760.467 759.18 715.107C759.18 715.187 732.62 628.127 697.82 590.927ZM686.46 732.927C684.36 734.007 692.46 711.507 688.62 706.407C684.78 701.307 673.2 701.787 673.2 701.787L674.18 695.647L681.04 660.447L683.32 657.747C683.32 657.747 706.88 698.127 711.1 712.367C711.1 712.407 685.42 732.927 686.46 732.927Z" fill="black"/>
<path opacity="0.2" d="M555.74 706.407L546.32 674.927C546.32 674.927 529.42 617.307 517.84 603.107L520.88 643.627C520.88 643.627 510.88 692.027 501.74 706.407C492.6 720.787 490.56 724.407 501.74 724.407C512.92 724.407 540.14 746.087 540.14 746.087L538.04 728.087L555.74 706.407ZM532 718.587L524.42 711.907L543.46 665.087L551.58 701.087C551.58 701.087 538.54 700.107 534.08 703.247C529.62 706.387 532 718.587 532 718.587Z" fill="black"/>
<path d="M576.98 530.967C576.98 530.967 578.7 547.947 576.98 555.707" stroke="#263238" stroke-width="1.10311" stroke-linecap="round" stroke-linejoin="round"/>
<path d="M628.22 553.427C628.238 547.967 628.869 542.526 630.1 537.207" stroke="#263238" stroke-width="1.10311" stroke-linecap="round" stroke-linejoin="round"/>
<path d="M632.76 457.567C632.76 457.567 643.04 470.467 642.5 480.227C641.96 489.987 641.2 501.547 641.46 512.867C641.72 524.187 623.28 547.907 613.8 550.007C604.32 552.107 596.16 552.647 590.1 546.587C584.04 540.527 577.98 532.107 570.1 521.307C562.22 510.507 564.1 486.807 564.1 486.807" stroke="#263238" stroke-width="1.10311" stroke-linecap="round" stroke-linejoin="round"/>
<path d="M608 495.827C607.374 499.371 607.106 502.969 607.2 506.567C606.994 509.599 607.936 512.598 609.84 514.967C610.98 516.127 612.62 517.067 612.84 518.667C612.834 519.387 612.635 520.092 612.261 520.708C611.888 521.324 611.356 521.828 610.72 522.167C609.437 522.814 608.201 523.549 607.02 524.367" stroke="#263238" stroke-width="1.10311" stroke-linecap="round" stroke-linejoin="round"/>
<path d="M591.74 525.607C591.74 525.607 592.92 533.267 603.18 534.867" stroke="#263238" stroke-width="1.10311" stroke-linecap="round" stroke-linejoin="round"/>
<path d="M592.8 501.667C592.8 503.887 591.84 505.667 590.66 505.667C589.48 505.667 588.52 503.887 588.52 501.667C588.52 499.447 589.48 497.667 590.66 497.667C591.84 497.667 592.8 499.467 592.8 501.667Z" fill="#263238"/>
<path d="M623.42 502.627C623.42 504.847 622.46 506.627 621.28 506.627C620.1 506.627 619.14 504.827 619.14 502.627C619.14 500.427 620.1 498.627 621.28 498.627C622.46 498.627 623.42 500.407 623.42 502.627Z" fill="#263238"/>
<path d="M617.24 492.927C617.24 492.927 627.24 482.927 635.62 494.087" stroke="#263238" stroke-width="2.20621" stroke-linecap="round" stroke-linejoin="round"/>
<path d="M596.18 493.127C596.18 493.127 589.86 486.047 579.9 493.127" stroke="#263238" stroke-width="2.20621" stroke-linecap="round" stroke-linejoin="round"/>
<path d="M577.74 540.407C577.74 540.407 583.84 557.207 597.46 561.987C611.08 566.767 629.16 541.987 629.16 541.987L628.22 538.767C628.22 538.767 616.36 554.167 603.18 551.547C590 548.927 576.98 531.047 576.98 531.047L577.74 540.407Z" fill="#263238"/>
<path d="M565.52 510.107C565.52 510.107 557.4 512.967 555.24 506.647C553.08 500.327 545.68 483.667 552.16 478.107C558.64 472.547 563.84 485.447 563.84 485.447" stroke="#263238" stroke-width="1.10311" stroke-linecap="round" stroke-linejoin="round"/>
<path d="M641.44 513.547C641.44 513.547 648.98 515.067 651.14 508.747C653.3 502.427 660.7 485.767 654.22 480.207C647.74 474.647 642.54 487.547 642.54 487.547" stroke="#263238" stroke-width="1.10311" stroke-linecap="round" stroke-linejoin="round"/>
<path d="M563.84 501.667C566.66 501.222 569.206 499.72 570.96 497.467C572.031 495.489 572.71 493.322 572.96 491.087C573.702 486.834 574.077 482.524 574.08 478.207C573.992 476.52 574.147 474.829 574.54 473.187C575.14 471.534 576.065 470.017 577.26 468.727C580.08 465.407 583.5 462.607 586.2 459.167C587.647 457.543 588.748 455.642 589.436 453.579C590.124 451.516 590.384 449.334 590.2 447.167C596.387 452.268 603.617 455.952 611.381 457.96C619.145 459.967 627.255 460.25 635.14 458.787C649.44 455.987 663.14 443.447 661.48 427.687C661.166 425.044 660.033 422.567 658.24 420.601C656.446 418.635 654.082 417.281 651.48 416.727C644.42 414.967 638.08 418.727 631.68 421.147C620.02 425.547 608.6 417.987 596.82 416.727C586.82 415.627 574.36 416.887 569.12 426.907C569.12 426.907 551.12 429.027 543.12 443.907C535.12 458.787 550.26 479.367 550.26 479.367C550.26 479.367 556.26 472.007 564.12 486.887L563.84 501.667Z" fill="#263238"/>
<path d="M634 453.767C634 453.767 629.32 478.167 641.54 489.987C641.54 489.987 644.22 482.647 646.92 480.847C648.867 476.517 649.691 471.766 649.317 467.033C648.943 462.3 647.383 457.737 644.78 453.767C635.74 439.567 634 453.767 634 453.767Z" fill="#263238"/>
<path opacity="0.2" d="M656.28 426.007C655.207 429.336 653.388 432.376 650.962 434.896C648.535 437.416 645.566 439.349 642.28 440.547C625.32 447.467 608.86 439.807 591.86 438.307C578 437.067 562.7 449.587 561.72 463.827" stroke="white" stroke-width="1.10311" stroke-linecap="round" stroke-linejoin="round"/>
<path opacity="0.2" d="M551.26 460.067C551.467 454.447 553.27 449.003 556.458 444.371C559.645 439.738 564.086 436.109 569.26 433.907" stroke="white" stroke-width="1.10311" stroke-linecap="round" stroke-linejoin="round"/>
<path d="M573.06 553.427C580.519 561.199 589.517 567.33 599.48 571.427C599.48 571.427 619.78 565.527 630.1 551.427" stroke="#263238" stroke-width="1.10311" stroke-linecap="round" stroke-linejoin="round"/>
<path d="M593.805 517.952C602.821 513.816 606.777 503.155 602.642 494.139C598.507 485.123 587.845 481.167 578.83 485.302C569.814 489.438 565.857 500.099 569.993 509.115C574.128 518.131 584.789 522.087 593.805 517.952Z" stroke="#263238" stroke-width="1.10311" stroke-linecap="round" stroke-linejoin="round"/>
<path d="M628.608 519.533C638.453 518.324 645.454 509.363 644.245 499.518C643.036 489.673 634.075 482.672 624.23 483.88C614.385 485.089 607.384 494.05 608.593 503.895C609.801 513.74 618.762 520.742 628.608 519.533Z" stroke="#263238" stroke-width="1.10311" stroke-linecap="round" stroke-linejoin="round"/>
<path d="M576.98 546.727C575.16 547.204 573.456 548.044 571.968 549.195C570.48 550.346 569.239 551.785 568.32 553.427C565.14 559.027 567.06 576.647 567.06 576.647C567.06 576.647 583.48 592.887 597.46 599.747L601.58 576.567L607.98 599.747C607.98 599.747 629.62 584.447 635.62 571.507C635.62 571.507 637.62 556.407 635.62 551.507C635.165 550.146 634.3 548.959 633.143 548.11C631.986 547.261 630.595 546.792 629.16 546.767" stroke="#263238" stroke-width="1.10311" stroke-linecap="round" stroke-linejoin="round"/>
<path d="M551.26 701.807C551.26 701.807 544.84 658.807 536.3 641.267" stroke="#263238" stroke-width="1.10311" stroke-linecap="round" stroke-linejoin="round"/>
<path d="M517.84 603.107C522.812 610.173 527.251 617.601 531.12 625.327" stroke="#263238" stroke-width="1.10311" stroke-linecap="round" stroke-linejoin="round"/>
<path d="M686.46 635.207C688.184 628.017 690.547 620.996 693.52 614.227" stroke="#263238" stroke-width="1.10311" stroke-linecap="round" stroke-linejoin="round"/>
<path d="M673.2 701.807C673.2 701.807 677.82 672.327 683.34 648.047" stroke="#263238" stroke-width="1.10311" stroke-linecap="round" stroke-linejoin="round"/>
<path d="M681.04 660.407C685.506 654.486 691.785 650.188 698.92 648.167" stroke="#263238" stroke-width="1.10311" stroke-linecap="round" stroke-linejoin="round"/>
<path d="M636.5 567.587C636.5 567.587 673.76 582.487 697.82 590.947C697.82 590.947 727.42 618.767 759.16 715.187C759.16 715.187 730.08 764.107 674.76 779.787" stroke="#263238" stroke-width="1.10311" stroke-linecap="round" stroke-linejoin="round"/>
<path d="M684.36 734.667L711.1 712.407C711.1 712.407 725.24 701.667 739.94 709.007" stroke="#263238" stroke-width="1.10311" stroke-linecap="round" stroke-linejoin="round"/>
<path d="M683.34 657.747C683.34 657.747 705.44 690.407 711.1 712.407" stroke="#263238" stroke-width="1.10311" stroke-linecap="round" stroke-linejoin="round"/>
<path d="M532.3 719.827L524.48 712.407C524.48 712.407 512.88 710.407 499.72 719.187" stroke="#263238" stroke-width="1.10311" stroke-linecap="round" stroke-linejoin="round"/>
<path d="M524.48 712.407C524.48 712.407 534.2 680.407 543.78 664.027" stroke="#263238" stroke-width="1.10311" stroke-linecap="round" stroke-linejoin="round"/>
<path d="M566.5 571.507C566.5 571.507 512.88 591.627 507.62 597.507C502.36 603.387 482.38 715.887 481.84 728.767C481.38 740.287 523.14 766.147 543.84 777.047" stroke="#263238" stroke-width="1.10311" stroke-linecap="round" stroke-linejoin="round"/>
<path d="M606.6 609.527C606.6 610.227 606.392 610.911 606.003 611.493C605.614 612.076 605.062 612.529 604.415 612.797C603.768 613.065 603.056 613.135 602.369 612.999C601.683 612.862 601.052 612.525 600.557 612.03C600.062 611.535 599.725 610.904 599.588 610.217C599.451 609.531 599.522 608.819 599.79 608.172C600.057 607.525 600.511 606.972 601.093 606.583C601.675 606.194 602.36 605.987 603.06 605.987C603.526 605.984 603.987 606.074 604.418 606.251C604.849 606.428 605.24 606.688 605.569 607.018C605.898 607.347 606.159 607.738 606.336 608.169C606.513 608.6 606.603 609.061 606.6 609.527Z" fill="#263238"/>
<path d="M668.64 797.967H546.64C545.881 797.967 545.154 797.665 544.617 797.129C544.081 796.593 543.78 795.865 543.78 795.107C543.78 794.348 544.081 793.621 544.617 793.084C545.154 792.548 545.881 792.247 546.64 792.247H668.64C669.398 792.247 670.126 792.548 670.662 793.084C671.198 793.621 671.5 794.348 671.5 795.107C671.5 795.865 671.198 796.593 670.662 797.129C670.126 797.665 669.398 797.967 668.64 797.967Z" fill="#263238"/>
<path d="M672.92 788.407L689.26 711.607C689.514 710.416 689.497 709.184 689.213 708C688.928 706.816 688.383 705.711 687.616 704.765C686.848 703.82 685.88 703.058 684.78 702.536C683.68 702.014 682.477 701.744 681.26 701.747H538.66C537.453 701.747 536.261 702.015 535.17 702.532C534.079 703.048 533.116 703.8 532.351 704.734C531.585 705.667 531.037 706.759 530.744 707.93C530.452 709.102 530.423 710.323 530.66 711.507L545.32 785.747C545.679 787.57 546.65 789.216 548.072 790.413C549.494 791.609 551.282 792.284 553.14 792.327L664.72 794.887C666.627 794.929 668.489 794.305 669.986 793.122C671.483 791.94 672.52 790.272 672.92 788.407Z" fill="#FEDC00" stroke="#263238" stroke-width="1.10311" stroke-linecap="round" stroke-linejoin="round"/>
<path d="M620.88 746.067C620.876 748.317 620.205 750.515 618.953 752.384C617.7 754.252 615.921 755.708 613.841 756.566C611.761 757.424 609.474 757.647 607.268 757.206C605.062 756.764 603.036 755.679 601.446 754.087C599.857 752.494 598.775 750.466 598.337 748.26C597.9 746.053 598.126 743.765 598.988 741.687C599.85 739.609 601.309 737.833 603.18 736.583C605.051 735.334 607.25 734.667 609.5 734.667C610.996 734.667 612.478 734.962 613.86 735.535C615.242 736.108 616.497 736.948 617.554 738.007C618.611 739.066 619.449 740.323 620.02 741.706C620.59 743.089 620.883 744.571 620.88 746.067Z" fill="#263238"/>
<path d="M643.26 709.087H660.2" stroke="#263238" stroke-width="1.10311" stroke-linecap="round" stroke-linejoin="round"/>
<path d="M562.36 709.087H626.66" stroke="#263238" stroke-width="1.10311" stroke-linecap="round" stroke-linejoin="round"/>
<path d="M673.2 869.947L660.2 904.067C660.2 904.067 627.04 895.707 584.58 887.007C540.16 877.907 493.78 866.127 469.72 823.907C466.8 818.767 464.84 812.687 466.22 806.927C469.68 792.347 488.66 788.387 501.16 786.927C509.018 786.077 516.916 785.636 524.82 785.607C528.82 785.607 542.12 783.427 545.34 785.807C550.178 789.336 555.341 792.397 560.76 794.947C567.86 797.967 671.5 792.247 671.5 792.247C673.303 788.315 674.406 784.098 674.76 779.787C691.06 771.507 728.76 764.507 744.76 767.607C769.82 772.467 784.44 787.087 781.66 802.407C778.88 817.727 723.52 858.807 673.2 869.947Z" fill="#263238"/>
<path d="M673.2 869.947C673.2 869.947 641.66 861.587 615.9 844.187C590.14 826.787 570.02 806.587 534.12 810.767" stroke="white" stroke-width="1.10311" stroke-linecap="round" stroke-linejoin="round"/>
<path d="M610 840.087C626.28 835.407 638.22 824.867 651.28 814.767C665.055 803.711 679.848 793.988 695.46 785.727" stroke="white" stroke-width="1.10311" stroke-linecap="round" stroke-linejoin="round"/>
<path d="M604.26 504.507H609.04" stroke="#263238" stroke-width="1.10311" stroke-linecap="round" stroke-linejoin="round"/>
</svg>
