<svg width="800" height="800" viewBox="0 0 800 800" fill="none" xmlns="http://www.w3.org/2000/svg">
<path d="M800 611.84H0V612.24H800V611.84Z" fill="#EBEBEB"/>
<path d="M719.84 637.584H685.152V637.984H719.84V637.584Z" fill="#EBEBEB"/>
<path d="M551.473 629.296H496.896V629.696H551.473V629.296Z" fill="#EBEBEB"/>
<path d="M705.792 622.736H634.544V623.136H705.792V622.736Z" fill="#EBEBEB"/>
<path d="M276.832 630.8H259.008V631.2H276.832V630.8Z" fill="#EBEBEB"/>
<path d="M244.752 630.8H183.328V631.2H244.752V630.8Z" fill="#EBEBEB"/>
<path d="M150.416 624.048H106.096V624.448H150.416V624.048Z" fill="#EBEBEB"/>
<path d="M379.2 540.48H70.2557C67.8355 540.476 65.5158 539.511 63.806 537.798C62.0961 536.086 61.1357 533.764 61.1357 531.344V97.056C61.1568 94.6496 62.1265 92.3488 63.8341 90.6531C65.5417 88.9575 67.8493 88.0041 70.2557 88H379.2C381.623 88 383.947 88.9625 385.66 90.6759C387.373 92.3892 388.336 94.713 388.336 97.136V531.344C388.336 533.767 387.373 536.091 385.66 537.804C383.947 539.517 381.623 540.48 379.2 540.48ZM70.2557 88.32C67.9416 88.3242 65.7237 89.2465 64.0888 90.8844C62.4539 92.5222 61.5357 94.7418 61.5357 97.056V531.344C61.5357 533.658 62.4539 535.878 64.0888 537.516C65.7237 539.154 67.9416 540.076 70.2557 540.08H379.2C381.515 540.076 383.735 539.154 385.372 537.517C387.01 535.879 387.932 533.66 387.936 531.344V97.056C387.932 94.7404 387.01 92.5208 385.372 90.8834C383.735 89.246 381.515 88.3242 379.2 88.32H70.2557Z" fill="#EBEBEB"/>
<path d="M725.296 540.48H416.336C413.914 540.476 411.593 539.512 409.881 537.799C408.168 536.087 407.204 533.766 407.2 531.344V97.056C407.225 94.6482 408.199 92.3473 409.909 90.6521C411.619 88.957 413.928 88.0041 416.336 88H725.296C727.7 88.0083 730.003 88.9636 731.708 90.6588C733.412 92.3539 734.379 94.6524 734.4 97.056V531.344C734.4 533.761 733.442 536.08 731.736 537.793C730.029 539.505 727.714 540.472 725.296 540.48ZM416.336 88.32C414.021 88.3242 411.801 89.246 410.164 90.8834C408.526 92.5208 407.604 94.7404 407.6 97.056V531.344C407.604 533.66 408.526 535.879 410.164 537.517C411.801 539.154 414.021 540.076 416.336 540.08H725.296C727.612 540.076 729.831 539.154 731.469 537.517C733.106 535.879 734.028 533.66 734.032 531.344V97.056C734.028 94.7404 733.106 92.5208 731.469 90.8834C729.831 89.246 727.612 88.3242 725.296 88.32H416.336Z" fill="#EBEBEB"/>
<path d="M184 279.408C192.873 279.408 201.382 275.883 207.657 269.609C213.931 263.335 217.456 254.825 217.456 245.952C217.456 237.079 213.931 228.569 207.657 222.295C201.382 216.021 192.873 212.496 184 212.496H179.888V279.408H184Z" fill="#E0E0E0"/>
<path d="M179.856 279.408C198.334 279.408 213.312 264.429 213.312 245.952C213.312 227.475 198.334 212.496 179.856 212.496C161.379 212.496 146.4 227.475 146.4 245.952C146.4 264.429 161.379 279.408 179.856 279.408Z" fill="#F5F5F5"/>
<path d="M178.32 250.144C166.438 250.144 155.043 245.424 146.641 237.022C138.24 228.621 133.52 217.226 133.52 205.344V178.608C133.52 177.492 133.963 176.422 134.752 175.633C135.541 174.843 136.612 174.4 137.728 174.4C138.844 174.4 139.914 174.843 140.703 175.633C141.492 176.422 141.936 177.492 141.936 178.608V205.36C141.944 215.004 145.778 224.251 152.596 231.072C159.414 237.893 168.659 241.731 178.304 241.744C178.877 241.709 179.451 241.791 179.992 241.986C180.532 242.181 181.027 242.485 181.445 242.878C181.864 243.272 182.197 243.747 182.425 244.274C182.653 244.801 182.771 245.37 182.771 245.944C182.771 246.518 182.653 247.087 182.425 247.614C182.197 248.141 181.864 248.616 181.445 249.01C181.027 249.403 180.532 249.707 179.992 249.902C179.451 250.097 178.877 250.179 178.304 250.144H178.32Z" fill="#E0E0E0"/>
<path d="M100.528 202.16H174.96C176.15 202.16 177.324 201.887 178.393 201.362C179.461 200.836 180.394 200.073 181.121 199.13C181.847 198.187 182.347 197.09 182.583 195.923C182.819 194.756 182.783 193.551 182.48 192.4L176 168C175.562 166.342 174.589 164.876 173.232 163.828C171.875 162.781 170.21 162.211 168.496 162.208H106.992C105.275 162.21 103.608 162.779 102.248 163.827C100.888 164.874 99.9121 166.341 99.4716 168L93.0716 192.368C92.7601 193.516 92.7167 194.72 92.9447 195.888C93.1728 197.055 93.6662 198.155 94.3868 199.101C95.1075 200.048 96.0361 200.816 97.1008 201.346C98.1656 201.876 99.338 202.155 100.528 202.16Z" fill="#F5F5F5"/>
<path d="M656.448 279.408C665.321 279.408 673.831 275.883 680.105 269.609C686.379 263.335 689.904 254.825 689.904 245.952C689.904 237.079 686.379 228.569 680.105 222.295C673.831 216.021 665.321 212.496 656.448 212.496H652.336V279.408H656.448Z" fill="#E0E0E0"/>
<path d="M652.336 279.408C670.813 279.408 685.792 264.429 685.792 245.952C685.792 227.475 670.813 212.496 652.336 212.496C633.859 212.496 618.88 227.475 618.88 245.952C618.88 264.429 633.859 279.408 652.336 279.408Z" fill="#F5F5F5"/>
<path d="M650.8 250.144C638.918 250.144 627.523 245.424 619.122 237.022C610.72 228.621 606 217.226 606 205.344V178.608C606 177.492 606.443 176.422 607.232 175.633C608.022 174.843 609.092 174.4 610.208 174.4C611.324 174.4 612.394 174.843 613.183 175.633C613.973 176.422 614.416 177.492 614.416 178.608V205.36C614.424 215.004 618.258 224.251 625.076 231.072C631.894 237.893 641.14 241.731 650.784 241.744C651.357 241.709 651.932 241.791 652.472 241.986C653.013 242.181 653.507 242.485 653.926 242.878C654.344 243.272 654.678 243.747 654.906 244.274C655.134 244.801 655.251 245.37 655.251 245.944C655.251 246.518 655.134 247.087 654.906 247.614C654.678 248.141 654.344 248.616 653.926 249.01C653.507 249.403 653.013 249.707 652.472 249.902C651.932 250.097 651.357 250.179 650.784 250.144H650.8Z" fill="#E0E0E0"/>
<path d="M573.008 202.16H647.44C648.631 202.16 649.805 201.887 650.873 201.362C651.941 200.836 652.875 200.073 653.601 199.13C654.328 198.187 654.828 197.09 655.064 195.923C655.299 194.756 655.264 193.551 654.96 192.4L648.56 168.032C648.123 166.374 647.15 164.908 645.793 163.86C644.436 162.813 642.771 162.243 641.056 162.24H579.472C577.756 162.242 576.088 162.811 574.729 163.859C573.369 164.906 572.393 166.373 571.952 168.032L565.552 192.4C565.247 193.546 565.208 194.747 565.438 195.91C565.669 197.073 566.164 198.168 566.884 199.111C567.604 200.053 568.53 200.818 569.592 201.347C570.653 201.875 571.822 202.154 573.008 202.16Z" fill="#F5F5F5"/>
<path d="M214.368 505.376H238.704V411.088H214.368V505.376Z" fill="#E6E6E6"/>
<path d="M148.4 505.36H229.152L241.344 395.008H160.592L148.4 505.36Z" fill="#F0F0F0"/>
<path d="M139.648 505.36H223.072L235.264 395.008H151.856L139.648 505.36Z" fill="#F5F5F5"/>
<path d="M217.04 496.672L227.312 403.712H157.872L147.6 496.672H217.04Z" fill="white"/>
<path d="M202.704 474.128L203.2 470.4C205.776 447.072 191.216 426.288 172.304 426.288L171.872 430.08C169.296 453.392 183.856 474.176 202.784 474.176L202.704 474.128Z" fill="#F5F5F5"/>
<path d="M94.5441 611.84H166.288V505.36H94.5441L94.5441 611.84Z" fill="#E6E6E6"/>
<path d="M101.744 611.84H94.5283V591.312H109.312L101.744 611.84Z" fill="#F0F0F0"/>
<path d="M295.616 611.84H367.36V505.36H295.616V611.84Z" fill="#E6E6E6"/>
<path d="M94.5283 599.248H301.904V505.376H94.5283V599.248Z" fill="#F0F0F0"/>
<path d="M294.688 611.84H301.904V591.312H287.12L294.688 611.84Z" fill="#F0F0F0"/>
<path d="M100.128 549.12H296.304V511.232H100.128V549.12Z" fill="#E6E6E6"/>
<path d="M185.136 536H211.296C216.92 536.002 222.486 534.857 227.653 532.634C232.819 530.411 237.478 527.157 241.344 523.072H155.088C158.955 527.155 163.614 530.407 168.781 532.63C173.947 534.853 179.512 536 185.136 536Z" fill="#F0F0F0"/>
<path d="M100.128 593.12H296.304V555.232H100.128V593.12Z" fill="#E6E6E6"/>
<path d="M185.136 579.936H211.296C216.92 579.938 222.486 578.793 227.653 576.57C232.819 574.347 237.478 571.093 241.344 567.008H155.088C158.955 571.091 163.614 574.343 168.781 576.566C173.947 578.789 179.512 579.935 185.136 579.936Z" fill="#F0F0F0"/>
<path d="M288.768 501.024H290.624C290.624 497.2 290.624 487.52 290.816 465.328C291.152 425.088 291.792 422.64 291.792 422.64L287.376 441.216C284.576 461.776 288.192 482.448 288.768 501.024Z" fill="#E6E6E6"/>
<path d="M285.104 438.4C278.704 430.832 265.184 428.624 251.296 426.736C245.84 426 265.616 438.464 275.296 447.312C282.816 454.192 287.616 456.096 289.696 462.944C290.752 454.4 290.576 444.976 285.104 438.4Z" fill="#E6E6E6"/>
<path d="M293.536 451.968C299.936 444.4 313.456 442.208 327.344 440.32C332.8 439.584 312.944 452.048 303.344 460.896C295.824 467.776 291.024 469.68 288.944 476.528C287.888 467.984 288 458.496 293.536 451.968Z" fill="#E6E6E6"/>
<path d="M290.816 420.8C295.616 411.744 307.552 403.2 321.008 400C326.288 398.736 308.768 416.704 302.112 428.304C296.944 437.296 290.096 447.888 289.024 455.504C287.424 440.496 286.048 429.904 290.816 420.8Z" fill="#E6E6E6"/>
<path d="M290.24 505.36C284.576 505.36 279.888 502.528 279.552 498.88L278.608 492.672H301.888L300.928 498.88C300.608 502.528 296 505.36 290.24 505.36Z" fill="#F0F0F0"/>
<path d="M303.392 495.056H277.104L276.352 488.128H304.144L303.392 495.056Z" fill="#F0F0F0"/>
<path d="M271.264 362.752L527.6 362.752V128.944L271.264 128.944L271.264 362.752Z" fill="#E6E6E6"/>
<path d="M265.504 362.752L525.088 362.752V128.944L265.504 128.944L265.504 362.752Z" fill="#F5F5F5"/>
<path d="M514.72 352.288V139.424L275.84 139.424V352.288H514.72Z" fill="#FAFAFA"/>
<path d="M485.424 352.288L391.408 139.424H359.472L453.488 352.288H485.424Z" fill="white"/>
<path d="M444.432 352.288L350.416 139.424H328.432L422.448 352.288H444.432Z" fill="white"/>
<path d="M364.544 352.272V139.408H352.192V352.272H364.544Z" fill="#E6E6E6"/>
<path d="M446.656 352.272V139.408H434.304V352.272H446.656Z" fill="#E6E6E6"/>
<path d="M362.32 358.928V131.632H346.704V358.928H362.32Z" fill="#F5F5F5"/>
<path d="M444.432 358.928V131.632H428.816V358.928H444.432Z" fill="#F5F5F5"/>
<path d="M276.96 352.288V139.424H275.856V352.288H276.96Z" fill="#E6E6E6"/>
<path d="M261.152 115.472H538.848C539.203 115.476 539.542 115.619 539.793 115.87C540.044 116.121 540.187 116.461 540.192 116.816C540.187 117.17 540.044 117.507 539.792 117.756C539.541 118.005 539.201 118.144 538.848 118.144H261.152C260.798 118.144 260.458 118.005 260.207 117.756C259.955 117.507 259.812 117.17 259.808 116.816C259.812 116.461 259.955 116.121 260.206 115.87C260.457 115.619 260.796 115.476 261.152 115.472Z" fill="#E6E6E6"/>
<path d="M527.6 124.288C528.077 124.284 528.533 124.091 528.868 123.753C529.204 123.414 529.392 122.957 529.392 122.48V118.608C529.394 118.371 529.349 118.137 529.26 117.917C529.171 117.698 529.039 117.499 528.873 117.331C528.706 117.162 528.508 117.029 528.29 116.938C528.071 116.847 527.837 116.8 527.6 116.8C527.123 116.8 526.666 116.988 526.327 117.324C525.989 117.66 525.796 118.115 525.792 118.592V122.464C525.792 122.945 525.982 123.407 526.321 123.748C526.659 124.09 527.119 124.284 527.6 124.288Z" fill="#E6E6E6"/>
<path d="M281.28 124.288C281.759 124.284 282.216 124.092 282.554 123.754C282.892 123.416 283.084 122.958 283.088 122.48V118.608C283.088 118.129 282.898 117.669 282.559 117.33C282.22 116.991 281.76 116.8 281.28 116.8C280.805 116.8 280.349 116.989 280.013 117.325C279.677 117.661 279.488 118.117 279.488 118.592V122.464C279.486 122.701 279.531 122.937 279.62 123.157C279.709 123.377 279.84 123.578 280.007 123.747C280.173 123.917 280.371 124.052 280.59 124.144C280.808 124.237 281.043 124.286 281.28 124.288Z" fill="#E6E6E6"/>
<path opacity="0.6" d="M261.568 299.904L520.976 299.904V116.8L261.568 116.8V299.904Z" fill="#E0E0E0"/>
<path d="M544.464 415.952H499.728C494.974 415.952 491.12 419.806 491.12 424.56V445.264C491.12 450.018 494.974 453.872 499.728 453.872H544.464C549.218 453.872 553.072 450.018 553.072 445.264V424.56C553.072 419.806 549.218 415.952 544.464 415.952Z" fill="#FAFAFA"/>
<path d="M550.176 408.944H494.016C492.417 408.944 491.12 410.241 491.12 411.84V414.176C491.12 415.775 492.417 417.072 494.016 417.072H550.176C551.775 417.072 553.072 415.775 553.072 414.176V411.84C553.072 410.241 551.775 408.944 550.176 408.944Z" fill="#E6E6E6"/>
<path d="M492.032 496C492.032 496 492.848 522.672 523.92 522.672C554.992 522.672 555.808 496 555.808 496H492.032Z" fill="#F0F0F0"/>
<path d="M562.88 496C562.88 496 563.696 522.672 594.768 522.672C625.84 522.672 626.656 496 626.656 496H562.88Z" fill="#F0F0F0"/>
<path d="M611.264 398.784H549.824C543.285 398.784 537.984 404.085 537.984 410.624V442.048C537.984 448.587 543.285 453.888 549.824 453.888H611.264C617.803 453.888 623.104 448.587 623.104 442.048V410.624C623.104 404.085 617.803 398.784 611.264 398.784Z" fill="#F0F0F0"/>
<path d="M619.136 389.152H541.952C539.761 389.152 537.984 390.929 537.984 393.12V396.352C537.984 398.543 539.761 400.32 541.952 400.32H619.136C621.328 400.32 623.104 398.543 623.104 396.352V393.12C623.104 390.929 621.328 389.152 619.136 389.152Z" fill="#F5F5F5"/>
<path d="M468.623 611.84H476.688V479.616H468.623V611.84Z" fill="#E6E6E6"/>
<path d="M701.472 453.872H657.808V479.6H701.472V453.872Z" fill="#E6E6E6"/>
<path d="M440.704 479.616H657.792V453.888H440.704V479.616Z" fill="#F5F5F5"/>
<path d="M701.472 522.592H657.808V548.32H701.472V522.592Z" fill="#E6E6E6"/>
<path d="M440.704 548.32H657.792V522.592H440.704V548.32Z" fill="#F5F5F5"/>
<path d="M685.712 611.84H693.776V479.616H685.712V611.84Z" fill="#E6E6E6"/>
<path d="M649.744 611.84H657.808V479.616H649.744V611.84Z" fill="#F5F5F5"/>
<path d="M440.704 611.84H448.768V479.616H440.704V611.84Z" fill="#F5F5F5"/>
<path d="M400 684.096C571.332 684.096 710.224 675.987 710.224 665.984C710.224 655.981 571.332 647.872 400 647.872C228.668 647.872 89.7764 655.981 89.7764 665.984C89.7764 675.987 228.668 684.096 400 684.096Z" fill="#F5F5F5"/>
<path d="M416.656 584.8H212.544C209.261 584.753 206.118 583.468 203.744 581.2C201.37 578.933 199.941 575.853 199.744 572.576L181.44 218.096C181.338 216.519 181.564 214.938 182.102 213.453C182.64 211.967 183.479 210.609 184.566 209.463C185.654 208.316 186.966 207.407 188.422 206.792C189.877 206.177 191.444 205.869 193.024 205.888H397.136C400.417 205.93 403.56 207.213 405.934 209.477C408.308 211.742 409.738 214.821 409.936 218.096L428.208 572.576C428.309 574.151 428.085 575.729 427.549 577.214C427.013 578.698 426.177 580.056 425.093 581.203C424.009 582.35 422.7 583.261 421.249 583.88C419.797 584.499 418.234 584.812 416.656 584.8Z" fill="#7196CE"/>
<path opacity="0.8" d="M416.656 584.8H212.544C209.261 584.753 206.118 583.468 203.744 581.2C201.37 578.933 199.941 575.853 199.744 572.576L181.44 218.096C181.338 216.519 181.564 214.938 182.102 213.453C182.64 211.967 183.479 210.609 184.566 209.463C185.654 208.316 186.966 207.407 188.422 206.792C189.877 206.177 191.444 205.869 193.024 205.888H397.136C400.417 205.93 403.56 207.213 405.934 209.477C408.308 211.742 409.738 214.821 409.936 218.096L428.208 572.576C428.309 574.151 428.085 575.729 427.549 577.214C427.013 578.698 426.177 580.056 425.093 581.203C424.009 582.35 422.7 583.261 421.249 583.88C419.797 584.499 418.234 584.812 416.656 584.8Z" fill="white"/>
<path d="M376.992 194.336H354.416V195.936H376.992V194.336Z" fill="#7196CE"/>
<path d="M346.591 194.336H338.319V195.936H346.591V194.336Z" fill="#7196CE"/>
<path d="M425.44 562.304H230.24C227.096 562.273 224.081 561.053 221.801 558.889C219.521 556.725 218.146 553.777 217.952 550.64L200.48 211.6C200.383 210.091 200.598 208.578 201.113 207.156C201.628 205.735 202.432 204.435 203.473 203.338C204.514 202.242 205.77 201.372 207.163 200.784C208.556 200.195 210.056 199.901 211.568 199.92H406.768C409.911 199.955 412.924 201.179 415.201 203.346C417.478 205.513 418.85 208.462 419.04 211.6L436.512 550.64C436.609 552.147 436.393 553.657 435.879 555.077C435.365 556.497 434.563 557.795 433.523 558.89C432.484 559.985 431.229 560.854 429.838 561.441C428.447 562.029 426.95 562.322 425.44 562.304Z" fill="#7196CE"/>
<path d="M425.439 554.512H230.239C229.095 554.473 228.004 554.014 227.175 553.224C226.346 552.433 225.837 551.366 225.743 550.224L208.255 211.2C208.216 210.749 208.272 210.295 208.421 209.867C208.57 209.44 208.808 209.049 209.119 208.72C209.432 208.392 209.81 208.134 210.229 207.963C210.648 207.792 211.099 207.712 211.551 207.728H406.751C407.893 207.771 408.98 208.231 409.805 209.022C410.631 209.812 411.138 210.877 411.231 212.016L428.799 551.04C428.838 551.489 428.781 551.942 428.632 552.368C428.484 552.793 428.247 553.183 427.937 553.511C427.628 553.839 427.252 554.097 426.835 554.27C426.419 554.442 425.97 554.525 425.519 554.512H425.439ZM211.551 208.128C211.154 208.115 210.758 208.185 210.388 208.334C210.019 208.483 209.685 208.707 209.407 208.992C209.14 209.287 208.936 209.634 208.807 210.011C208.677 210.388 208.626 210.787 208.655 211.184L226.127 550.208C226.216 551.246 226.682 552.216 227.436 552.935C228.191 553.654 229.182 554.073 230.223 554.112H425.423C425.819 554.128 426.214 554.059 426.581 553.91C426.948 553.761 427.279 553.535 427.551 553.248C427.825 552.957 428.034 552.611 428.163 552.233C428.293 551.855 428.341 551.454 428.303 551.056L410.847 212.032C410.762 210.995 410.3 210.025 409.548 209.306C408.796 208.587 407.807 208.168 406.767 208.128H211.551Z" fill="white"/>
<path opacity="0.3" d="M357.163 331.289C379.365 308.506 377.919 271.089 353.934 247.716C329.948 224.342 292.506 223.863 270.304 246.646C248.103 269.429 249.548 306.846 273.534 330.22C297.519 353.593 334.961 354.072 357.163 331.289Z" fill="white"/>
<path d="M361.6 288.976C362.048 296.839 360.467 304.685 357.008 311.76C353.264 319.349 347.453 325.726 340.243 330.156C333.033 334.586 324.718 336.889 316.256 336.8C307.487 336.721 298.888 334.373 291.295 329.985C283.702 325.597 277.375 319.319 272.928 311.76C268.784 304.848 266.4 297.024 265.984 288.976C265.59 282.804 266.473 276.616 268.58 270.801C270.687 264.986 273.971 259.668 278.227 255.181C282.483 250.693 287.62 247.132 293.316 244.721C299.011 242.31 305.143 241.1 311.328 241.168C324.2 241.302 336.543 246.309 345.871 255.18C355.2 264.051 360.82 276.127 361.6 288.976Z" fill="white"/>
<path d="M356.96 311.76C353.216 319.349 347.404 325.726 340.194 330.156C332.985 334.586 324.67 336.889 316.208 336.8C307.439 336.721 298.839 334.373 291.247 329.985C283.654 325.597 277.326 319.319 272.88 311.76C285.039 303.363 299.48 298.895 314.256 298.96C329.427 299.017 344.258 303.462 356.96 311.76Z" fill="#7196CE"/>
<path d="M328.555 287.864C336.554 279.656 336.031 266.173 327.386 257.748C318.741 249.324 305.249 249.149 297.25 257.357C289.251 265.565 289.775 279.048 298.419 287.473C307.064 295.897 320.557 296.072 328.555 287.864Z" fill="#7196CE"/>
<path d="M397.456 430.4H244.608C243.277 430.386 242 429.869 241.035 428.951C240.07 428.034 239.489 426.785 239.408 425.456L238.256 403.056C238.216 402.419 238.309 401.78 238.527 401.18C238.745 400.58 239.085 400.032 239.525 399.569C239.965 399.107 240.496 398.74 241.084 398.492C241.673 398.244 242.306 398.12 242.944 398.128H395.792C397.121 398.141 398.395 398.657 399.36 399.571C400.324 400.485 400.907 401.73 400.992 403.056L402.144 425.456C402.186 426.094 402.095 426.735 401.878 427.336C401.661 427.938 401.321 428.489 400.881 428.953C400.441 429.417 399.909 429.785 399.32 430.034C398.73 430.283 398.096 430.408 397.456 430.4Z" fill="white"/>
<path opacity="0.3" d="M350.656 385.76H286.816C285.479 385.75 284.196 385.232 283.227 384.311C282.259 383.39 281.677 382.134 281.6 380.8L281.36 376C281.318 375.361 281.408 374.721 281.626 374.119C281.843 373.518 282.182 372.967 282.623 372.503C283.063 372.039 283.594 371.67 284.184 371.421C284.773 371.172 285.408 371.048 286.048 371.056H349.872C351.203 371.07 352.48 371.587 353.444 372.505C354.409 373.422 354.991 374.671 355.072 376L355.328 380.8C355.367 381.437 355.275 382.076 355.058 382.676C354.841 383.277 354.503 383.826 354.065 384.291C353.628 384.756 353.099 385.126 352.513 385.379C351.926 385.631 351.294 385.761 350.656 385.76Z" fill="black"/>
<path opacity="0.3" d="M374.399 538.096H278.767C276.503 538.068 274.333 537.185 272.692 535.624C271.051 534.064 270.061 531.94 269.919 529.68L269.359 518.64C269.303 517.555 269.468 516.47 269.845 515.451C270.221 514.431 270.802 513.5 271.55 512.712C272.299 511.925 273.2 511.298 274.199 510.87C275.197 510.442 276.273 510.223 277.359 510.224H372.959C375.224 510.252 377.394 511.135 379.035 512.696C380.676 514.256 381.666 516.38 381.807 518.64L382.367 529.68C382.424 530.762 382.26 531.845 381.885 532.862C381.51 533.879 380.933 534.809 380.188 535.596C379.442 536.383 378.545 537.011 377.55 537.44C376.555 537.87 375.483 538.093 374.399 538.096Z" fill="black"/>
<path d="M400.255 484.576H247.391C246.061 484.558 244.786 484.04 243.822 483.123C242.858 482.206 242.276 480.959 242.191 479.632L241.039 457.232C241 456.594 241.092 455.955 241.31 455.354C241.528 454.753 241.868 454.204 242.308 453.74C242.747 453.276 243.278 452.908 243.866 452.658C244.455 452.408 245.088 452.282 245.727 452.288H398.575C399.907 452.302 401.183 452.819 402.148 453.737C403.113 454.654 403.694 455.903 403.775 457.232L404.943 479.632C404.98 480.269 404.887 480.908 404.667 481.507C404.448 482.107 404.109 482.655 403.669 483.119C403.23 483.582 402.7 483.95 402.113 484.201C401.526 484.452 400.894 484.579 400.255 484.576Z" fill="white"/>
<path d="M264 414.256C264.044 414.963 263.942 415.671 263.7 416.337C263.457 417.003 263.081 417.612 262.593 418.125C262.105 418.639 261.516 419.046 260.863 419.322C260.211 419.598 259.508 419.736 258.8 419.728C257.328 419.71 255.918 419.136 254.852 418.121C253.787 417.106 253.145 415.725 253.056 414.256C253.01 413.55 253.11 412.841 253.35 412.176C253.59 411.51 253.966 410.901 254.452 410.387C254.939 409.873 255.527 409.466 256.179 409.19C256.83 408.914 257.532 408.776 258.24 408.784C259.713 408.801 261.126 409.375 262.194 410.389C263.262 411.404 263.907 412.785 264 414.256Z" fill="#263238"/>
<path d="M280.847 414.256C280.894 414.962 280.793 415.67 280.553 416.336C280.313 417.002 279.938 417.611 279.451 418.125C278.964 418.638 278.376 419.046 277.725 419.322C277.073 419.598 276.371 419.736 275.663 419.728C274.19 419.714 272.778 419.141 271.711 418.125C270.645 417.109 270.004 415.726 269.919 414.256C269.873 413.55 269.973 412.841 270.213 412.176C270.454 411.51 270.829 410.901 271.316 410.387C271.802 409.873 272.39 409.466 273.042 409.19C273.694 408.914 274.396 408.776 275.103 408.784C276.576 408.798 277.989 409.37 279.055 410.386C280.121 411.402 280.762 412.785 280.847 414.256Z" fill="#263238"/>
<path d="M297.599 414.256C297.646 414.962 297.546 415.67 297.305 416.336C297.065 417.002 296.69 417.611 296.203 418.125C295.716 418.638 295.129 419.046 294.477 419.322C293.825 419.598 293.123 419.736 292.415 419.728C290.942 419.711 289.53 419.137 288.462 418.122C287.393 417.108 286.748 415.726 286.655 414.256C286.611 413.549 286.714 412.84 286.956 412.175C287.198 411.509 287.575 410.9 288.063 410.387C288.551 409.873 289.14 409.466 289.792 409.19C290.445 408.914 291.147 408.776 291.855 408.784C293.327 408.801 294.738 409.376 295.803 410.391C296.869 411.406 297.511 412.787 297.599 414.256Z" fill="#263238"/>
<path d="M314.479 414.256C314.523 414.962 314.421 415.669 314.18 416.334C313.939 416.998 313.564 417.606 313.077 418.119C312.591 418.633 312.004 419.04 311.354 419.317C310.703 419.594 310.002 419.734 309.295 419.728C307.822 419.711 306.41 419.137 305.341 418.122C304.273 417.108 303.628 415.726 303.535 414.256C303.491 413.55 303.593 412.843 303.834 412.178C304.076 411.514 304.451 410.906 304.937 410.393C305.424 409.879 306.01 409.472 306.661 409.195C307.312 408.918 308.012 408.778 308.719 408.784C310.193 408.801 311.605 409.375 312.673 410.39C313.741 411.404 314.387 412.785 314.479 414.256Z" fill="#263238"/>
<path d="M266.832 468.4C266.878 469.106 266.778 469.814 266.538 470.48C266.298 471.146 265.922 471.755 265.435 472.269C264.949 472.782 264.361 473.19 263.709 473.466C263.057 473.742 262.356 473.88 261.648 473.872C260.175 473.855 258.762 473.281 257.694 472.266C256.626 471.252 255.981 469.87 255.888 468.4C255.844 467.693 255.946 466.984 256.188 466.319C256.43 465.653 256.807 465.044 257.295 464.531C257.783 464.017 258.372 463.61 259.025 463.334C259.677 463.058 260.38 462.92 261.088 462.928C262.56 462.945 263.97 463.52 265.036 464.535C266.101 465.55 266.743 466.931 266.832 468.4Z" fill="#263238"/>
<path d="M283.647 468.4C283.691 469.106 283.59 469.813 283.348 470.478C283.107 471.142 282.732 471.75 282.245 472.263C281.759 472.777 281.172 473.184 280.522 473.461C279.871 473.738 279.17 473.878 278.463 473.872C276.99 473.855 275.578 473.281 274.51 472.266C273.441 471.252 272.796 469.87 272.703 468.4C272.657 467.694 272.757 466.986 272.997 466.32C273.238 465.654 273.613 465.045 274.1 464.531C274.587 464.018 275.174 463.61 275.826 463.334C276.478 463.058 277.18 462.92 277.887 462.928C279.361 462.945 280.773 463.519 281.841 464.534C282.909 465.548 283.555 466.929 283.647 468.4Z" fill="#263238"/>
<path d="M300.464 468.4C300.508 469.107 300.406 469.816 300.163 470.481C299.921 471.147 299.544 471.756 299.056 472.269C298.568 472.783 297.98 473.19 297.327 473.466C296.675 473.742 295.972 473.88 295.264 473.872C293.791 473.858 292.378 473.285 291.312 472.269C290.246 471.254 289.605 469.87 289.52 468.4C289.473 467.694 289.574 466.986 289.814 466.32C290.054 465.654 290.43 465.045 290.916 464.531C291.403 464.018 291.991 463.61 292.643 463.334C293.294 463.058 293.996 462.92 294.704 462.928C296.177 462.945 297.589 463.519 298.658 464.534C299.726 465.548 300.371 466.929 300.464 468.4Z" fill="#263238"/>
<path d="M317.264 468.4C317.31 469.106 317.21 469.814 316.969 470.48C316.729 471.146 316.354 471.755 315.867 472.269C315.38 472.782 314.793 473.19 314.141 473.466C313.489 473.742 312.787 473.88 312.08 473.872C310.606 473.855 309.194 473.281 308.126 472.266C307.057 471.252 306.412 469.87 306.32 468.4C306.275 467.693 306.378 466.984 306.62 466.319C306.862 465.653 307.239 465.044 307.727 464.531C308.215 464.017 308.804 463.61 309.456 463.334C310.109 463.058 310.811 462.92 311.52 462.928C312.992 462.942 314.405 463.515 315.471 464.53C316.538 465.546 317.178 466.93 317.264 468.4Z" fill="#263238"/>
<path d="M334.08 468.4C334.126 469.106 334.026 469.814 333.786 470.48C333.546 471.146 333.17 471.755 332.683 472.269C332.197 472.782 331.609 473.19 330.957 473.466C330.305 473.742 329.604 473.88 328.896 473.872C327.423 473.855 326.01 473.281 324.942 472.266C323.874 471.252 323.229 469.87 323.136 468.4C323.092 467.694 323.194 466.987 323.435 466.322C323.676 465.658 324.052 465.05 324.538 464.537C325.024 464.023 325.611 463.616 326.262 463.339C326.912 463.062 327.613 462.922 328.32 462.928C329.793 462.945 331.206 463.519 332.274 464.534C333.342 465.548 333.987 466.929 334.08 468.4Z" fill="#263238"/>
<path d="M350.895 468.4C350.939 469.107 350.837 469.816 350.595 470.481C350.353 471.147 349.976 471.756 349.488 472.269C349 472.783 348.411 473.19 347.759 473.466C347.106 473.742 346.404 473.88 345.695 473.872C344.224 473.854 342.813 473.28 341.748 472.265C340.682 471.25 340.04 469.869 339.951 468.4C339.905 467.694 340.005 466.986 340.246 466.32C340.486 465.654 340.861 465.045 341.348 464.531C341.835 464.018 342.422 463.61 343.074 463.334C343.726 463.058 344.428 462.92 345.135 462.928C346.609 462.945 348.021 463.519 349.089 464.534C350.158 465.548 350.803 466.929 350.895 468.4Z" fill="#263238"/>
<path d="M532.801 282.592C533.201 283.2 533.409 283.52 533.665 283.952L534.385 285.136C534.849 285.936 535.265 286.736 535.665 287.52C536.465 289.12 537.265 290.72 537.905 292.32C539.246 295.498 540.4 298.751 541.361 302.064C543.298 308.608 544.574 315.33 545.169 322.128L545.281 323.392C545.294 323.648 545.294 323.904 545.281 324.16V325.008C545.307 326.121 545.243 327.234 545.089 328.336C544.782 330.379 544.245 332.381 543.489 334.304C542.083 337.738 540.221 340.967 537.953 343.904C533.721 349.322 528.7 354.074 523.057 358L518.641 352.832C522.659 348.294 526.218 343.368 529.265 338.128C530.636 335.751 531.71 333.215 532.465 330.576C532.77 329.458 532.947 328.31 532.993 327.152C533.042 326.657 533.042 326.159 532.993 325.664V325.328C533.009 325.179 533.009 325.029 532.993 324.88L532.801 323.76C531.772 317.797 530.317 311.915 528.449 306.16C527.521 303.296 526.385 300.528 525.249 297.824C524.689 296.464 524.049 295.136 523.409 293.856L522.417 291.968L521.921 291.088L521.505 290.384L532.801 282.592Z" fill="#803E3C"/>
<path d="M517.92 358.032L523.712 370.272L528.304 359.92C528.304 359.92 524.224 350.96 518.704 351.792L517.92 358.032Z" fill="#7F3E3B"/>
<path d="M527.857 370.88L532.465 363.328L528.305 359.92L523.713 370.272L527.857 370.88Z" fill="#7F3E3B"/>
<path d="M501.809 653.152C503.007 653.122 504.198 652.961 505.361 652.672C505.42 652.654 505.473 652.621 505.515 652.576C505.557 652.531 505.587 652.476 505.601 652.416C505.611 652.354 505.602 652.291 505.577 652.234C505.551 652.178 505.509 652.129 505.457 652.096C504.993 651.792 500.929 649.168 499.361 649.872C499.187 649.953 499.038 650.079 498.928 650.236C498.819 650.393 498.753 650.577 498.737 650.768C498.688 651.058 498.711 651.354 498.803 651.633C498.895 651.912 499.053 652.164 499.265 652.368C499.99 652.928 500.894 653.207 501.809 653.152ZM504.449 652.208C502.129 652.688 500.369 652.608 499.649 651.984C499.502 651.838 499.394 651.658 499.335 651.459C499.277 651.26 499.269 651.05 499.313 650.848C499.313 650.576 499.473 650.496 499.585 650.448C500.449 650.064 502.801 651.2 504.449 652.208Z" fill="#7196CE"/>
<path d="M505.281 652.672H505.441C505.489 652.641 505.528 652.598 505.556 652.548C505.584 652.498 505.599 652.441 505.601 652.384C505.601 652.224 505.601 648.368 504.129 647.072C503.948 646.91 503.734 646.788 503.502 646.716C503.27 646.645 503.025 646.624 502.785 646.656C502.532 646.658 502.288 646.746 502.093 646.907C501.898 647.067 501.764 647.289 501.713 647.536C501.409 649.056 503.841 651.936 505.121 652.672H505.281ZM502.993 647.248C503.122 647.244 503.251 647.266 503.372 647.313C503.493 647.36 503.603 647.43 503.697 647.52C504.541 648.764 504.977 650.241 504.945 651.744C503.665 650.72 502.145 648.544 502.337 647.632C502.337 647.488 502.449 647.296 502.849 647.248H502.993Z" fill="#7196CE"/>
<path d="M486.704 646.624C486.742 646.577 486.766 646.521 486.775 646.462C486.783 646.402 486.776 646.341 486.753 646.286C486.73 646.23 486.693 646.182 486.645 646.146C486.597 646.11 486.54 646.087 486.48 646.08C485.824 646.08 480.08 645.808 478.768 647.216V647.312C478.66 647.45 478.589 647.615 478.564 647.789C478.539 647.963 478.56 648.14 478.624 648.304C478.71 648.579 478.861 648.829 479.064 649.032C479.268 649.235 479.517 649.386 479.792 649.472C481.648 650.048 484.928 647.952 486.72 646.656L486.704 646.624ZM479.248 647.632C479.968 646.864 483.136 646.656 485.504 646.688C483.024 648.384 480.96 649.184 479.92 648.864C479.739 648.809 479.574 648.71 479.44 648.576C479.306 648.442 479.207 648.277 479.152 648.096C479.12 648.034 479.103 647.966 479.103 647.896C479.103 647.826 479.12 647.758 479.152 647.696L479.248 647.632Z" fill="#7196CE"/>
<path d="M486.704 646.624C486.728 646.574 486.741 646.519 486.741 646.464C486.741 646.409 486.728 646.354 486.704 646.304C486.624 646.176 484.832 643.104 482.72 642.464C482.417 642.375 482.099 642.349 481.785 642.388C481.471 642.426 481.169 642.528 480.896 642.688C480.128 643.136 480.08 643.664 480.176 644C480.592 645.488 484.672 646.8 486.432 646.784C486.487 646.783 486.541 646.768 486.589 646.74C486.637 646.712 486.676 646.672 486.704 646.624ZM480.96 643.424C481.05 643.335 481.153 643.26 481.264 643.2C481.462 643.074 481.684 642.993 481.917 642.963C482.149 642.932 482.385 642.953 482.608 643.024C484 643.392 485.296 645.184 485.888 646.064C483.984 645.856 481.088 644.688 480.848 643.792C480.828 643.724 480.827 643.652 480.847 643.583C480.867 643.515 480.906 643.454 480.96 643.408V643.424Z" fill="#7196CE"/>
<path d="M504.321 235.728C502.721 243.728 499.265 261.024 504.817 266.336C504.817 266.336 502.641 274.336 487.873 274.336C471.617 274.336 480.113 266.336 480.113 266.336C488.977 264.224 488.753 257.632 487.201 251.456L504.321 235.728Z" fill="#7F3E3B"/>
<path d="M477.249 216.976C477.339 216.991 477.431 216.991 477.521 216.976C477.597 216.939 477.665 216.886 477.72 216.823C477.776 216.759 477.819 216.685 477.845 216.604C477.872 216.524 477.883 216.439 477.876 216.354C477.87 216.27 477.847 216.188 477.809 216.112C477.379 215.199 476.735 214.403 475.934 213.791C475.132 213.178 474.195 212.767 473.201 212.592C473.034 212.578 472.869 212.628 472.738 212.732C472.607 212.836 472.521 212.987 472.497 213.152C472.479 213.319 472.527 213.487 472.632 213.619C472.737 213.751 472.89 213.836 473.057 213.856C473.841 214.007 474.579 214.342 475.207 214.835C475.836 215.327 476.339 215.962 476.673 216.688C476.735 216.783 476.821 216.859 476.922 216.91C477.023 216.96 477.136 216.983 477.249 216.976Z" fill="#263238"/>
<path d="M472.401 224C471.141 226.336 469.569 228.489 467.729 230.4C468.227 230.856 468.818 231.198 469.462 231.402C470.106 231.607 470.786 231.669 471.457 231.584L472.401 224Z" fill="#630F0F"/>
<path d="M473.601 222.192C473.473 223.264 472.785 224.064 472.097 223.984C471.409 223.904 470.929 222.96 471.057 221.888C471.185 220.816 471.873 220.016 472.657 220.096C473.441 220.176 473.713 221.12 473.601 222.192Z" fill="#263238"/>
<path d="M472.864 220.192L470.4 219.2C470.4 219.2 471.44 221.312 472.864 220.192Z" fill="#263238"/>
<path d="M500.833 643.584L487.777 646.624L479.841 616.608L492.897 613.568L500.833 643.584Z" fill="#7F3E3B"/>
<path d="M520.865 652.352H507.473L508.513 621.328H521.921L520.865 652.352Z" fill="#7F3E3B"/>
<path d="M506.4 650.8H521.456C521.717 650.798 521.97 650.891 522.168 651.061C522.365 651.232 522.493 651.469 522.528 651.728L524.24 663.632C524.274 663.933 524.244 664.238 524.152 664.526C524.059 664.815 523.907 665.08 523.704 665.306C523.501 665.531 523.253 665.711 522.976 665.833C522.699 665.956 522.399 666.018 522.096 666.016C516.848 665.936 514.32 665.616 507.696 665.616C503.616 665.616 497.664 666.048 492.048 666.048C486.432 666.048 486.112 660.48 488.464 659.984C498.96 657.712 500.624 654.608 504.16 651.632C504.785 651.098 505.579 650.804 506.4 650.8Z" fill="#263238"/>
<path d="M486.624 644.624L500.304 638.336C500.536 638.225 500.801 638.203 501.049 638.274C501.296 638.345 501.509 638.503 501.648 638.72L508.192 648.832C508.345 649.092 508.441 649.382 508.476 649.681C508.51 649.981 508.481 650.285 508.39 650.573C508.3 650.861 508.15 651.127 507.95 651.353C507.751 651.58 507.506 651.762 507.232 651.888C502.432 654 500 654.784 493.984 657.552C490.288 659.248 482.784 663.152 477.696 665.552C472.608 667.952 469.984 662.976 471.904 661.536C480.496 655.136 482.96 650.544 484.928 646.368C485.261 645.599 485.864 644.978 486.624 644.624Z" fill="#263238"/>
<path opacity="0.2" d="M479.841 616.608L484.097 632.704L496.993 629.04L492.913 613.568L479.841 616.608Z" fill="black"/>
<path opacity="0.2" d="M521.92 621.328H508.512L507.984 637.328H521.392L521.92 621.328Z" fill="black"/>
<path d="M528.001 269.376C533.569 270.608 539.521 290.624 539.521 290.624L523.777 307.376C523.777 307.376 510.705 288.56 513.377 281.648C516.081 274.432 521.361 267.936 528.001 269.376Z" fill="#99256E"/>
<path opacity="0.4" d="M519.104 282.128C516.288 279.552 514.384 280.32 513.088 282.368C511.808 288.32 519.392 300.784 522.448 305.504C523.856 299.872 525.472 288 519.104 282.128Z" fill="black"/>
<path d="M457.456 269.776C457.456 269.776 451.056 272.016 463.856 350.656H518.256C517.344 328.512 517.312 314.848 527.856 269.376C520.234 267.803 512.507 266.787 504.736 266.336C496.512 265.743 488.256 265.743 480.032 266.336C469.488 267.312 457.456 269.776 457.456 269.776Z" fill="#F8E309"/>
<path opacity="0.4" d="M456.96 299.952C457.312 303.776 457.776 308.08 458.384 312.944C462.848 308.928 466.496 297.504 465.152 290.848C461.963 293.436 459.199 296.508 456.96 299.952Z" fill="black"/>
<path d="M462.785 288C459.849 295.388 456.544 302.624 452.881 309.68C449.26 316.991 444.975 323.953 440.081 330.48L439.057 331.744L438.545 332.368C438.369 332.576 438.225 332.768 437.953 333.056C436.99 334.107 435.917 335.051 434.753 335.872C432.695 337.297 430.442 338.417 428.065 339.2C423.918 340.524 419.614 341.288 415.265 341.472C407.12 341.796 398.968 341.07 391.009 339.312L391.889 332.592C395.569 332.592 399.425 332.592 403.089 332.288C406.769 332.107 410.434 331.701 414.065 331.072C417.437 330.546 420.734 329.622 423.889 328.32C425.163 327.776 426.353 327.054 427.425 326.176C427.834 325.833 428.204 325.447 428.529 325.024C428.529 325.024 428.721 324.768 428.849 324.592L429.217 324.064L429.969 323.008C433.984 316.807 437.56 310.332 440.673 303.632C443.873 296.832 447.073 289.776 450.001 282.832L462.785 288Z" fill="#803E3C"/>
<path d="M457.457 269.776C450.785 271.376 442.593 289.68 442.593 289.68L456.417 310C456.417 310 474.833 286.816 472.641 279.744C470.401 272.368 465.601 267.792 457.457 269.776Z" fill="#99256E"/>
<path d="M395.728 333.616L384.192 328.288L383.04 339.76C383.04 339.76 392.64 342.592 397.44 339.76L395.728 333.616Z" fill="#7F3E3B"/>
<path d="M377.296 327.136L376.192 335.872L383.04 339.76L384.192 328.288L377.296 327.136Z" fill="#7F3E3B"/>
<path d="M510.112 222.976C507.664 236.048 506.912 241.648 499.424 247.584C488.224 256.512 472.624 250.656 471.12 237.12C469.744 224.928 473.968 205.6 487.52 201.92C490.505 201.096 493.652 201.051 496.659 201.789C499.667 202.527 502.436 204.022 504.701 206.134C506.966 208.245 508.653 210.902 509.6 213.85C510.548 216.798 510.724 219.94 510.112 222.976Z" fill="#7F3E3B"/>
<path d="M481.392 225.728C480.64 232.4 480.352 249.728 495.008 250.272C512.944 250.928 518.32 235.6 516.72 229.472C526.064 221.872 527.408 208.8 516.912 198.8C506.416 188.8 483.312 194.384 476.912 204.128C468.8 216.208 481.392 225.728 481.392 225.728Z" fill="#263238"/>
<path d="M499.36 202.688C498.496 195.648 499.168 190.8 505.76 190.8C512.352 190.8 521.344 193.184 524.64 199.92C527.936 206.656 528.208 217.2 519.008 216.128C509.808 215.056 500.4 211.104 499.36 202.688Z" fill="#7196CE"/>
<path d="M509.568 200.992C507.968 192.608 515.472 168.992 533.696 167.392C542.144 166.672 546.048 175.76 541.696 177.264C549.696 177.168 554.816 187.744 547.36 189.328C553.248 193.104 551.792 200.848 543.392 204.656C537.136 207.536 511.728 212.608 509.568 200.992Z" fill="#263238"/>
<path d="M529.04 210C523.168 210 517.04 209.136 513.232 206.592C512.167 205.95 511.271 205.064 510.617 204.006C509.963 202.949 509.571 201.751 509.472 200.512C509.467 200.407 509.503 200.304 509.571 200.223C509.639 200.143 509.735 200.092 509.84 200.08C509.893 200.073 509.947 200.078 509.998 200.093C510.049 200.108 510.097 200.134 510.137 200.169C510.178 200.203 510.211 200.246 510.234 200.294C510.257 200.342 510.27 200.395 510.272 200.448C510.369 201.566 510.727 202.646 511.32 203.6C511.912 204.553 512.72 205.354 513.68 205.936C520.928 210.736 537.68 209.136 542.896 207.536C547.408 206.064 550.464 203.2 551.072 199.904C551.262 198.694 551.112 197.456 550.641 196.326C550.169 195.197 549.393 194.22 548.4 193.504C548.362 193.468 548.331 193.425 548.31 193.376C548.29 193.328 548.279 193.276 548.279 193.224C548.279 193.171 548.29 193.12 548.31 193.071C548.331 193.023 548.362 192.98 548.4 192.944C548.475 192.871 548.575 192.83 548.68 192.83C548.785 192.83 548.885 192.871 548.96 192.944C550.077 193.759 550.945 194.868 551.468 196.148C551.991 197.428 552.147 198.828 551.92 200.192C551.264 203.792 548.016 206.864 543.216 208.432C538.585 209.599 533.815 210.127 529.04 210Z" fill="#263238"/>
<path d="M477.312 224C475.822 226.09 475.208 228.679 475.6 231.216C476.128 234.576 479.392 234.8 481.76 232.656C484.128 230.512 486.192 226.64 484.448 223.856C484.06 223.255 483.525 222.762 482.894 222.426C482.262 222.09 481.555 221.921 480.84 221.936C480.125 221.95 479.425 222.147 478.807 222.509C478.19 222.87 477.675 223.383 477.312 224Z" fill="#7F3E3B"/>
<path d="M478.225 350.656C478.225 350.656 486.001 442.64 494.081 494.48C500.593 536.352 505.745 634.224 505.745 634.224H524.017C524.017 634.224 530.513 539.28 527.217 497.872C518.849 393.072 537.521 384.528 518.305 350.672L478.225 350.656Z" fill="#8BDD76"/>
<path opacity="0.4" d="M501.233 385.424C493.991 393.024 488.147 401.842 483.969 411.472C486.097 432.144 488.625 455.088 491.313 475.184C502.342 446.629 505.761 415.698 501.233 385.424Z" fill="black"/>
<path d="M465.44 350.08C465.44 350.08 448.56 450.544 445.904 495.824C452.528 537.696 479.632 626.208 479.632 626.208L496.256 620.176C496.256 620.176 487.056 523.664 477.056 497.248C499.568 421.456 516.112 402.288 511.296 350.656C499.76 350.656 465.44 350.08 465.44 350.08Z" fill="#8BDD76"/>
<path d="M477.408 630.624L499.872 624.528L498.592 615.568L474.544 622.08L477.408 630.624Z" fill="#263238"/>
<path d="M503.232 634.592H526.512L527.728 626.432L503.104 625.6L503.232 634.592Z" fill="#263238"/>
<path d="M519.104 347.456L521.552 352.336C521.744 352.72 521.296 353.104 520.672 353.104H463.584C463.104 353.104 462.688 352.864 462.656 352.544L462.16 347.744C462.16 347.408 462.56 347.12 463.088 347.12H518.208C518.374 347.097 518.542 347.116 518.699 347.175C518.855 347.234 518.994 347.33 519.104 347.456Z" fill="#7196CE"/>
<path opacity="0.5" d="M519.104 347.456L521.552 352.336C521.744 352.72 521.296 353.104 520.672 353.104H463.584C463.104 353.104 462.688 352.864 462.656 352.544L462.16 347.744C462.16 347.408 462.56 347.12 463.088 347.12H518.208C518.374 347.097 518.542 347.116 518.699 347.175C518.855 347.234 518.994 347.33 519.104 347.456Z" fill="black"/>
<path d="M511.696 353.6H513.168C513.472 353.6 513.696 353.44 513.68 353.264L512.976 346.864C512.976 346.672 512.704 346.528 512.416 346.528H510.928C510.64 346.528 510.416 346.672 510.432 346.864L511.12 353.264C511.152 353.472 511.408 353.6 511.696 353.6Z" fill="#7196CE"/>
<path d="M491.889 307.008C491.712 307.005 491.541 306.946 491.4 306.84C491.259 306.734 491.156 306.585 491.105 306.416C485.889 287.12 475.105 271.216 469.873 268.816C469.466 268.566 468.978 268.486 468.513 268.592C468.416 268.643 468.31 268.673 468.201 268.682C468.092 268.69 467.983 268.676 467.88 268.641C467.776 268.605 467.682 268.549 467.601 268.475C467.52 268.402 467.455 268.312 467.41 268.213C467.366 268.113 467.342 268.006 467.34 267.896C467.338 267.787 467.359 267.679 467.401 267.578C467.443 267.477 467.505 267.386 467.583 267.31C467.662 267.234 467.755 267.175 467.857 267.136C468.294 266.975 468.761 266.912 469.226 266.951C469.69 266.99 470.14 267.129 470.545 267.36C476.081 269.984 487.025 285.664 492.497 305.392C496.417 305.392 502.465 304.864 503.937 304.736C505.761 302.56 519.169 285.792 514.161 267.44C514.132 267.339 514.123 267.233 514.136 267.129C514.149 267.025 514.182 266.925 514.234 266.834C514.287 266.742 514.357 266.663 514.44 266.599C514.524 266.536 514.619 266.49 514.721 266.464C514.924 266.41 515.141 266.439 515.324 266.543C515.507 266.648 515.641 266.821 515.697 267.024C521.281 287.44 505.089 305.856 504.913 306.032C504.85 306.11 504.773 306.174 504.685 306.22C504.597 306.267 504.5 306.296 504.401 306.304C504.321 306.304 496.337 307.008 491.889 307.008Z" fill="#7196CE"/>
<path d="M518.4 318.304C509.68 301.968 506.112 300.816 504.56 295.568C505.736 292.633 507.414 289.926 509.52 287.568C508.464 287.264 506.192 286.816 504.72 286.544C504.88 285.824 505.056 285.12 505.216 284.432C503.614 284.253 501.994 284.328 500.416 284.656V283.056C498.384 282.614 496.296 282.479 494.224 282.656C494.405 283.413 494.581 284.181 494.752 284.96C493.152 285.264 490.72 285.76 489.552 286.096C491.822 288.667 493.489 291.711 494.432 295.008C489.728 303.088 471.456 355.024 501.184 359.008C530.912 362.992 527.104 334.656 518.4 318.304Z" fill="#7196CE"/>
<path opacity="0.4" d="M518.4 318.304C509.68 301.968 506.112 300.816 504.56 295.568C505.736 292.633 507.414 289.926 509.52 287.568C508.464 287.264 506.192 286.816 504.72 286.544C504.88 285.824 505.056 285.12 505.216 284.432C503.614 284.253 501.994 284.328 500.416 284.656V283.056C498.384 282.614 496.296 282.479 494.224 282.656C494.405 283.413 494.581 284.181 494.752 284.96C493.152 285.264 490.72 285.76 489.552 286.096C491.822 288.667 493.489 291.711 494.432 295.008C489.728 303.088 471.456 355.024 501.184 359.008C530.912 362.992 527.104 334.656 518.4 318.304Z" fill="#99256E"/>
<path d="M493.216 293.456C493.031 294.28 492.951 295.124 492.976 295.968C492.976 296.56 494.576 296.96 496.352 297.136C498.128 297.312 505.584 297.6 505.344 296.768C505.104 295.936 505.712 294.8 505.744 294.096C505.776 293.392 502.784 293.36 500.272 293.456C497.76 293.552 493.712 292.56 493.216 293.456Z" fill="#7196CE"/>
<path d="M475.92 353.6H477.392C477.68 353.6 477.904 353.44 477.888 353.264L477.2 346.864C477.2 346.672 476.928 346.528 476.624 346.528H475.2C474.912 346.528 474.688 346.672 474.704 346.864L475.392 353.264C475.36 353.472 475.616 353.6 475.92 353.6Z" fill="#7196CE"/>
</svg>
