<svg width="158" height="78" viewBox="0 0 158 78" fill="none" xmlns="http://www.w3.org/2000/svg">
<g filter="url(#filter0_d_0_1589)">
<rect width="143.572" height="47.7555" transform="matrix(0.995504 0.0947194 -0.0797147 0.996818 11.0732 10.7974)" fill="#FEDC00"/>
<rect width="143.637" height="47.7372" transform="matrix(0.992651 0.12101 -0.101926 0.994792 8.86572 2)" fill="#016DB9"/>
<rect x="1.00727" y="0.991279" width="138.926" height="47.0126" transform="matrix(0.999962 -0.0086941 0.00730729 0.999973 8.05847 12.1575)" stroke="#8BDD76" stroke-width="2"/>
<path d="M35.4001 42.2407C34.2823 42.2407 33.325 41.9945 32.5281 41.502C31.7367 41.0094 31.1474 40.3343 30.76 39.4766C30.3726 38.6188 30.179 37.6172 30.179 36.4717C30.179 35.3317 30.3726 34.3356 30.76 33.4834C31.1529 32.6257 31.745 31.9533 32.5364 31.4663C33.3333 30.9738 34.2934 30.7275 35.4167 30.7275C36.5457 30.7275 37.5085 30.9738 38.3054 31.4663C39.1078 31.9533 39.7027 32.6257 40.0901 33.4834C40.4775 34.3356 40.6711 35.3317 40.6711 36.4717C40.6711 37.6172 40.4747 38.6188 40.0818 39.4766C39.6944 40.3343 39.0995 41.0094 38.2971 41.502C37.4947 41.9945 36.5291 42.2407 35.4001 42.2407ZM35.4001 39.8584C36.1915 39.8584 36.7698 39.5817 37.135 39.0283C37.5002 38.4749 37.6829 37.6227 37.6829 36.4717C37.6829 35.3372 37.5002 34.4933 37.135 33.9399C36.7698 33.3866 36.1915 33.1099 35.4001 33.1099C34.6254 33.1099 34.061 33.3866 33.7068 33.9399C33.3526 34.4878 33.1755 35.3317 33.1755 36.4717C33.1755 37.6227 33.3499 38.4749 33.6985 39.0283C34.0527 39.5817 34.6199 39.8584 35.4001 39.8584ZM50.6155 33.7739C50.6155 34.0008 50.5906 34.2249 50.5408 34.4463C50.491 34.6676 50.408 34.9028 50.2917 35.1519C50.1755 35.3953 49.9957 35.6167 49.7522 35.8159C49.5142 36.0096 49.2237 36.1562 48.8806 36.2559V36.4053C49.5502 36.5492 50.0593 36.8673 50.408 37.3599C50.7621 37.8524 50.9392 38.4141 50.9392 39.0449C50.9392 41.015 49.6747 42 47.1458 42H42.1985V30.9849H46.8884C47.1541 30.9849 47.3865 30.9904 47.5857 31.0015C47.7849 31.007 48.0201 31.0319 48.2913 31.0762C48.568 31.1149 48.8059 31.173 49.0051 31.2505C49.2099 31.3224 49.4174 31.4276 49.6277 31.5659C49.8435 31.7043 50.0178 31.8703 50.1506 32.064C50.2834 32.2521 50.3941 32.4928 50.4827 32.7861C50.5712 33.0794 50.6155 33.4087 50.6155 33.7739ZM46.9382 39.792C47.8569 39.792 48.3162 39.4046 48.3162 38.6299C48.3162 38.2259 48.2 37.9409 47.9675 37.7749C47.7406 37.6089 47.3975 37.5259 46.9382 37.5259H45.1038V39.792H46.9382ZM46.6311 33.1929H45.1038V35.4922H46.6311C47.0738 35.4922 47.4169 35.3815 47.6604 35.1602C47.9039 34.9333 48.0256 34.6621 48.0256 34.3467C48.0256 34.0312 47.9039 33.7601 47.6604 33.5332C47.4169 33.3063 47.0738 33.1929 46.6311 33.1929ZM55.8616 42.2407C55.4465 42.2407 55.0453 42.2048 54.658 42.1328C54.2706 42.0664 53.8943 41.953 53.5291 41.7925C53.1694 41.632 52.8567 41.4355 52.5911 41.2031C52.3254 40.9707 52.1124 40.6829 51.9519 40.3398C51.7914 39.9912 51.7112 39.6038 51.7112 39.1777C51.7112 38.8789 51.7388 38.6077 51.7942 38.3643H54.4172C54.384 38.5303 54.3674 38.6825 54.3674 38.8208C54.3674 39.59 54.8655 39.9746 55.8616 39.9746C56.2932 39.9746 56.6474 39.8805 56.9241 39.6924C57.2008 39.4987 57.3391 39.1971 57.3391 38.7876C57.3391 37.9465 56.8134 37.5259 55.762 37.5259H54.9236V35.4922H55.7454C56.177 35.4922 56.5312 35.3815 56.8079 35.1602C57.0846 34.9388 57.2229 34.6123 57.2229 34.1807C57.2229 33.7435 57.0929 33.4198 56.8328 33.2095C56.5782 32.9937 56.2655 32.8857 55.8948 32.8857C55.7122 32.8857 55.5406 32.9051 55.3801 32.9438C55.2252 32.9826 55.0758 33.0462 54.9319 33.1348C54.788 33.2233 54.6746 33.3561 54.5916 33.5332C54.5085 33.7048 54.467 33.9095 54.467 34.1475C54.467 34.2305 54.4781 34.3494 54.5002 34.5044H51.9685C51.9132 34.2 51.8855 33.9455 51.8855 33.7407C51.8855 33.3146 51.963 32.93 52.1179 32.5869C52.2784 32.2383 52.4887 31.9505 52.7488 31.7236C53.0089 31.4967 53.3132 31.3086 53.6619 31.1592C54.016 31.0042 54.3785 30.8936 54.7493 30.8271C55.1256 30.7607 55.5129 30.7275 55.9114 30.7275C56.6916 30.7275 57.3834 30.8354 57.9866 31.0513C58.5898 31.2671 59.0712 31.6019 59.4309 32.0557C59.7961 32.5094 59.9788 33.0545 59.9788 33.6909C59.9788 34.3771 59.8183 34.9111 59.4973 35.293C59.1819 35.6748 58.7115 35.9958 58.0862 36.2559V36.4717C58.7779 36.7041 59.3064 37.0389 59.6716 37.4761C60.0424 37.9077 60.2278 38.4805 60.2278 39.1943C60.2278 39.8584 60.0286 40.4256 59.6301 40.896C59.2372 41.3608 58.717 41.7012 58.0696 41.917C57.4277 42.1328 56.6916 42.2407 55.8616 42.2407ZM64.5774 42H61.6721V30.9849H64.5774V35.3345H65.4075C65.7948 35.3345 66.1075 35.2321 66.3455 35.0273C66.5889 34.8171 66.7826 34.5072 66.9265 34.0977C67.4412 32.5039 67.8479 31.4663 68.1467 30.9849H71.1765C70.3354 32.6063 69.7156 33.9095 69.3171 34.8945C69.1401 35.3483 68.9242 35.6831 68.6697 35.8989C68.4151 36.1092 68.036 36.2503 67.5325 36.3223V36.4883C68.0693 36.5713 68.4732 36.7179 68.7444 36.9282C69.0211 37.133 69.2369 37.4456 69.3918 37.8662C69.5855 38.3975 69.8788 39.0754 70.2717 39.8999C70.6702 40.7244 71.0437 41.4245 71.3923 42H68.1965C68.0139 41.7067 67.7953 41.264 67.5408 40.6719C67.2917 40.0798 67.0981 39.554 66.9597 39.0947C66.8158 38.6133 66.6249 38.2757 66.387 38.082C66.149 37.8828 65.8225 37.7832 65.4075 37.7832H64.5774V42ZM76.6052 42.2407C75.4874 42.2407 74.53 41.9945 73.7332 41.502C72.9418 41.0094 72.3525 40.3343 71.9651 39.4766C71.5777 38.6188 71.384 37.6172 71.384 36.4717C71.384 35.3317 71.5777 34.3356 71.9651 33.4834C72.358 32.6257 72.9501 31.9533 73.7415 31.4663C74.5383 30.9738 75.4985 30.7275 76.6218 30.7275C77.7507 30.7275 78.7136 30.9738 79.5105 31.4663C80.3129 31.9533 80.9078 32.6257 81.2952 33.4834C81.6825 34.3356 81.8762 35.3317 81.8762 36.4717C81.8762 37.6172 81.6798 38.6188 81.2869 39.4766C80.8995 40.3343 80.3046 41.0094 79.5022 41.502C78.6998 41.9945 77.7341 42.2407 76.6052 42.2407ZM76.6052 39.8584C77.3966 39.8584 77.9749 39.5817 78.3401 39.0283C78.7053 38.4749 78.8879 37.6227 78.8879 36.4717C78.8879 35.3372 78.7053 34.4933 78.3401 33.9399C77.9749 33.3866 77.3966 33.1099 76.6052 33.1099C75.8305 33.1099 75.266 33.3866 74.9119 33.9399C74.5577 34.4878 74.3806 35.3317 74.3806 36.4717C74.3806 37.6227 74.5549 38.4749 74.9036 39.0283C75.2577 39.5817 75.8249 39.8584 76.6052 39.8584ZM91.115 41.5435H88.135L87.0642 37.7998C86.8595 37.0804 86.6907 36.2974 86.5579 35.4507C86.4306 34.604 86.3559 33.9593 86.3337 33.5166H86.093C86.1096 33.8818 86.1068 34.4795 86.0847 35.3096C86.0681 36.1341 86.0321 36.8729 85.9768 37.5259L85.6033 42H82.6316L83.5613 30.9849H87.6951L88.8323 35.3013C89.0536 36.1479 89.2224 36.9448 89.3386 37.6919C89.4548 38.439 89.5129 38.9619 89.5129 39.2607H89.7371C89.7371 38.9564 89.7952 38.4307 89.9114 37.6836C90.0276 36.9365 90.1908 36.159 90.4011 35.3511L91.5549 30.9849H95.6887L96.6184 42H93.6467L93.2732 37.5259C93.2179 36.8341 93.1763 36.076 93.1487 35.2515C93.121 34.4269 93.121 33.8486 93.1487 33.5166H92.9163C92.9163 33.8929 92.8471 34.5127 92.7087 35.376C92.5759 36.2393 92.4071 37.0306 92.2024 37.75L91.115 41.5435ZM107.526 30.9849V42H104.62V33.4502H101.134V42H98.2288V30.9849H107.526ZM115.992 42L115.552 40.3647H112.066L111.643 42H108.63L111.709 30.9849H115.959L119.039 42H115.992ZM113.917 33.3672H113.677C113.627 34.1751 113.414 35.2902 113.037 36.7124L112.73 37.8828H114.872L114.565 36.7124C114.161 35.1961 113.945 34.0811 113.917 33.3672ZM128.792 37.6172C128.848 38.3034 128.795 38.9176 128.635 39.46C128.48 40.0023 128.255 40.445 127.962 40.7881C127.669 41.1312 127.312 41.4162 126.891 41.6431C126.471 41.87 126.036 42.0277 125.588 42.1162C125.145 42.2103 124.678 42.2573 124.185 42.2573C123.499 42.2573 122.852 42.13 122.243 41.8755C121.634 41.6209 121.095 41.2585 120.624 40.7881C120.159 40.3122 119.791 39.7034 119.52 38.9619C119.249 38.2204 119.114 37.3958 119.114 36.4883C119.114 35.7357 119.202 35.0439 119.379 34.4131C119.562 33.7822 119.814 33.2427 120.135 32.7944C120.455 32.3407 120.835 31.9561 121.272 31.6406C121.709 31.3252 122.182 31.0928 122.691 30.9434C123.2 30.7884 123.737 30.7109 124.302 30.7109C124.788 30.7109 125.262 30.769 125.721 30.8853C126.18 30.9959 126.612 31.1758 127.016 31.4248C127.425 31.6738 127.771 31.9782 128.053 32.3379C128.341 32.6976 128.552 33.1431 128.684 33.6743C128.817 34.2056 128.842 34.7922 128.759 35.4341H126.02C126.108 34.6593 126.017 34.0783 125.746 33.6909C125.48 33.3035 124.982 33.1099 124.252 33.1099C123.51 33.1099 122.968 33.3976 122.625 33.9731C122.282 34.5431 122.11 35.3815 122.11 36.4883C122.11 38.735 122.852 39.8584 124.335 39.8584C124.949 39.8584 125.4 39.6924 125.688 39.3604C125.981 39.0228 126.119 38.4417 126.103 37.6172H128.792Z" fill="white"/>
</g>
<defs>
<filter id="filter0_d_0_1589" x="0" y="0" width="158" height="78" filterUnits="userSpaceOnUse" color-interpolation-filters="sRGB">
<feFlood flood-opacity="0" result="BackgroundImageFix"/>
<feColorMatrix in="SourceAlpha" type="matrix" values="0 0 0 0 0 0 0 0 0 0 0 0 0 0 0 0 0 0 127 0" result="hardAlpha"/>
<feOffset dy="2"/>
<feGaussianBlur stdDeviation="2"/>
<feComposite in2="hardAlpha" operator="out"/>
<feColorMatrix type="matrix" values="0 0 0 0 0 0 0 0 0 0 0 0 0 0 0 0 0 0 0.25 0"/>
<feBlend mode="normal" in2="BackgroundImageFix" result="effect1_dropShadow_0_1589"/>
<feBlend mode="normal" in="SourceGraphic" in2="effect1_dropShadow_0_1589" result="shape"/>
</filter>
</defs>
</svg>
