<svg width="380" height="380" viewBox="0 0 380 380" fill="none" xmlns="http://www.w3.org/2000/svg">
<path d="M21.356 214.806C21.356 214.806 35.948 274.36 95.076 305.74C154.204 337.121 225.082 328.168 282.796 322.392C340.51 316.616 377.462 277.514 373.92 228.418C370.378 179.322 323.942 172.52 288.8 121.889C253.658 71.2576 252.031 52.9264 195.039 27.7248C138.046 2.52321 64.3188 36.2824 35.5528 100.723C6.78685 165.163 21.356 214.806 21.356 214.806Z" fill="#3880BD"/>
<path opacity="0.7" d="M21.356 214.806C21.356 214.806 35.948 274.36 95.076 305.74C154.204 337.121 225.082 328.168 282.796 322.392C340.51 316.616 377.462 277.514 373.92 228.418C370.378 179.322 323.942 172.52 288.8 121.889C253.658 71.2576 252.031 52.9264 195.039 27.7248C138.046 2.52321 64.3188 36.2824 35.5528 100.723C6.78685 165.163 21.356 214.806 21.356 214.806Z" fill="white"/>
<path d="M49.9092 50.6692V316.791" stroke="#263238" stroke-miterlimit="10"/>
<path d="M49.9092 40.4092V45.5012" stroke="#263238" stroke-miterlimit="10"/>
<path d="M146.817 40.4092V316.791" stroke="#263238" stroke-miterlimit="10"/>
<path d="M243.724 40.4092V316.791" stroke="#263238" stroke-miterlimit="10"/>
<path d="M340.632 79.8152V316.791" stroke="#263238" stroke-miterlimit="10"/>
<path d="M340.632 40.4092V73.1728" stroke="#263238" stroke-miterlimit="10"/>
<path d="M289.416 78.1812H67.5032V209.699H289.416V78.1812Z" fill="#263238"/>
<path d="M288.162 81.9204H68.7572V205.96H288.162V81.9204Z" fill="white" stroke="#263238" stroke-linecap="round" stroke-linejoin="round"/>
<path d="M290.662 75.9316H64.9724V82.9844H290.662V75.9316Z" fill="#263238"/>
<path d="M180.948 75.8328C184.453 75.8328 187.294 72.9916 187.294 69.4868C187.294 65.982 184.453 63.1408 180.948 63.1408C177.444 63.1408 174.602 65.982 174.602 69.4868C174.602 72.9916 177.444 75.8328 180.948 75.8328Z" fill="white" stroke="#263238" stroke-linecap="round" stroke-linejoin="round"/>
<path d="M184.292 69.4868C184.294 70.1485 184.099 70.7958 183.732 71.3467C183.366 71.8976 182.844 72.3274 182.233 72.5817C181.622 72.8359 180.95 72.9033 180.301 72.7751C179.651 72.6469 179.055 72.329 178.587 71.8617C178.118 71.3943 177.799 70.7985 177.669 70.1496C177.54 69.5007 177.605 68.828 177.858 68.2165C178.111 67.605 178.54 67.0823 179.09 66.7145C179.64 66.3467 180.287 66.1504 180.948 66.1504C181.834 66.1504 182.683 66.5017 183.31 67.1272C183.937 67.7526 184.29 68.6013 184.292 69.4868Z" fill="#3880BD" stroke="#263238" stroke-miterlimit="10"/>
<path d="M108.596 162.473H81.4796V134.976H127.596V162.473H113.757" stroke="#263238" stroke-miterlimit="10"/>
<path d="M154.675 175.636H117.868V197.585H154.675V175.636Z" stroke="#263238" stroke-miterlimit="10"/>
<path d="M195.297 134.976H199.941V162.473H153.824V134.976H190.874" stroke="#263238" stroke-miterlimit="10"/>
<path d="M157.662 94.7796H211.789V122.284H141.983V94.7796H152.502" stroke="#263238" stroke-miterlimit="10"/>
<path d="M271.867 134.976H225.75V162.473H271.867V134.976Z" stroke="#263238" stroke-miterlimit="10"/>
<path d="M138.176 108.323C138.176 108.323 113.704 111.72 99.3245 132.453" stroke="#263238" stroke-miterlimit="10"/>
<path d="M122.52 165.437L125.757 174.891" stroke="#263238" stroke-miterlimit="10"/>
<path d="M155.944 164.586L152.98 173.47" stroke="#263238" stroke-miterlimit="10"/>
<path d="M122.2 171.775L125.757 174.891L126.646 170.666" stroke="#263238" stroke-miterlimit="10"/>
<path d="M151.529 170.666L152.859 174.222L156.636 171.996" stroke="#263238" stroke-miterlimit="10"/>
<path d="M99.9857 128.235L99.3245 132.453L103.983 129.565" stroke="#263238" stroke-miterlimit="10"/>
<path d="M201.294 148.002H224.398" stroke="#263238" stroke-miterlimit="10"/>
<path d="M219.511 145.114L224.626 148.002L219.959 150.89" stroke="#263238" stroke-miterlimit="10"/>
<path d="M128.364 148.002H151.468" stroke="#263238" stroke-miterlimit="10"/>
<path d="M146.581 145.114L151.689 148.002L147.03 150.89" stroke="#263238" stroke-miterlimit="10"/>
<path d="M176.715 124.48V131.51" stroke="#263238" stroke-miterlimit="10"/>
<path d="M179.596 126.616L176.708 131.731L173.827 127.064" stroke="#263238" stroke-miterlimit="10"/>
<path d="M224.177 156.309H201.955" stroke="#263238" stroke-miterlimit="10"/>
<path d="M206.652 153.421L201.742 156.309L206.226 159.197" stroke="#263238" stroke-miterlimit="10"/>
<path d="M156.416 103.352H198.185" stroke="#263238" stroke-miterlimit="10"/>
<path d="M156.416 107.35H198.185" stroke="#263238" stroke-miterlimit="10"/>
<path d="M156.416 111.348H198.185" stroke="#263238" stroke-miterlimit="10"/>
<path d="M85.766 145.114H123.318" stroke="#263238" stroke-miterlimit="10"/>
<path d="M85.766 149.12H123.318" stroke="#263238" stroke-miterlimit="10"/>
<path d="M85.766 153.117H123.318" stroke="#263238" stroke-miterlimit="10"/>
<path d="M158.642 145.114H196.186" stroke="#263238" stroke-miterlimit="10"/>
<path d="M158.642 149.12H196.186" stroke="#263238" stroke-miterlimit="10"/>
<path d="M158.642 153.117H196.186" stroke="#263238" stroke-miterlimit="10"/>
<path d="M228.844 145.114H266.388" stroke="#263238" stroke-miterlimit="10"/>
<path d="M228.844 149.12H266.388" stroke="#263238" stroke-miterlimit="10"/>
<path d="M228.844 153.117H266.388" stroke="#263238" stroke-miterlimit="10"/>
<path d="M122.649 183.107H151.308" stroke="#263238" stroke-miterlimit="10"/>
<path d="M122.649 187.104H151.308" stroke="#263238" stroke-miterlimit="10"/>
<path d="M122.649 191.11H151.308" stroke="#263238" stroke-miterlimit="10"/>
<path d="M249.736 106.841C249.655 106.839 249.576 106.811 249.512 106.761C249.448 106.712 249.401 106.642 249.379 106.564C249.357 106.486 249.36 106.403 249.389 106.327C249.418 106.251 249.47 106.186 249.539 106.142L249.827 105.959L249.721 106.02C249.636 106.057 249.541 106.061 249.454 106.033C249.366 106.005 249.292 105.946 249.244 105.867C249.197 105.788 249.18 105.694 249.196 105.604C249.213 105.513 249.261 105.431 249.333 105.374L250.853 104.409L249.523 105.169C249.438 105.211 249.34 105.221 249.249 105.194C249.157 105.168 249.079 105.109 249.029 105.027C248.979 104.946 248.962 104.849 248.98 104.756C248.999 104.662 249.051 104.579 249.128 104.523L251.849 102.744L249.272 104.264C249.187 104.313 249.087 104.326 248.992 104.302C248.897 104.278 248.815 104.218 248.763 104.135C248.713 104.051 248.697 103.95 248.718 103.854C248.74 103.758 248.796 103.674 248.877 103.618L253.118 100.784L248.984 103.162C248.901 103.211 248.802 103.225 248.708 103.203C248.615 103.18 248.534 103.122 248.482 103.041C248.455 103.001 248.436 102.956 248.426 102.909C248.416 102.862 248.416 102.813 248.425 102.766C248.434 102.718 248.453 102.673 248.48 102.633C248.506 102.593 248.541 102.558 248.581 102.532L254.942 97.9716L248.589 101.642C248.503 101.691 248.403 101.704 248.308 101.68C248.213 101.656 248.131 101.596 248.079 101.513C248.027 101.431 248.009 101.332 248.029 101.237C248.049 101.142 248.105 101.058 248.186 101.004L252.746 97.8424L248.262 100.434C248.179 100.481 248.082 100.496 247.989 100.475C247.896 100.454 247.814 100.398 247.76 100.32C247.708 100.238 247.69 100.139 247.71 100.044C247.73 99.9486 247.786 99.865 247.867 99.8108L250.451 98.0704L248.011 99.4764C247.926 99.5246 247.825 99.538 247.73 99.5139C247.636 99.4899 247.554 99.4301 247.502 99.3472C247.45 99.2643 247.433 99.1645 247.455 99.0693C247.476 98.9741 247.534 98.891 247.616 98.838L249.28 97.7132L247.76 98.5872C247.677 98.6259 247.583 98.6334 247.495 98.6082C247.407 98.583 247.331 98.5269 247.281 98.4501C247.231 98.3733 247.21 98.2811 247.223 98.1904C247.236 98.0997 247.281 98.0166 247.35 97.9564L251.796 94.6656L247.395 97.204C247.312 97.2487 247.215 97.2607 247.123 97.2376C247.031 97.2145 246.951 97.158 246.899 97.079C246.847 97.0001 246.826 96.9045 246.84 96.8109C246.855 96.7174 246.904 96.6326 246.977 96.5732L250.914 93.5332L247 95.76C246.915 95.807 246.816 95.8207 246.722 95.7981C246.628 95.7756 246.545 95.7186 246.491 95.6384C246.438 95.5573 246.419 95.4588 246.437 95.3638C246.456 95.2687 246.51 95.1846 246.59 95.1292L248.512 93.708L246.734 94.7416C246.649 94.7886 246.55 94.8023 246.456 94.7797C246.362 94.7572 246.279 94.7002 246.225 94.62C246.173 94.5393 246.154 94.4419 246.17 94.3475C246.187 94.253 246.239 94.1685 246.316 94.1108L247.889 92.9176L246.468 93.7384C246.385 93.7868 246.286 93.8012 246.193 93.7786C246.099 93.7559 246.018 93.6979 245.967 93.6168C245.913 93.5379 245.891 93.4417 245.905 93.3474C245.919 93.253 245.968 93.1674 246.042 93.1076L246.802 92.492L246.195 92.8416C246.119 92.8861 246.031 92.9029 245.945 92.889C245.859 92.8751 245.781 92.8314 245.723 92.7656C245.67 92.6973 245.641 92.613 245.641 92.5262C245.641 92.4394 245.67 92.3551 245.723 92.2868L246.924 90.7668L245.83 91.3976C245.768 91.4384 245.695 91.4602 245.621 91.4602C245.546 91.4602 245.474 91.4384 245.412 91.3976C245.353 91.3532 245.309 91.2933 245.283 91.2247C245.258 91.1561 245.252 91.0816 245.267 91.01L245.381 90.5464C245.317 90.542 245.254 90.5226 245.199 90.4896C245.144 90.4566 245.097 90.4109 245.062 90.3564C245.015 90.2683 245.003 90.1653 245.03 90.069C245.057 89.9726 245.12 89.8905 245.207 89.8396L245.754 89.5204C245.818 89.4847 245.891 89.4683 245.965 89.4734C246.038 89.4785 246.108 89.5048 246.167 89.549C246.226 89.5933 246.27 89.6536 246.295 89.7227C246.321 89.7918 246.325 89.8668 246.309 89.9384L246.21 90.326L248.216 89.1708C248.292 89.1287 248.381 89.114 248.467 89.1293C248.552 89.1446 248.63 89.1889 248.687 89.2548C248.744 89.3207 248.777 89.4042 248.78 89.4913C248.782 89.5784 248.755 89.6638 248.702 89.7332L247.509 91.2532L251.104 89.1784C251.187 89.1328 251.284 89.1192 251.377 89.1402C251.469 89.1612 251.55 89.2153 251.606 89.2924C251.658 89.3722 251.679 89.469 251.664 89.5634C251.648 89.6577 251.598 89.7428 251.522 89.8016L250.762 90.4248L252.662 89.3228C252.746 89.278 252.843 89.266 252.934 89.2892C253.026 89.3123 253.106 89.3688 253.158 89.4477C253.211 89.5267 253.232 89.6223 253.217 89.7158C253.203 89.8094 253.154 89.8942 253.08 89.9536L251.507 91.1468L254.099 89.6268C254.183 89.5797 254.282 89.5661 254.377 89.5886C254.471 89.6111 254.553 89.6681 254.608 89.7484C254.66 89.8291 254.679 89.9264 254.662 90.0209C254.645 90.1154 254.593 90.1999 254.517 90.2576L252.586 91.6788L255.482 90.0068C255.523 89.9793 255.569 89.9602 255.617 89.9505C255.665 89.9408 255.715 89.9407 255.763 89.9503C255.812 89.9598 255.858 89.9787 255.899 90.0061C255.94 90.0334 255.975 90.0685 256.002 90.1094C256.03 90.1503 256.049 90.1962 256.059 90.2445C256.068 90.2929 256.068 90.3426 256.059 90.3909C256.049 90.4393 256.03 90.4853 256.003 90.5263C255.976 90.5673 255.941 90.6025 255.9 90.63L251.963 93.67L257.154 90.63C257.238 90.5829 257.338 90.5693 257.432 90.5918C257.526 90.6143 257.609 90.6713 257.663 90.7516C257.715 90.8323 257.734 90.9296 257.717 91.0241C257.7 91.1186 257.648 91.2031 257.572 91.2608L253.118 94.5516L258.605 91.39C258.69 91.3411 258.789 91.3265 258.884 91.3491C258.979 91.3717 259.061 91.4299 259.115 91.5116C259.167 91.5947 259.185 91.6951 259.166 91.7915C259.146 91.8879 259.089 91.9728 259.008 92.0284L257.336 93.1456L259.495 91.8992C259.579 91.859 259.674 91.851 259.764 91.8768C259.853 91.9026 259.93 91.9604 259.98 92.0392C260.03 92.1179 260.049 92.2122 260.033 92.3041C260.018 92.396 259.97 92.4791 259.897 92.5376L257.321 94.278L260.361 92.5148C260.445 92.4746 260.541 92.4666 260.63 92.4924C260.72 92.5182 260.797 92.576 260.846 92.6548C260.896 92.7335 260.915 92.8278 260.9 92.9197C260.885 93.0116 260.836 93.0947 260.764 93.1532L256.204 96.3148L261.387 93.3204C261.471 93.2802 261.567 93.2722 261.656 93.298C261.746 93.3238 261.823 93.3816 261.872 93.4604C261.922 93.5391 261.941 93.6334 261.926 93.7253C261.911 93.8172 261.862 93.9003 261.79 93.9588L255.429 98.5188L262.512 94.4224C262.597 94.3742 262.697 94.3608 262.792 94.3848C262.887 94.4089 262.969 94.4686 263.021 94.5516C263.048 94.5919 263.066 94.6371 263.075 94.6847C263.085 94.7322 263.084 94.7811 263.074 94.8285C263.064 94.8759 263.045 94.9208 263.018 94.9607C262.99 95.0006 262.955 95.0346 262.915 95.0608L258.666 97.9108L263.279 95.2432C263.364 95.2005 263.463 95.1914 263.554 95.2175C263.646 95.2437 263.724 95.3033 263.774 95.3846C263.823 95.4658 263.841 95.5628 263.822 95.6562C263.804 95.7497 263.751 95.8328 263.675 95.8892L260.954 97.6676L263.865 95.988C263.949 95.9378 264.05 95.9233 264.146 95.9475C264.241 95.9717 264.323 96.0327 264.374 96.1172C264.4 96.1579 264.418 96.2036 264.427 96.2514C264.436 96.2993 264.435 96.3483 264.424 96.3958C264.413 96.4432 264.393 96.4881 264.365 96.5277C264.337 96.5673 264.301 96.6008 264.26 96.6264L262.74 97.5992L264.313 96.6872C264.398 96.637 264.499 96.6225 264.594 96.6467C264.69 96.6709 264.772 96.7319 264.822 96.8164C264.872 96.9009 264.888 97.0013 264.867 97.0973C264.846 97.1932 264.789 97.2775 264.708 97.3332L264.419 97.5156L264.746 97.3256C264.83 97.2854 264.926 97.2774 265.015 97.3032C265.105 97.329 265.182 97.3868 265.232 97.4656C265.281 97.5443 265.3 97.6386 265.285 97.7305C265.27 97.8224 265.221 97.9055 265.149 97.964L260.771 101.08L265.331 98.4428C265.415 98.392 265.516 98.3762 265.611 98.399C265.706 98.4218 265.789 98.4812 265.841 98.5644C265.893 98.6475 265.911 98.7479 265.892 98.8443C265.872 98.9407 265.815 99.0256 265.734 99.0812L265.635 99.142C265.72 99.0938 265.82 99.0798 265.914 99.103C266.009 99.1262 266.091 99.1847 266.143 99.2666C266.196 99.3484 266.215 99.4473 266.197 99.5429C266.179 99.6385 266.125 99.7235 266.046 99.7804L265.195 100.381L266 99.9248C266.077 99.8755 266.169 99.856 266.259 99.8699C266.349 99.8839 266.431 99.9304 266.489 100.001C266.547 100.071 266.577 100.16 266.574 100.251C266.571 100.342 266.534 100.429 266.471 100.495L265.027 102.159L266.426 101.354C266.493 101.314 266.572 101.296 266.65 101.305C266.728 101.313 266.801 101.346 266.859 101.399C266.918 101.45 266.961 101.519 266.98 101.595C266.999 101.671 266.994 101.752 266.965 101.825L266.813 102.182C266.887 102.174 266.962 102.187 267.028 102.221C267.094 102.255 267.149 102.307 267.186 102.372C267.236 102.459 267.249 102.562 267.224 102.659C267.198 102.755 267.135 102.838 267.049 102.889L266.243 103.352C266.175 103.393 266.096 103.411 266.017 103.404C265.938 103.397 265.864 103.365 265.804 103.312C265.745 103.26 265.704 103.189 265.687 103.112C265.67 103.034 265.679 102.954 265.711 102.881L265.841 102.562L263.447 103.945C263.369 103.986 263.279 103.999 263.193 103.982C263.107 103.965 263.029 103.918 262.974 103.85C262.918 103.782 262.888 103.696 262.888 103.608C262.889 103.52 262.919 103.435 262.975 103.368L264.419 101.703L258.879 104.88C258.795 104.927 258.697 104.94 258.604 104.917C258.511 104.895 258.43 104.838 258.377 104.758C258.35 104.719 258.331 104.674 258.321 104.626C258.312 104.579 258.311 104.531 258.32 104.483C258.33 104.436 258.348 104.391 258.375 104.351C258.402 104.31 258.436 104.276 258.476 104.249L259.327 103.641L256.173 105.458C256.088 105.506 255.988 105.519 255.893 105.495C255.798 105.471 255.716 105.411 255.664 105.328C255.613 105.245 255.596 105.146 255.617 105.05C255.638 104.955 255.696 104.872 255.778 104.819L255.869 104.751L253.764 105.967C253.681 106.015 253.582 106.03 253.489 106.007C253.395 105.984 253.314 105.926 253.262 105.845C253.235 105.805 253.216 105.761 253.207 105.713C253.197 105.666 253.196 105.617 253.206 105.57C253.215 105.523 253.233 105.478 253.26 105.437C253.287 105.397 253.321 105.363 253.361 105.336L257.762 102.243L249.926 106.765C249.872 106.809 249.806 106.835 249.736 106.841Z" fill="#3880BD"/>
<path d="M238.024 117.481C236.307 116.02 234.924 114.206 233.969 112.163C233.014 110.12 232.51 107.895 232.492 105.64C232.492 96.672 240.267 89.4064 249.858 89.4064C259.449 89.4064 267.231 96.672 267.231 105.64C267.231 114.608 259.457 121.874 249.858 121.874C247.345 121.874 244.858 121.357 242.554 120.354" stroke="#263238" stroke-miterlimit="10"/>
<path d="M217.193 102.136H228.16" stroke="#263238" stroke-miterlimit="10"/>
<path d="M217.193 105.914H228.16" stroke="#263238" stroke-miterlimit="10"/>
<path d="M217.193 109.698H228.16" stroke="#263238" stroke-miterlimit="10"/>
<path d="M84.6261 166.622H103.915" stroke="#263238" stroke-miterlimit="10"/>
<path d="M84.6261 170.407H103.915" stroke="#263238" stroke-miterlimit="10"/>
<path d="M80.6208 117.45H99.9097" stroke="#263238" stroke-miterlimit="10"/>
<path d="M84.6261 174.184H103.915" stroke="#263238" stroke-miterlimit="10"/>
<path d="M84.6261 182.126H103.915" stroke="#263238" stroke-miterlimit="10"/>
<path d="M84.6261 185.911H103.915" stroke="#263238" stroke-miterlimit="10"/>
<path d="M84.6261 189.696H103.915" stroke="#263238" stroke-miterlimit="10"/>
<path d="M245.237 89.8168L249.926 106.788L267.079 102.874" stroke="#263238" stroke-miterlimit="10"/>
<path d="M80.826 94.164V113.058H111.165" stroke="#263238" stroke-miterlimit="10"/>
<path d="M90.2728 96.7404H83.9724V113.058H90.2728V96.7404Z" fill="#3880BD" stroke="#263238" stroke-miterlimit="10"/>
<path d="M106.301 100.457H100.001V113.05H106.301V100.457Z" fill="#3880BD" stroke="#263238" stroke-miterlimit="10"/>
<path d="M98.2909 91.5876H91.9905V113.058H98.2909V91.5876Z" fill="#3880BD" stroke="#263238" stroke-miterlimit="10"/>
<path d="M44.3004 215.924C44.3004 215.924 44.3004 212.747 39.8544 208.324C35.4084 203.9 32.5508 201.339 32.5508 201.339C32.5508 201.339 30.324 208.643 34.4584 213.089C37.4937 216.216 40.7859 219.084 44.3004 221.662V215.924Z" fill="#8BDD76"/>
<path d="M37.8479 235.76C37.8479 235.76 37.8479 232.583 33.4019 228.16C28.9559 223.736 26.0983 221.16 26.0983 221.16C26.0983 221.16 23.8715 228.464 27.9983 232.91C31.047 236.038 34.3518 238.905 37.8783 241.482L37.8479 235.76Z" fill="#8BDD76"/>
<path d="M44.0192 221.335C44.0192 221.335 44.3612 218.173 49.248 214.221C54.1348 210.269 57.2508 208.05 57.2508 208.05C57.2508 208.05 58.6948 215.544 54.1196 219.534C50.7661 222.321 47.1868 224.825 43.4188 227.02L44.0192 221.335Z" fill="#8BDD76"/>
<path d="M36.2291 244.758C36.2291 244.758 36.8903 241.657 42.1723 238.237C47.4543 234.817 50.7755 232.917 50.7755 232.917C50.7755 232.917 51.4215 240.517 46.4511 244.006C42.8331 246.426 39.0199 248.541 35.0511 250.329L36.2291 244.758Z" fill="#8BDD76"/>
<path d="M37.6884 270.302C37.6884 270.302 37.6884 267.125 42.142 262.702C46.5956 258.278 49.4456 255.717 49.4456 255.717C49.4456 255.717 51.6648 263.021 47.538 267.467C44.4912 270.597 41.1862 273.464 37.658 276.04L37.6884 270.302Z" fill="#8BDD76"/>
<path d="M37.6199 276.534C37.6199 276.534 38.0683 273.395 34.2987 268.356C30.5291 263.317 28.0591 260.406 28.0591 260.406C28.0591 260.406 24.8215 267.322 28.2795 272.308C30.8406 275.834 33.693 279.139 36.8067 282.188L37.6199 276.534Z" fill="#8BDD76"/>
<path d="M33.2348 295.017C33.2348 295.017 33.2348 291.84 37.6808 287.417C42.1268 282.994 44.9844 280.425 44.9844 280.425C44.9844 280.425 47.2112 287.728 43.0768 292.174C40.0307 295.307 36.7257 298.178 33.1968 300.755L33.2348 295.017Z" fill="#8BDD76"/>
<path d="M36.1988 311.767C36.1988 311.767 35.4008 308.689 38.57 303.263C41.7392 297.836 43.89 294.652 43.89 294.652C43.89 294.652 47.8876 301.158 45.0224 306.508C42.8727 310.303 40.412 313.912 37.6656 317.3L36.1988 311.767Z" fill="#8BDD76"/>
<path d="M44.7031 215.08C44.479 218.393 44.0731 221.691 43.4871 224.96C41.7315 234.08 37.3311 239.902 35.5755 248.102C33.8199 256.302 38.8663 266.874 37.5135 277.408C36.1607 287.941 32.0643 293.808 33.2347 300.838C34.4051 307.868 40.5611 326.906 40.5611 326.906" stroke="#263238" stroke-linecap="round" stroke-linejoin="round"/>
<path d="M43.9812 223.448L48.7692 219.769" stroke="#263238" stroke-linecap="round" stroke-linejoin="round"/>
<path d="M44.2016 219.207L42.1952 215.642" stroke="#263238" stroke-linecap="round" stroke-linejoin="round"/>
<path d="M35.8416 247.76C35.8416 247.76 39.8544 244.72 43.9812 241.748" stroke="#263238" stroke-linecap="round" stroke-linejoin="round"/>
<path d="M37.8479 241.475C37.8479 241.475 34.5039 234.924 30.7191 230.576" stroke="#263238" stroke-linecap="round" stroke-linejoin="round"/>
<path d="M37.848 274.824C40.1389 270.602 43.029 266.734 46.4284 263.34" stroke="#263238" stroke-linecap="round" stroke-linejoin="round"/>
<path d="M37.0728 279.277C35.8542 276.413 34.4002 273.655 32.7256 271.031C30.3848 267.581 30.0504 267.132 30.0504 267.132" stroke="#263238" stroke-linecap="round" stroke-linejoin="round"/>
<path d="M33.2347 300.854C34.2497 298.328 35.4566 295.884 36.8447 293.542C38.2339 291.375 39.7998 289.326 41.5263 287.417" stroke="#263238" stroke-linecap="round" stroke-linejoin="round"/>
<path d="M37.6504 317.3C37.4174 314.889 37.8319 312.46 38.8512 310.262C40.5232 307.032 42.4156 302.792 43.1984 301.142" stroke="#263238" stroke-linecap="round" stroke-linejoin="round"/>
<path d="M15.2 258.354C15.2 258.354 14.8504 256.363 17.1608 253.095C19.4712 249.827 20.9608 247.92 20.9608 247.92C20.9608 247.92 23.1496 252.259 21.0368 255.52C19.4729 257.811 17.7187 259.967 15.7928 261.964L15.2 258.354Z" fill="#8BDD76"/>
<path d="M21.3864 270.096C21.3864 270.096 21.0368 268.105 23.3472 264.83C25.6576 261.554 27.1472 259.662 27.1472 259.662C27.1472 259.662 29.3284 264.001 27.2232 267.262C25.6582 269.555 23.9041 271.713 21.9792 273.714L21.3864 270.096Z" fill="#8BDD76"/>
<path d="M15.96 261.721C15.96 261.721 15.4052 259.776 11.9092 257.83C8.41317 255.884 6.22437 254.79 6.22437 254.79C6.22437 254.79 6.13317 259.654 9.43917 261.63C11.833 263.043 14.3424 264.251 16.9404 265.24L15.96 261.721Z" fill="#8BDD76"/>
<path d="M23.3776 275.561C23.3776 275.561 22.6176 273.691 18.9392 272.118C15.2608 270.545 12.9656 269.732 12.9656 269.732C12.9656 269.732 13.3912 274.573 16.8872 276.214C19.4252 277.331 22.051 278.236 24.738 278.92L23.3776 275.561Z" fill="#8BDD76"/>
<path d="M25.232 291.741C25.232 291.741 24.89 289.75 21.6144 287.44C18.3388 285.129 16.2944 283.852 16.2944 283.852C16.2944 283.852 15.6864 288.678 18.7644 291.019C20.9985 292.651 23.3653 294.092 25.84 295.328L25.232 291.741Z" fill="#8BDD76"/>
<path d="M25.9539 295.64C25.9539 295.64 25.3307 293.717 27.1471 290.153C28.9635 286.588 30.1871 284.491 30.1871 284.491C30.1871 284.491 32.9687 288.473 31.3423 291.977C30.1228 294.467 28.6939 296.849 27.0711 299.098L25.9539 295.64Z" fill="#8BDD76"/>
<path d="M31.5323 311.706C31.5323 311.706 31.7679 309.7 34.8991 307.207C38.0303 304.714 40.0291 303.324 40.0291 303.324C40.0291 303.324 40.9031 308.104 37.9695 310.612C35.8253 312.371 33.5373 313.947 31.1295 315.324L31.5323 311.706Z" fill="#8BDD76"/>
<path d="M30.7116 306.751C30.7116 306.751 30.4 304.76 27.094 302.48C23.788 300.2 21.774 298.885 21.774 298.885C21.774 298.885 21.1736 303.711 24.2516 306.052C26.4934 307.684 28.8678 309.125 31.35 310.361L30.7116 306.751Z" fill="#8BDD76"/>
<path d="M30.666 317.581C30.666 317.581 30.8408 315.567 28.2568 312.504C25.6728 309.442 24.0008 307.678 24.0008 307.678C24.0008 307.678 22.1996 312.193 24.5784 315.233C26.3472 317.384 28.2947 319.383 30.4 321.206L30.666 317.581Z" fill="#8BDD76"/>
<path d="M14.8428 257.891C15.3423 259.949 15.9538 261.979 16.6744 263.971C18.7644 269.481 22.154 272.673 24.1528 277.651C26.1516 282.629 24.1528 289.811 26.1136 296.24C28.0744 302.67 31.312 305.93 31.3424 310.468C31.3728 315.005 29.5792 327.56 29.5792 327.56" stroke="#263238" stroke-linecap="round" stroke-linejoin="round"/>
<path d="M16.2031 263.036L12.7983 261.25" stroke="#263238" stroke-linecap="round" stroke-linejoin="round"/>
<path d="M15.6028 260.406L16.4768 257.952" stroke="#263238" stroke-linecap="round" stroke-linejoin="round"/>
<path d="M23.94 277.4C23.94 277.4 21.0976 275.948 18.1868 274.504" stroke="#263238" stroke-linecap="round" stroke-linejoin="round"/>
<path d="M22.0399 273.684C22.8746 271.045 23.9773 268.498 25.3307 266.084" stroke="#263238" stroke-linecap="round" stroke-linejoin="round"/>
<path d="M25.6272 294.591C23.7304 292.194 21.4985 290.082 19 288.321" stroke="#263238" stroke-linecap="round" stroke-linejoin="round"/>
<path d="M26.6 297.304C27.0511 295.375 27.6612 293.486 28.424 291.658C29.5184 289.241 29.678 288.922 29.678 288.922" stroke="#263238" stroke-linecap="round" stroke-linejoin="round"/>
<path d="M31.1599 313.88C32.2677 312.509 33.4935 311.237 34.8231 310.08C35.6845 309.448 36.4928 308.746 37.2399 307.982" stroke="#263238" stroke-linecap="round" stroke-linejoin="round"/>
<path d="M31.3424 310.414C30.4367 308.941 29.4204 307.539 28.3024 306.219C27.1948 305.01 25.99 303.895 24.7 302.883" stroke="#263238" stroke-linecap="round" stroke-linejoin="round"/>
<path d="M30.4 321.206C30.2822 319.668 29.7577 318.189 28.88 316.92C27.4816 315.081 25.84 312.626 25.1636 311.661" stroke="#263238" stroke-linecap="round" stroke-linejoin="round"/>
<path d="M358.066 124.066C361.511 109.237 352.283 94.4233 337.454 90.978C322.625 87.5326 307.811 96.7608 304.366 111.59C300.92 126.419 310.149 141.233 324.977 144.678C339.806 148.123 354.62 138.895 358.066 124.066Z" fill="#263238" stroke="#263238" stroke-miterlimit="10"/>
<path d="M340.322 139.391C352.231 134.348 357.797 120.607 352.754 108.698C347.711 96.7897 333.97 91.2238 322.061 96.2664C310.153 101.309 304.587 115.05 309.63 126.959C314.672 138.867 328.414 144.433 340.322 139.391Z" fill="white" stroke="#263238" stroke-miterlimit="10"/>
<path d="M338.428 102.798L331.193 117.808H341.529" stroke="#263238" stroke-miterlimit="10"/>
<path d="M333.822 117.8C333.824 118.32 333.671 118.83 333.383 119.263C333.095 119.696 332.685 120.035 332.204 120.235C331.724 120.435 331.195 120.488 330.684 120.388C330.174 120.287 329.705 120.037 329.336 119.67C328.968 119.302 328.716 118.834 328.614 118.323C328.512 117.813 328.564 117.284 328.763 116.803C328.961 116.322 329.299 115.911 329.731 115.622C330.164 115.332 330.672 115.178 331.193 115.178C331.538 115.177 331.88 115.244 332.199 115.375C332.518 115.507 332.807 115.7 333.052 115.943C333.296 116.187 333.49 116.476 333.622 116.795C333.754 117.113 333.822 117.455 333.822 117.8Z" fill="#3880BD" stroke="#263238" stroke-miterlimit="10"/>
<path d="M182.142 189.027L178.6 183.874C178.6 183.874 179.299 175.59 178.509 174.298C177.718 173.006 164.92 171.509 164.16 172.467C163.4 173.424 166.09 174.291 166.09 174.291C166.09 174.291 164.266 175.096 164.456 176.016C164.738 177.369 167.071 177.536 167.071 177.536C167.071 177.536 165.216 178.775 165.444 179.58C165.627 180.219 167.481 180.72 167.481 180.72C167.481 180.72 165.604 181.572 167.139 182.658C168.674 183.745 169.974 184.87 169.974 184.87C169.974 184.87 168.91 187.15 171.79 189.134C174.671 191.117 179.649 194.727 179.649 194.727L182.142 189.027Z" fill="white" stroke="#263238" stroke-linecap="round" stroke-linejoin="round"/>
<path d="M164.639 169.016L161.804 168.781V169.655L164.084 170.939C164.214 170.284 164.399 169.64 164.639 169.016Z" fill="#263238" stroke="#263238" stroke-linecap="round" stroke-linejoin="round"/>
<path d="M175.78 174.754C175.654 174.759 175.528 174.741 175.408 174.701L164.16 171.152C164.013 171.113 163.876 171.044 163.756 170.95C163.637 170.857 163.538 170.74 163.465 170.606C163.392 170.473 163.346 170.327 163.331 170.176C163.316 170.024 163.332 169.872 163.378 169.727C163.424 169.582 163.498 169.448 163.597 169.333C163.696 169.217 163.818 169.123 163.954 169.056C164.09 168.989 164.239 168.95 164.39 168.942C164.542 168.934 164.694 168.957 164.836 169.009L176.084 172.558C176.337 172.638 176.554 172.805 176.695 173.03C176.837 173.254 176.895 173.521 176.858 173.784C176.822 174.047 176.694 174.289 176.497 174.466C176.299 174.644 176.046 174.746 175.78 174.754Z" fill="white" stroke="#263238" stroke-linecap="round" stroke-linejoin="round"/>
<path d="M181.64 176.966C181.47 176.967 181.301 176.941 181.138 176.89L175.332 175.058C175.113 175.028 174.903 174.95 174.718 174.83C174.532 174.71 174.374 174.551 174.257 174.364C174.139 174.177 174.063 173.967 174.035 173.747C174.006 173.528 174.026 173.305 174.093 173.094C174.16 172.884 174.272 172.69 174.421 172.527C174.57 172.364 174.753 172.235 174.957 172.15C175.161 172.065 175.381 172.025 175.602 172.034C175.823 172.043 176.04 172.1 176.236 172.201L182.043 174.032C182.418 174.156 182.731 174.422 182.914 174.772C183.097 175.123 183.136 175.531 183.023 175.91C182.928 176.206 182.745 176.466 182.498 176.655C182.25 176.844 181.951 176.953 181.64 176.966Z" fill="#263238" stroke="#263238" stroke-linecap="round" stroke-linejoin="round"/>
<path d="M176.958 178.661C176.435 177.143 175.826 175.656 175.134 174.207C174.336 172.733 172.801 171.464 172.193 169.982C171.585 168.5 169.959 170.795 170.559 171.904C171.16 173.014 172.52 174.663 172.543 175.416C172.566 176.168 172.763 176.723 171.897 179.216C171.03 181.708 170.552 184.536 172.49 186.527" fill="white"/>
<path d="M176.958 178.661C176.435 177.143 175.826 175.656 175.134 174.207C174.336 172.733 172.801 171.464 172.193 169.982C171.585 168.5 169.959 170.795 170.559 171.904C171.16 173.014 172.52 174.663 172.543 175.416C172.566 176.168 172.763 176.723 171.897 179.216C171.03 181.708 170.552 184.536 172.49 186.527" stroke="#263238" stroke-linecap="round" stroke-linejoin="round"/>
<path d="M166.121 174.291L172.543 175.416" stroke="#263238" stroke-linecap="round" stroke-linejoin="round"/>
<path d="M167.101 177.544C167.861 177.331 171.897 179.185 171.897 179.185" stroke="#263238" stroke-linecap="round" stroke-linejoin="round"/>
<path d="M167.512 180.728L170.848 181.845" stroke="#263238" stroke-linecap="round" stroke-linejoin="round"/>
<path d="M227.111 179.124C227.111 179.124 225.196 177.992 224.352 181.024C223.508 184.057 221.031 189.384 219.936 190.54C218.842 191.695 208.08 202.35 208.08 202.35C208.08 202.35 203.459 198.725 202.373 200.07C201.915 200.737 201.281 201.263 200.541 201.59L182.088 187.112L175.248 197.456C175.248 197.456 200.328 220.377 202.426 221.069C204.523 221.76 206.006 221.525 206.75 221.13C207.495 220.734 221.266 210.368 221.266 210.368C221.266 210.368 229.664 183.266 230.386 182.309C231.108 181.351 227.111 179.124 227.111 179.124Z" fill="#99256E" stroke="#263238" stroke-linecap="round" stroke-linejoin="round"/>
<path d="M202.327 202.411C202.327 202.411 206.066 206.728 206.066 212.192L202.327 202.411Z" fill="#3880BD"/>
<path d="M202.327 202.411C202.327 202.411 206.066 206.728 206.066 212.192" stroke="#263238" stroke-linecap="round" stroke-linejoin="round"/>
<path d="M208.369 204.136C208.369 204.136 209.517 207.016 207.792 213.34L208.369 204.136Z" fill="#3880BD"/>
<path d="M208.369 204.136C208.369 204.136 209.517 207.016 207.792 213.34" stroke="#263238" stroke-linecap="round" stroke-linejoin="round"/>
<path d="M235.334 145.677C235.334 145.677 227.187 140.357 228.152 135.303C229.117 130.249 247.388 126.183 257.891 129.595C268.394 133.008 270.53 148.724 269.146 158.422C267.763 168.12 266.927 190.251 266.927 190.251L231.291 191.3C231.291 191.3 234.612 165.384 235.304 157.191C235.995 148.998 235.334 145.677 235.334 145.677Z" fill="#263238" stroke="#263238" stroke-linecap="round" stroke-linejoin="round"/>
<path d="M217.094 288.367C217.854 296.111 219.298 330.235 220.134 335.289H257.184C257.108 329.468 257.009 290.145 257.845 286.93C258.902 282.91 260.384 269.504 258.75 261.812C257.116 254.121 255.132 250.412 255.132 250.412L216.676 250.374L216.79 253.528C216.79 253.528 216.068 277.4 217.094 288.367Z" fill="#263238" stroke="#263238" stroke-linecap="round" stroke-linejoin="round"/>
<path d="M225.317 265.141C226.837 266.182 228.357 266.927 228.357 268.432C229.117 281.945 232.112 319.899 233.168 333.572" stroke="#4C4C4C" stroke-linecap="round" stroke-linejoin="round"/>
<path d="M236.36 178.6L255.162 179.299C255.162 179.299 240.069 202.532 240.198 215.3C240.327 228.068 242.858 254.532 242.858 254.532C242.858 254.532 234.589 261.075 226.039 259.852C225.112 259.715 224.618 252.054 224.618 252.054C224.618 252.054 224.071 259.494 223.44 259.38C218.652 258.522 216.79 253.574 216.79 253.574L217.786 228C217.786 228 217.786 211.227 219.655 206.408C221.525 201.59 234.156 180.188 234.156 180.188L236.36 178.6Z" fill="white" stroke="#263238" stroke-linecap="round" stroke-linejoin="round"/>
<path d="M235.6 193.405C235.6 193.405 229.786 205.489 227.658 212.572C225.53 219.655 224.618 252.024 224.618 252.024" stroke="#263238" stroke-linecap="round" stroke-linejoin="round"/>
<path d="M252.898 179.117C252.898 179.117 239.712 198.786 237.166 205.869C234.62 212.952 232.917 240.069 233.252 251.56C233.586 263.051 237.219 275.728 237.219 275.728C247.91 277.435 258.85 276.684 269.207 273.532C269.207 273.532 264.602 253.141 262.367 246.445C260.972 242.057 259.92 237.567 259.221 233.016C259.221 233.016 274.36 184.741 274.36 183.996C274.36 183.251 274.064 182.476 272.551 182.043C271.039 181.61 252.898 179.117 252.898 179.117Z" fill="#99256E" stroke="#263238" stroke-linecap="round" stroke-linejoin="round"/>
<path d="M240.814 254.357L260.384 252.791L260.642 255.922L252.297 256.964" fill="#99256E"/>
<path d="M240.814 254.357L260.384 252.791L260.642 255.922L252.297 256.964" stroke="#263238" stroke-linecap="round" stroke-linejoin="round"/>
<path d="M236.185 181.108C236.185 181.108 220.476 208.871 220.126 213.887C219.777 218.903 217.451 242.007 216.159 249.31C214.867 256.614 209.281 270.796 209.281 270.796C209.281 270.796 207.845 264.579 208.263 261.812C208.681 259.046 214.73 243.344 215.376 239.818C216.022 236.292 216.896 223.744 216.744 218.242C216.592 212.739 216.212 208.742 217.352 204.706C218.492 200.67 227.111 179.124 227.111 179.124L239.613 178.509L236.185 181.108Z" fill="#99256E" stroke="#263238" stroke-linecap="round" stroke-linejoin="round"/>
<path d="M232.78 178.813L230.166 190.783L236.884 185.569L232.78 178.813Z" fill="white" stroke="#263238" stroke-linecap="round" stroke-linejoin="round"/>
<path d="M240.783 173.006L232.78 178.813L235.798 186.709L235.63 193.405L244.705 179.945L240.783 173.006Z" fill="white" stroke="#263238" stroke-linecap="round" stroke-linejoin="round"/>
<path d="M240.32 169.86C240.32 169.86 238.8 181.055 238.321 184.034C237.842 187.013 235.6 193.405 235.6 193.405C235.6 193.405 249.865 179.611 250.572 178.471C251.279 177.331 253.741 166.311 253.741 166.311C253.741 166.311 244.591 169.738 240.32 169.86Z" fill="white" stroke="#263238" stroke-linecap="round" stroke-linejoin="round"/>
<path d="M239.886 172.999C241.832 174.215 243.344 174.215 245.594 173.865C247.844 173.516 250.914 171.403 252.981 169.738C253.437 167.8 253.741 166.311 253.741 166.311C253.741 166.311 244.56 169.738 240.289 169.86C240.32 169.86 240.16 171.167 239.886 172.999Z" fill="#263238" stroke="#263238" stroke-linecap="round" stroke-linejoin="round"/>
<path d="M244.887 135.926L234.361 144.218C234.361 144.218 233.297 152.236 232.902 157.822C232.692 160.12 233.035 162.434 233.901 164.573C234.766 166.712 236.131 168.613 237.88 170.118C240.92 172.816 242.607 172.953 245.564 172.49C248.52 172.026 252.882 168.56 254.509 167.025C256.135 165.49 259.16 160.945 259.16 160.945C259.16 160.945 261.584 161.432 262.299 160.299C262.655 159.768 262.949 159.196 263.173 158.597C263.173 158.597 253.164 152.95 249.052 145.829C244.94 138.708 244.887 135.926 244.887 135.926Z" fill="white" stroke="#263238" stroke-linecap="round" stroke-linejoin="round"/>
<path d="M241.612 150.693C241.458 151.866 241.114 153.005 240.593 154.067C239.886 155.2 237.12 155.838 238.64 157.107C239.796 157.905 241.173 158.32 242.577 158.293" stroke="#263238" stroke-linecap="round" stroke-linejoin="round"/>
<path d="M238.556 160.444C238.556 160.444 244.196 162.876 247.821 159.608" stroke="#263238" stroke-linecap="round" stroke-linejoin="round"/>
<path d="M240.441 161.318C240.441 161.318 241.277 164.449 243.116 163.833C244.956 163.218 246.552 160.793 246.552 160.793C244.529 161.107 242.488 161.282 240.441 161.318Z" stroke="#263238" stroke-linecap="round" stroke-linejoin="round"/>
<path d="M248.71 152.152C248.71 152.973 248.383 153.672 247.95 153.672C247.517 153.672 247.099 153.034 247.076 152.213C247.053 151.392 247.403 150.693 247.836 150.693C248.269 150.693 248.687 151.339 248.71 152.152Z" fill="#263238"/>
<path d="M239.856 151.118C239.856 151.939 239.529 152.638 239.096 152.638C238.663 152.638 238.245 152 238.222 151.179C238.199 150.358 238.549 149.659 238.982 149.659C239.415 149.659 239.833 150.298 239.856 151.118Z" fill="#263238"/>
<path d="M236.877 147.676C237.154 147.385 237.488 147.155 237.859 146.999C238.229 146.844 238.628 146.767 239.029 146.772C239.431 146.778 239.827 146.867 240.193 147.033C240.559 147.198 240.887 147.438 241.156 147.736" stroke="#263238" stroke-linecap="round" stroke-linejoin="round"/>
<path d="M245.434 148.2C245.434 148.2 249.66 146.596 251.438 150.252" stroke="#263238" stroke-linecap="round" stroke-linejoin="round"/>
<path d="M243.094 182.043L235.63 193.405L246.597 187.507L243.094 182.043Z" fill="white" stroke="#263238" stroke-linecap="round" stroke-linejoin="round"/>
<path d="M255.618 172.193L243.094 182.043L246.742 192.333L258.772 178.418L255.618 172.193Z" fill="white" stroke="#263238" stroke-linecap="round" stroke-linejoin="round"/>
<path d="M240.396 230.569C238.704 230.098 237.089 229.386 235.6 228.456C232.796 226.784 229.809 227.369 227.308 227.445C224.808 227.521 223.068 228.076 223.349 229.064C223.63 230.052 226.13 229.984 226.883 229.961C227.635 229.938 228.92 231.154 228.92 231.154L222.665 232.674C222.665 232.674 220.704 233.989 222.247 235.44C223.79 236.892 224.071 236.565 224.071 236.565C224.071 236.565 226.434 240.251 228.942 240.426C231.45 240.601 241.642 238.047 241.642 238.047L240.396 230.569Z" fill="white" stroke="#263238" stroke-linecap="round" stroke-linejoin="round"/>
<path d="M258.119 201.841C258.415 203.361 260.034 225.728 260.034 225.728L239.4 230.592L240.502 242.334C240.502 242.334 277.43 237.986 278.114 235.714C278.798 233.442 276.389 194.195 276.594 191.938C276.8 189.681 279.809 182.058 270.795 182.058" fill="#99256E"/>
<path d="M258.119 201.841C258.415 203.361 260.034 225.728 260.034 225.728L239.4 230.592L240.502 242.334C240.502 242.334 277.43 237.986 278.114 235.714C278.798 233.442 276.389 194.195 276.594 191.938C276.8 189.681 279.809 182.058 270.796 182.058" stroke="#263238" stroke-linecap="round" stroke-linejoin="round"/>
<path d="M261.569 198.102C261.569 198.102 267.604 190.334 274.223 190.623L261.569 198.102Z" fill="#99256E"/>
<path d="M261.569 198.102C261.569 198.102 267.604 190.334 274.223 190.623" stroke="#263238" stroke-linecap="round" stroke-linejoin="round"/>
<path d="M261.569 200.974C261.569 200.974 266.745 198.102 271.92 198.102L261.569 200.974Z" fill="#3880BD"/>
<path d="M261.569 200.974C261.569 200.974 266.745 198.102 271.92 198.102" stroke="#263238" stroke-linecap="round" stroke-linejoin="round"/>
<path d="M30.9016 335.289V291.316C30.9016 290.969 30.7639 290.636 30.5188 290.391C30.2736 290.146 29.9411 290.008 29.5944 290.008H24.206C23.8586 290.008 23.5254 290.146 23.279 290.391C23.0327 290.636 22.8932 290.968 22.8912 291.316V335.289H30.9016Z" fill="#4C4C4C" stroke="#263238" stroke-linecap="round" stroke-linejoin="round"/>
<path d="M24.1909 335.289V291.316C24.1888 290.968 24.0494 290.636 23.8031 290.391C23.5567 290.146 23.2234 290.008 22.8761 290.008H17.4801C17.1334 290.008 16.8009 290.146 16.5557 290.391C16.3106 290.636 16.1729 290.969 16.1729 291.316V335.289H24.1909Z" fill="#263238" stroke="#263238" stroke-linecap="round" stroke-linejoin="round"/>
<path d="M27.2232 335.289H123.416C122.744 333.59 121.606 332.115 120.133 331.033C115.771 328.282 74.2216 321.852 74.2216 321.852L31.0612 321.161L28.994 321.852C28.994 321.852 26.714 325.067 26.9344 326.671C27.0484 327.484 27.1016 331.421 27.2232 335.289Z" fill="#263238" stroke="#263238" stroke-linecap="round" stroke-linejoin="round"/>
<path d="M66.4164 238.518C66.4164 238.518 56.316 244.256 52.8732 247.471C49.4304 250.686 43.6924 261.25 43.2288 267.672C42.7652 274.094 37.7188 298.68 37.7188 298.68C37.7188 298.68 27.36 318.866 28.994 321.852C30.628 324.839 73.074 321.852 74.2216 321.852C75.3692 321.852 73.074 309.229 73.074 309.229C73.074 309.229 89.1404 284.43 89.794 277.772C90.4476 271.115 85.6596 252.981 84.74 248.847C83.8204 244.712 68.4836 237.599 66.4164 238.518Z" fill="white" stroke="#263238" stroke-linecap="round" stroke-linejoin="round"/>
<path d="M58.52 273.6C58.52 273.6 66.5532 281.2 69.92 283.746" stroke="#263238" stroke-linecap="round" stroke-linejoin="round"/>
<path d="M54.7201 279.505C54.7201 279.505 69.5173 284.574 73.3173 285" stroke="#263238" stroke-linecap="round" stroke-linejoin="round"/>
<path d="M97.8652 212.8C97.8652 212.8 99.0128 221.297 98.7848 223.82C98.5568 226.343 96.2616 235.068 95.57 236.907C94.8784 238.746 94.1944 240.806 91.6712 240.578C90.2017 240.463 88.7824 239.991 87.5368 239.202L85.0136 247.692L67.5336 237.591L69.8136 233.031C69.8136 233.031 67.2904 228.904 66.5988 222.011C65.9072 215.118 69.8136 207.32 74.8676 204.341C79.9216 201.362 88.6388 202.502 91.162 204.569C93.6852 206.636 97.8652 212.8 97.8652 212.8Z" fill="white" stroke="#263238" stroke-linecap="round" stroke-linejoin="round"/>
<path d="M66.6445 234.156C67.5641 234.392 87.3089 243.344 87.5369 245.64C87.7649 247.935 88.6845 255.048 88.6845 255.048C84.6335 251.567 80.25 248.492 75.5973 245.868C71.9123 243.924 68.383 241.698 65.0409 239.21L66.6445 234.156Z" fill="white" stroke="#263238" stroke-linecap="round" stroke-linejoin="round"/>
<path d="M84.094 193.982C84.094 193.982 90.06 191.459 94.8784 192.607C99.6968 193.754 101.536 199.264 101.536 203.855C101.536 208.445 99.0128 213.955 98.0932 214.183C97.1736 214.411 94.8784 203.399 90.4932 200.184C88.0619 198.449 85.9048 196.358 84.094 193.982Z" fill="#FEDC00" stroke="#263238" stroke-linecap="round" stroke-linejoin="round"/>
<path d="M76.7601 195.366C76.7601 195.366 86.1765 190.312 94.4377 197.425C102.699 204.539 99.9477 211.66 98.1085 214.183C96.2693 216.706 96.2769 221.532 94.8937 222.452C93.5105 223.372 93.2901 218.781 91.6865 217.892C90.0829 217.003 90.2881 220.4 88.4565 224.96C86.6249 229.52 78.3561 236.208 74.0165 235.752C69.6769 235.296 64.3721 230.432 61.3853 220.37C58.3985 210.307 60.4733 199.477 65.9453 196.05C67.5496 195.047 69.3782 194.46 71.2662 194.34C73.1542 194.221 75.0422 194.573 76.7601 195.366Z" fill="#FEDC00" stroke="#263238" stroke-linecap="round" stroke-linejoin="round"/>
<path d="M95 199.69C95 199.69 96.824 204.964 92.1576 210.839C87.4912 216.714 81.2136 219.959 76.5548 217.124C71.896 214.29 71.6832 211.044 71.6832 211.044" stroke="#263238" stroke-linecap="round" stroke-linejoin="round"/>
<path d="M64.2048 212.04C64.2048 212.04 63.1864 227.871 72.7168 229.52C82.2472 231.169 87.514 221.16 87.514 221.16" stroke="#263238" stroke-linecap="round" stroke-linejoin="round"/>
<path d="M67.222 212.352C72.4855 212.352 76.7524 208.034 76.7524 202.707C76.7524 197.381 72.4855 193.063 67.222 193.063C61.9586 193.063 57.6917 197.381 57.6917 202.707C57.6917 208.034 61.9586 212.352 67.222 212.352Z" fill="#FEDC00" stroke="#263238" stroke-linecap="round" stroke-linejoin="round"/>
<path d="M65.2156 201.316C65.2156 201.316 66.4316 195.031 69.8744 194.218" stroke="#263238" stroke-linecap="round" stroke-linejoin="round"/>
<path d="M64.8129 202.16C64.8129 202.16 71.6985 199.728 74.9437 202.365" stroke="#263238" stroke-linecap="round" stroke-linejoin="round"/>
<path d="M64.4024 203.338C64.4024 203.338 61.3624 205.367 62.3808 210.034" stroke="#263238" stroke-linecap="round" stroke-linejoin="round"/>
<path d="M93.0468 223.136C93.0468 223.136 92.3552 216.25 90.288 216.478C88.2208 216.706 89.1404 227.042 90.288 228.638C90.3891 228.844 90.5408 229.02 90.7288 229.151C90.9168 229.282 91.135 229.363 91.3628 229.387C91.5907 229.41 91.8208 229.376 92.0316 229.286C92.2424 229.196 92.427 229.055 92.568 228.874" fill="white"/>
<path d="M93.0468 223.136C93.0468 223.136 92.3552 216.25 90.288 216.478C88.2208 216.706 89.1404 227.042 90.288 228.638C90.3891 228.844 90.5408 229.02 90.7288 229.151C90.9168 229.282 91.135 229.363 91.3628 229.387C91.5907 229.41 91.8208 229.376 92.0316 229.286C92.2424 229.196 92.427 229.055 92.568 228.874" stroke="#263238" stroke-linecap="round" stroke-linejoin="round"/>
<path d="M287.075 325.964H73.8949L81.0845 307.868H239.111L287.075 325.964Z" fill="#B5B5B5" stroke="#263238" stroke-linecap="round" stroke-linejoin="round"/>
<path d="M284.149 329.582H76.2584V335.289H284.149V329.582Z" fill="#263238" stroke="#263238" stroke-linecap="round" stroke-linejoin="round"/>
<path d="M287.075 325.964H73.8949V332.682H287.075V325.964Z" fill="#4C4C4C" stroke="#263238" stroke-linecap="round" stroke-linejoin="round"/>
<path d="M154.204 310.186L160.383 319.937H110.337L115.208 310.186H154.204Z" fill="white"/>
<path d="M144.78 313.112L150.959 322.856H100.905L105.784 313.112H144.78Z" fill="white"/>
<path d="M83.866 259.411L93.48 304.175L130.902 309.457C130.902 309.457 142.15 304.897 143.062 304.897C143.974 304.897 145.586 307.648 146.277 308.568C146.969 309.487 148.109 310.848 148.557 311.554C149.006 312.261 149.241 315.681 148.557 316.601C147.873 317.52 146.49 320.044 145.107 319.816C143.724 319.588 145.107 315.917 145.107 315.917C145.107 315.917 137.074 319.124 134.55 319.124C132.027 319.124 126.95 316.844 126.95 316.844C126.95 316.844 84.36 321.624 81.7988 320.72C80.7545 320.397 79.7875 319.864 78.9574 319.153C78.1274 318.442 77.4519 317.568 76.9728 316.586C76.0608 314.754 61.3624 265.62 61.3624 265.62" fill="white"/>
<path d="M83.866 259.411L93.48 304.175L130.902 309.457C130.902 309.457 142.15 304.897 143.062 304.897C143.974 304.897 145.586 307.648 146.277 308.568C146.969 309.487 148.109 310.848 148.557 311.554C149.006 312.261 149.241 315.681 148.557 316.601C147.873 317.52 146.49 320.044 145.107 319.816C143.724 319.588 145.107 315.917 145.107 315.917C145.107 315.917 137.074 319.124 134.55 319.124C132.027 319.124 126.95 316.844 126.95 316.844C126.95 316.844 84.36 321.624 81.7988 320.72C80.7545 320.397 79.7875 319.864 78.9574 319.153C78.1274 318.442 77.4519 317.568 76.9728 316.586C76.0608 314.754 61.3624 265.62 61.3624 265.62" stroke="#263238" stroke-linecap="round" stroke-linejoin="round"/>
<path d="M146.308 308.56C145.616 307.64 144.028 304.889 143.093 304.889C142.158 304.889 130.933 309.449 130.933 309.449L109.607 306.409C110.997 310.289 111.351 314.465 110.633 318.524C119.533 317.612 127.026 316.76 127.026 316.76C127.026 316.76 132.08 319.04 134.626 319.04C137.172 319.04 145.16 315.886 145.16 315.886C145.16 315.886 143.785 319.557 145.16 319.785C146.536 320.013 147.919 317.505 148.61 316.57C149.302 315.636 149.066 312.208 148.61 311.524C148.154 310.84 146.992 309.457 146.308 308.56Z" fill="white" stroke="#263238" stroke-linecap="round" stroke-linejoin="round"/>
<path d="M10.4576 335.289H373.92" stroke="#263238" stroke-linecap="round" stroke-linejoin="round"/>
<path d="M210.11 320.241H250.511V318.942L190.365 309.943L191.824 311.243L210.11 320.241Z" fill="white" stroke="#263238" stroke-linecap="round" stroke-linejoin="round"/>
<path d="M210.11 318.942H250.511L229.171 310.156L191.824 309.943L210.11 318.942Z" fill="white" stroke="#263238" stroke-linecap="round" stroke-linejoin="round"/>
<path d="M216.691 311.942H220.476L218.546 311.136L214.837 311.167L216.691 311.942Z" fill="white" stroke="#263238" stroke-width="0.75" stroke-linecap="round" stroke-linejoin="round"/>
<path d="M224.375 315.157L226.313 315.97H230.098L228.16 315.157H224.375Z" fill="white" stroke="#263238" stroke-width="0.75" stroke-linecap="round" stroke-linejoin="round"/>
<path d="M231.39 313.941H227.202L228.312 314.404H232.514L231.39 313.941Z" fill="white" stroke="#263238" stroke-width="0.75" stroke-linecap="round" stroke-linejoin="round"/>
<path d="M222.566 314.404H226.358L225.249 313.941H221.464L222.566 314.404Z" fill="white" stroke="#263238" stroke-width="0.75" stroke-linecap="round" stroke-linejoin="round"/>
<path d="M225.401 313.188H229.558L228.372 312.702H224.238L225.401 313.188Z" fill="white" stroke="#263238" stroke-width="0.75" stroke-linecap="round" stroke-linejoin="round"/>
<path d="M210.946 311.942H214.738L212.922 311.182L209.205 311.22L210.946 311.942Z" fill="white" stroke="#263238" stroke-width="0.75" stroke-linecap="round" stroke-linejoin="round"/>
<path d="M218.492 312.702L219.655 313.188H223.448L222.285 312.702H218.492Z" fill="white" stroke="#263238" stroke-width="0.75" stroke-linecap="round" stroke-linejoin="round"/>
<path d="M237.059 318.068H241.414L238.161 316.73H233.86L237.059 318.068Z" fill="white" stroke="#263238" stroke-width="0.75" stroke-linecap="round" stroke-linejoin="round"/>
<path d="M228.114 316.73L231.314 318.068H235.106L231.906 316.73H228.114Z" fill="white" stroke="#263238" stroke-width="0.75" stroke-linecap="round" stroke-linejoin="round"/>
<path d="M222.368 316.73L225.568 318.068H229.36L226.161 316.73H222.368Z" fill="white" stroke="#263238" stroke-width="0.75" stroke-linecap="round" stroke-linejoin="round"/>
<path d="M220.415 316.73H213.013L215.658 318.068H223.615L220.415 316.73Z" fill="white" stroke="#263238" stroke-width="0.75" stroke-linecap="round" stroke-linejoin="round"/>
<path d="M222.437 311.942H226.533L224.443 311.083L220.461 311.121L222.437 311.942Z" fill="white" stroke="#263238" stroke-width="0.75" stroke-linecap="round" stroke-linejoin="round"/>
<path d="M230.12 315.157L232.058 315.97H236.33L234.354 315.157H230.12Z" fill="white" stroke="#263238" stroke-width="0.75" stroke-linecap="round" stroke-linejoin="round"/>
<path d="M224.36 315.97L222.414 315.157H218.629L220.567 315.97H224.36Z" fill="white" stroke="#263238" stroke-width="0.75" stroke-linecap="round" stroke-linejoin="round"/>
<path d="M208.992 311.942L207.29 311.235L202.251 311.273L203.566 311.942H208.992Z" fill="white" stroke="#263238" stroke-width="0.75" stroke-linecap="round" stroke-linejoin="round"/>
<path d="M219.503 313.941H215.719L216.821 314.404H220.613L219.503 313.941Z" fill="white" stroke="#263238" stroke-width="0.75" stroke-linecap="round" stroke-linejoin="round"/>
<path d="M212.747 312.702L213.91 313.188H217.702L216.539 312.702H212.747Z" fill="white" stroke="#263238" stroke-width="0.75" stroke-linecap="round" stroke-linejoin="round"/>
<path d="M214.867 314.404L213.765 313.941H207.51L208.43 314.404H214.867Z" fill="white" stroke="#263238" stroke-width="0.75" stroke-linecap="round" stroke-linejoin="round"/>
<path d="M206.021 313.188H211.956L210.794 312.702H205.063L206.021 313.188Z" fill="white" stroke="#263238" stroke-width="0.75" stroke-linecap="round" stroke-linejoin="round"/>
<path d="M216.676 315.157H209.92L211.523 315.97H218.614L216.676 315.157Z" fill="white" stroke="#263238" stroke-width="0.75" stroke-linecap="round" stroke-linejoin="round"/>
<path d="M210.11 318.942H208.65L180.705 278.646L182.088 278.228H200.382L210.11 318.942Z" fill="white" stroke="#263238" stroke-linecap="round" stroke-linejoin="round"/>
<path d="M208.65 318.942L190.365 309.943L180.637 278.228H198.922L208.65 318.942Z" fill="white" stroke="#263238" stroke-linecap="round" stroke-linejoin="round"/>
<path d="M368.539 335.289V286.436C368.539 286.088 368.401 285.753 368.154 285.507C367.907 285.26 367.573 285.122 367.224 285.122H349.425C349.076 285.122 348.742 285.26 348.495 285.507C348.249 285.753 348.11 286.088 348.11 286.436V335.289H368.539Z" fill="#263238" stroke="#263238" stroke-linecap="round" stroke-linejoin="round"/>
<path d="M362.102 335.289V286.436C362.103 286.263 362.07 286.092 362.004 285.932C361.938 285.772 361.841 285.627 361.719 285.504C361.597 285.382 361.452 285.285 361.292 285.22C361.132 285.154 360.96 285.121 360.787 285.122H342.996C342.823 285.121 342.651 285.154 342.491 285.22C342.331 285.285 342.186 285.382 342.064 285.504C341.941 285.627 341.845 285.772 341.779 285.932C341.713 286.092 341.68 286.263 341.681 286.436V335.289H362.102Z" fill="#4C4C4C" stroke="#263238" stroke-linecap="round" stroke-linejoin="round"/>
<path d="M290.791 257.404C290.791 257.404 282.948 262.633 281.96 265.848C280.972 269.063 275.12 287.364 274.52 288.77C273.919 290.176 269.093 297.616 269.093 297.616L243.36 298.817C243.36 298.817 231.701 296.21 230.69 296.21C229.68 296.21 219.632 302.845 218.827 304.654C218.021 306.462 216.22 309.077 217.018 309.677C217.816 310.278 219.032 309.274 219.032 309.274C219.032 309.274 219.435 312.086 224.458 311.083C229.482 310.08 234.513 306.462 234.513 306.462C234.513 306.462 240.745 309.502 243.154 308.872L243.36 308.811V311.486C243.36 311.486 277.339 313.295 278.745 312.892C280.151 312.489 287.592 303.445 287.592 303.445L296.233 256.796C296.233 256.796 295.815 252.373 290.791 257.404Z" fill="#3880BD" stroke="#263238" stroke-linecap="round" stroke-linejoin="round"/>
<path d="M243.899 299.516L243.413 298.817H243.344C243.344 298.817 231.686 296.21 230.675 296.21C229.664 296.21 219.617 302.845 218.812 304.654C218.006 306.462 216.205 309.077 217.003 309.677C217.801 310.278 219.017 309.274 219.017 309.274C219.017 309.274 219.42 312.086 224.443 311.083C229.467 310.08 234.498 306.462 234.498 306.462C234.498 306.462 240.73 309.502 243.139 308.872L243.344 308.811V311.486L243.899 299.516Z" fill="#4C4C4C" stroke="#263238" stroke-linecap="round" stroke-linejoin="round"/>
<path d="M291.749 335.289H292.547C291.931 333.83 291.392 332.492 291.171 331.763C290.533 329.62 282.811 301.712 281.945 297.639C281.078 293.565 281.512 287.759 283.662 279.604C285.813 271.449 290.791 257.404 290.791 257.404L283.662 267.376C283.662 267.376 277.651 290.556 277.651 293.558C277.651 296.56 280.653 311.798 283.662 319.314C285.403 323.669 289.02 330.395 291.749 335.289Z" fill="#3880BD" stroke="#263238" stroke-linecap="round" stroke-linejoin="round"/>
<path d="M294.006 251.773C294.006 251.773 286.573 263.431 284.559 271.48C282.545 279.528 280.942 286.558 280.942 293.793C280.942 301.028 288.982 321.541 290.191 324.155C291.399 326.77 304.464 327.568 308.484 315.104C312.504 302.64 314.313 266.654 311.904 258.408C309.495 250.162 299.037 246.346 294.006 251.773Z" fill="white" stroke="#263238" stroke-linecap="round" stroke-linejoin="round"/>
<path d="M291.916 250.086C291.422 250.846 284.742 254.539 284.742 254.539L284.491 261.463L286.474 257.754L289.56 266.942L292.881 249.835L291.916 250.086Z" fill="#808080" stroke="#263238" stroke-linecap="round" stroke-linejoin="round"/>
<path d="M292.661 335.289H347.381C345.58 330.471 338.618 311.805 338.405 310.969C338.154 309.974 332.47 265.939 326.526 257.769C320.583 249.599 306.766 246.635 303.772 248.368C303.772 248.368 293.892 268.409 290.16 277.81C286.429 287.212 283.974 305.763 283.974 308.484C283.974 311.205 289.172 328.244 289.172 328.244L292.661 335.289Z" fill="#3880BD" stroke="#263238" stroke-linecap="round" stroke-linejoin="round"/>
<path d="M332.074 320.568L308.416 327.613L309.928 330.63L323.015 326.61" stroke="#263238" stroke-linecap="round" stroke-linejoin="round"/>
<path d="M280.22 215.255C280.22 215.255 278.32 221.122 278.274 222.33C278.255 223.231 278.283 224.131 278.358 225.028C278.381 225.51 278.265 225.987 278.023 226.404C277.628 227.042 273.182 231.321 273.706 232.18C274.231 233.039 277.301 236.451 277.301 236.451C277.301 236.451 279.452 246.704 282.332 247.889C285.213 249.075 289.279 248.345 289.279 248.345L290.746 252.35L308.712 246.46L308.438 240.555C308.438 240.555 310.24 230.037 308.172 222.482C306.105 214.928 288.131 206.72 280.22 215.255Z" fill="white" stroke="#263238" stroke-linecap="round" stroke-linejoin="round"/>
<path d="M280.797 227.308C280.584 228.182 280.136 228.828 279.802 228.745C279.467 228.661 279.361 227.886 279.574 227.012C279.786 226.138 280.227 225.492 280.569 225.576C280.911 225.659 281.002 226.434 280.797 227.308Z" fill="#263238"/>
<path d="M279.52 223.326C279.883 223.226 280.262 223.198 280.636 223.245C281.009 223.292 281.37 223.412 281.697 223.598C282.024 223.784 282.311 224.034 282.541 224.331C282.771 224.629 282.941 224.969 283.039 225.332" fill="white"/>
<path d="M279.52 223.326C279.883 223.226 280.262 223.198 280.636 223.245C281.009 223.292 281.37 223.412 281.697 223.598C282.024 223.784 282.311 224.034 282.541 224.331C282.771 224.629 282.941 224.969 283.039 225.332" stroke="#263238" stroke-linecap="round" stroke-linejoin="round"/>
<path d="M277.765 237.88C277.765 237.88 279.771 239.894 283.29 238.64L277.765 237.88Z" fill="white"/>
<path d="M277.765 237.88C277.765 237.88 279.771 239.894 283.29 238.64" stroke="#263238" stroke-linecap="round" stroke-linejoin="round"/>
<path d="M291.232 200.876C290.661 199.474 289.75 198.236 288.581 197.274C287.412 196.312 286.022 195.656 284.536 195.366C279.414 194.378 275.751 201.522 277.035 204.265C278.32 207.009 278.897 207.632 276.435 207.769C273.972 207.906 269.253 214.312 273.395 218.242C277.537 222.171 282.56 216.554 282.811 218.561C283.062 220.567 282.386 222.361 284.795 222.444C287.204 222.528 291.164 222.277 290.54 223.835C289.917 225.393 289.78 229.003 292.06 229.558C294.34 230.113 295.769 227.278 297.38 227.681C298.992 228.084 301.18 233.214 299.744 236.041C298.308 238.868 297.358 238.876 297.19 239.567C297.023 240.259 301.484 244.978 306.067 244.127C310.65 243.276 316.608 241.802 317.308 236.862C318.007 231.922 316.548 230.842 318.448 229.11C320.348 227.377 322.164 226.83 321.624 224.033C321.085 221.236 319.344 220.324 319.907 218.021C320.469 215.718 318.182 205.2 308.332 200.64C298.482 196.08 291.232 200.876 291.232 200.876Z" fill="#263238" stroke="#263238" stroke-linecap="round" stroke-linejoin="round"/>
<path d="M310.604 240.905L287.956 254.045L289.583 266.942L313.751 247.73L310.604 240.905Z" fill="white" stroke="#263238" stroke-linecap="round" stroke-linejoin="round"/>
<path d="M251.347 302.039C251.347 302.039 246.787 300.344 243.899 299.516C238.944 298.095 234.3 295.982 232.568 296.476C230.835 296.97 222.399 302.776 222.399 302.776C222.399 302.776 219.427 309.951 219.678 310.946C219.929 311.942 221.738 310.338 221.738 310.338C221.738 310.338 220.666 311.684 221.654 312.679C222.642 313.675 223.638 311.684 223.638 311.684C223.638 311.684 223.387 314.161 224.869 313.91C225.25 313.895 225.615 313.755 225.909 313.512C226.203 313.269 226.409 312.937 226.495 312.565C226.495 312.565 226.602 313.91 227.84 313.91C229.079 313.91 231.8 308.72 231.8 308.72L236.497 308.963C236.497 308.963 240.213 310.946 242.44 311.19C244.667 311.433 247.388 309.951 247.388 309.951L250.352 310.711L252.829 303.536L251.347 302.039Z" fill="white" stroke="#263238" stroke-linecap="round" stroke-linejoin="round"/>
<path d="M221.738 310.338C221.738 310.338 224.268 304.258 224.671 303.863C225.074 303.468 230.136 300.626 230.136 300.626" stroke="#263238" stroke-linecap="round" stroke-linejoin="round"/>
<path d="M223.638 311.684C223.638 311.684 226.678 305.482 227.004 305.178C227.331 304.874 231.146 302.959 231.146 302.959" stroke="#263238" stroke-linecap="round" stroke-linejoin="round"/>
<path d="M226.48 312.565C226.48 312.565 229.414 306.903 229.923 306.599C230.432 306.295 231.739 305.588 231.739 305.588" stroke="#263238" stroke-linecap="round" stroke-linejoin="round"/>
<path d="M316.92 257.26C316.92 257.26 301.332 267.398 301.583 271.358C301.834 275.318 303.065 275.318 303.065 275.318L295.146 305.003C295.146 305.003 292.676 303.027 292.425 305.505L292.182 307.975L250.861 301.051L246.658 311.44C246.658 311.44 263.728 318.121 275.606 322.324C287.485 326.526 299.85 331.231 301.082 329.004C302.313 326.777 326.8 290.16 328.32 287.44C329.84 284.719 329.84 279.771 329.84 279.771" fill="#3880BD"/>
<path d="M316.92 257.26C316.92 257.26 301.332 267.398 301.583 271.358C301.834 275.318 303.065 275.318 303.065 275.318L295.146 305.003C295.146 305.003 292.676 303.027 292.425 305.505L292.182 307.975L250.861 301.051L246.658 311.44C246.658 311.44 263.728 318.121 275.606 322.324C287.485 326.526 299.85 331.231 301.082 329.004C302.313 326.777 326.8 290.16 328.32 287.44C329.84 284.719 329.84 279.771 329.84 279.771" stroke="#263238" stroke-linecap="round" stroke-linejoin="round"/>
<path d="M303.05 275.318C303.05 275.318 307.747 265.673 319.132 264.928" stroke="#263238" stroke-linecap="round" stroke-linejoin="round"/>
</svg>
