<svg width="800" height="800" viewBox="0 0 800 800" fill="none" xmlns="http://www.w3.org/2000/svg">
<path d="M398.48 777.68C606.678 777.68 775.456 680.236 775.456 560.032C775.456 439.828 606.678 342.384 398.48 342.384C190.282 342.384 21.5039 439.828 21.5039 560.032C21.5039 680.236 190.282 777.68 398.48 777.68Z" fill="#F0F0F0"/>
<path d="M614.976 635.552C590.256 621.28 590.256 598.144 614.976 583.872C639.696 569.6 679.776 569.6 704.496 583.872C729.216 598.144 729.216 621.28 704.496 635.552C679.776 649.824 639.696 649.824 614.976 635.552Z" fill="#E0E0E0"/>
<path d="M112.192 637.536L47.1679 600C43.5039 597.888 43.5039 594.448 47.1679 592.336L425.392 373.968C427.447 372.926 429.72 372.384 432.024 372.384C434.328 372.384 436.6 372.926 438.656 373.968L503.696 411.504C507.36 413.616 507.36 417.056 503.696 419.168L125.472 637.536C123.414 638.578 121.139 639.121 118.832 639.121C116.525 639.121 114.25 638.578 112.192 637.536Z" fill="#E0E0E0"/>
<path d="M345.92 570.624L401.824 538.304C407.583 534.976 410.464 530.624 410.464 526.256C410.464 521.888 410.464 518.48 410.464 518.48L352.48 485.776C350.86 484.729 349.511 483.313 348.543 481.644C347.576 479.976 347.016 478.102 346.912 476.176V407.232L249.312 463.648V532.56C249.424 534.484 249.986 536.355 250.953 538.023C251.92 539.69 253.265 541.107 254.88 542.16L304.224 570.576C315.712 577.28 334.4 577.28 345.92 570.624Z" fill="#7196CE"/>
<g opacity="0.6">
<path d="M345.92 570.624L401.824 538.304C407.583 534.976 410.464 530.624 410.464 526.256C410.464 521.888 410.464 518.48 410.464 518.48L352.48 485.776C350.86 484.729 349.511 483.313 348.543 481.644C347.576 479.976 347.016 478.102 346.912 476.176V407.232L249.312 463.648V532.56C249.424 534.484 249.986 536.355 250.953 538.023C251.92 539.69 253.265 541.107 254.88 542.16L304.224 570.576C315.712 577.28 334.4 577.28 345.92 570.624Z" fill="black"/>
</g>
<path opacity="0.3" d="M272.72 544.768V552.512L254.832 542.192C253.218 541.14 251.875 539.723 250.91 538.055C249.945 536.387 249.387 534.516 249.28 532.592V463.648L267.872 452.912C268.256 457.632 268.672 462.512 269.072 467.312L256 474.832V528.672C256.104 530.598 256.663 532.473 257.63 534.141C258.598 535.81 259.948 537.226 261.568 538.272L272.72 544.768Z" fill="black"/>
<path d="M256 528.688C256.11 530.613 256.671 532.485 257.639 534.152C258.606 535.82 259.952 537.237 261.568 538.288L304.16 562.832C315.68 569.472 334.368 569.488 345.904 562.832L401.904 530.512C413.44 523.856 413.44 513.072 401.904 506.416L359.28 481.872C357.668 480.818 356.325 479.4 355.361 477.733C354.397 476.066 353.837 474.195 353.728 472.272V418.416L256.128 474.832L256 528.688Z" fill="#7196CE"/>
<path opacity="0.3" d="M256 528.688C256.11 530.613 256.671 532.485 257.639 534.152C258.606 535.82 259.952 537.237 261.568 538.288L304.16 562.832C315.68 569.472 334.368 569.488 345.904 562.832L401.904 530.512C413.44 523.856 413.44 513.072 401.904 506.416L359.28 481.872C357.668 480.818 356.325 479.4 355.361 477.733C354.397 476.066 353.837 474.195 353.728 472.272V418.416L256.128 474.832L256 528.688Z" fill="black"/>
<path opacity="0.5" d="M370.559 488.448L359.215 481.904C357.603 480.85 356.261 479.432 355.297 477.765C354.332 476.098 353.773 474.227 353.663 472.304V418.416L256.063 474.832V528.688C256.173 530.613 256.735 532.485 257.702 534.152C258.669 535.82 260.015 537.237 261.631 538.288L272.831 544.688L370.559 488.448Z" fill="black"/>
<path d="M410.48 518.496V526.272C410.48 530.64 407.584 534.976 401.84 538.32L345.84 570.624C339.711 573.895 332.867 575.594 325.92 575.568V567.824C332.867 567.85 339.711 566.151 345.84 562.88L401.84 530.544C407.584 527.232 410.48 522.864 410.48 518.496Z" fill="#7196CE"/>
<path opacity="0.5" d="M410.48 518.496V526.272C410.48 530.64 407.584 534.976 401.84 538.32L345.84 570.624C339.711 573.895 332.867 575.594 325.92 575.568V567.824C332.867 567.85 339.711 566.151 345.84 562.88L401.84 530.544C407.584 527.232 410.48 522.864 410.48 518.496Z" fill="black"/>
<path d="M99.1998 595.616C101.31 596.635 103.63 597.144 105.972 597.103C108.315 597.061 110.615 596.47 112.688 595.376L490.288 377.376C492.312 376.055 493.998 374.277 495.207 372.183C496.416 370.09 497.115 367.742 497.248 365.328V59.856C497.176 57.5078 496.549 55.2099 495.421 53.1496C494.292 51.0893 492.692 49.3248 490.752 48C488.644 46.9798 486.326 46.4713 483.985 46.5157C481.644 46.5602 479.347 47.1565 477.28 48.256L99.6798 266.32C97.6622 267.649 95.9872 269.436 94.7916 271.535C93.5959 273.635 92.9134 275.987 92.7998 278.4V583.824C92.8712 586.153 93.4873 588.433 94.5987 590.48C95.7101 592.528 97.286 594.287 99.1998 595.616Z" fill="#7196CE"/>
<path d="M112.736 595.36L490.336 377.36C492.363 376.042 494.05 374.264 495.26 372.17C496.47 370.076 497.167 367.727 497.296 365.312V59.856C497.296 55.424 494.176 53.616 490.336 55.84L112.736 273.84C110.71 275.16 109.024 276.938 107.815 279.032C106.606 281.125 105.907 283.474 105.776 285.888V591.344C105.776 595.776 108.896 597.584 112.736 595.36Z" fill="#7196CE"/>
<path opacity="0.5" d="M112.736 595.36L490.336 377.36C492.363 376.042 494.05 374.264 495.26 372.17C496.47 370.076 497.167 367.727 497.296 365.312V59.856C497.296 55.424 494.176 53.616 490.336 55.84L112.736 273.84C110.71 275.16 109.024 276.938 107.815 279.032C106.606 281.125 105.907 283.474 105.776 285.888V591.344C105.776 595.776 108.896 597.584 112.736 595.36Z" fill="black"/>
<path d="M111.712 603.296C109.732 604.16 107.588 604.585 105.428 604.541C103.268 604.497 101.143 603.985 99.1998 603.04C97.2817 601.708 95.7032 599.944 94.5916 597.89C93.48 595.837 92.8662 593.55 92.7998 591.216V563.408L105.84 570.96V598.768C105.76 602.816 108.336 604.656 111.712 603.296Z" fill="#7196CE"/>
<path opacity="0.5" d="M111.712 603.296C109.732 604.16 107.588 604.585 105.428 604.541C103.268 604.497 101.143 603.985 99.1998 603.04C97.2817 601.708 95.7032 599.944 94.5916 597.89C93.48 595.837 92.8662 593.55 92.7998 591.216V563.408L105.84 570.96V598.768C105.76 602.816 108.336 604.656 111.712 603.296Z" fill="black"/>
<path d="M105.76 570.96V598.768C105.76 603.2 108.96 604.992 112.72 602.784L490.32 384.784C492.336 383.47 494.016 381.701 495.225 379.62C496.434 377.538 497.137 375.203 497.28 372.8V344.864L105.76 570.96Z" fill="#7196CE"/>
<path opacity="0.3" d="M105.776 570.896V598.768C105.776 603.2 108.976 604.992 112.736 602.784L490.336 384.784C492.349 383.468 494.026 381.698 495.232 379.617C496.438 377.536 497.139 375.201 497.28 372.8V344.864L105.776 570.896Z" fill="black"/>
<path d="M118.816 536V290.224C118.89 288.776 119.306 287.366 120.029 286.109C120.752 284.853 121.762 283.784 122.976 282.992L480 76.8001C482.304 75.4721 484.176 76.5441 484.176 79.2001V325.104C484.098 326.553 483.68 327.964 482.954 329.22C482.228 330.477 481.216 331.545 480 332.336L122.992 538.48C120.688 539.808 118.816 538.72 118.816 536Z" fill="#7196CE"/>
<path d="M118.816 536V290.224C118.89 288.776 119.306 287.366 120.029 286.109C120.752 284.853 121.762 283.784 122.976 282.992L480 76.8001C482.304 75.4721 484.176 76.5441 484.176 79.2001V325.104C484.098 326.553 483.68 327.964 482.954 329.22C482.228 330.477 481.216 331.545 480 332.336L122.992 538.48C120.688 539.808 118.816 538.72 118.816 536Z" fill="#263238"/>
<path d="M301.52 466.768C299.62 468.004 298.038 469.671 296.904 471.634C295.769 473.597 295.114 475.8 294.992 478.064C294.992 482.224 297.92 483.92 301.52 481.84C303.423 480.602 305.006 478.933 306.14 476.967C307.275 475.001 307.929 472.795 308.048 470.528C308.048 466.368 305.12 464.688 301.52 466.768Z" fill="#7196CE"/>
<path opacity="0.7" d="M107.824 279.008C106.584 281.092 105.875 283.449 105.76 285.872V570.96L92.7998 563.408V278.4C92.8838 275.969 93.5888 273.601 94.8478 271.52L107.824 279.008Z" fill="black"/>
<path opacity="0.3" d="M497.216 58.7041C496.72 55.1201 493.824 53.9041 490.32 55.8401L112.72 273.84C110.673 275.12 108.983 276.898 107.808 279.008L94.752 271.472C95.9347 269.363 97.6294 267.586 99.68 266.304L477.28 48.3201C479.35 47.2204 481.65 46.6241 483.993 46.5796C486.337 46.5351 488.658 47.0437 490.768 48.0641C492.542 49.2726 494.035 50.848 495.148 52.6836C496.26 54.5192 496.965 56.5723 497.216 58.7041Z" fill="black"/>
<path d="M517.584 96.304C517.023 96.0226 516.396 95.8992 515.77 95.9471C515.144 95.995 514.543 96.2124 514.032 96.576L157.744 302.4C156.338 303.33 155.171 304.578 154.337 306.043C153.503 307.508 153.026 309.148 152.944 310.832V555.104C152.894 555.929 153.058 556.752 153.419 557.495C153.781 558.238 154.328 558.875 155.008 559.344C155.792 559.776 159.984 562.208 161.232 562.88C161.673 563.105 162.167 563.209 162.661 563.18C163.156 563.152 163.635 562.993 164.048 562.72L520.256 356.896C521.662 355.966 522.829 354.718 523.663 353.253C524.497 351.788 524.974 350.148 525.056 348.464V102.928C525.127 102.308 525.024 101.679 524.759 101.114C524.493 100.549 524.075 100.069 523.552 99.728C522.752 99.2 518.48 96.832 517.584 96.304Z" fill="#7196CE"/>
<path d="M163.968 305.856L520.272 100.112C522.96 98.512 525.072 99.824 525.072 102.928V348.464C524.99 350.148 524.513 351.788 523.679 353.253C522.845 354.718 521.678 355.966 520.272 356.896L163.968 562.72C161.28 564.32 159.168 561.744 159.168 558.64V314.288C159.252 312.605 159.731 310.965 160.564 309.501C161.398 308.036 162.564 306.788 163.968 305.856Z" fill="#FAFAFA"/>
<path d="M522.448 101.04C523.392 101.04 523.536 102.224 523.536 102.928V348.464C523.45 349.874 523.036 351.244 522.328 352.466C521.62 353.688 520.636 354.728 519.456 355.504L163.2 561.328C162.961 561.483 162.685 561.572 162.4 561.584C161.504 561.584 160.8 560.208 160.8 558.64V314.288C160.877 312.879 161.278 311.506 161.972 310.277C162.666 309.048 163.633 307.995 164.8 307.2L521.072 101.488C521.484 101.222 521.958 101.068 522.448 101.04ZM522.448 99.4401C521.677 99.4729 520.927 99.7044 520.272 100.112L163.968 305.856C162.564 306.788 161.398 308.036 160.564 309.501C159.731 310.965 159.252 312.605 159.168 314.288V558.64C159.168 561.104 160.544 563.184 162.368 563.184C162.933 563.173 163.485 563.013 163.968 562.72L520.256 356.896C521.662 355.966 522.829 354.718 523.663 353.253C524.497 351.788 524.974 350.148 525.056 348.464V102.928C525.056 100.72 523.968 99.4401 522.368 99.4401H522.448Z" fill="#E0E0E0"/>
<path d="M154.912 559.344C155.44 559.616 159.232 561.776 160.896 562.736C160.298 562.24 159.825 561.612 159.514 560.901C159.203 560.189 159.062 559.415 159.104 558.64V330.24L152.864 326.592V555.104C152.812 555.927 152.974 556.75 153.332 557.492C153.691 558.235 154.235 558.873 154.912 559.344Z" fill="#F0F0F0"/>
<path d="M525.136 102.88C525.136 99.8081 522.944 98.5601 520.336 100.112L163.968 305.856C162.564 306.788 161.398 308.036 160.564 309.501C159.731 310.965 159.252 312.605 159.168 314.288V330.288L525.136 118.88V102.88Z" fill="#7196CE"/>
<g opacity="0.4">
<path d="M520.272 100.112L163.968 305.84C162.538 306.742 161.36 307.991 160.544 309.472L154.352 305.872C155.167 304.443 156.335 303.248 157.744 302.4L514.032 96.576C514.542 96.2099 515.142 95.9897 515.768 95.9389C516.394 95.8882 517.022 96.0089 517.584 96.288C518.448 96.832 522.496 99.12 523.536 99.68C522.998 99.4805 522.419 99.4156 521.85 99.4909C521.282 99.5662 520.74 99.7794 520.272 100.112Z" fill="white"/>
</g>
<path opacity="0.15" d="M152.864 326.608V310.752C152.929 309.024 153.442 307.343 154.352 305.872L160.56 309.456C159.663 310.901 159.161 312.556 159.104 314.256V330.256L152.864 326.608Z" fill="black"/>
<path d="M450 287.072L236.608 410.272C235.57 410.945 234.706 411.854 234.086 412.925C233.466 413.995 233.108 415.197 233.04 416.432V477.616C233.108 478.851 233.466 480.053 234.086 481.123C234.706 482.194 235.57 483.103 236.608 483.776L242.832 487.36C243.938 487.92 245.16 488.211 246.4 488.211C247.64 488.211 248.862 487.92 249.968 487.36L463.328 364.16C464.366 363.483 465.23 362.571 465.85 361.498C466.47 360.425 466.828 359.221 466.896 357.984V296.784C466.828 295.549 466.47 294.347 465.85 293.277C465.23 292.206 464.366 291.297 463.328 290.624L457.088 287.04C455.987 286.49 454.771 286.206 453.54 286.211C452.309 286.217 451.096 286.512 450 287.072Z" fill="#7196CE"/>
<path opacity="0.5" d="M466.896 296.24C466.64 294.4 465.152 293.728 463.36 294.768L249.968 417.968C248.915 418.622 248.05 419.537 247.456 420.624L234.096 412.912C234.695 411.842 235.553 410.94 236.592 410.288L450 287.088C451.103 286.527 452.322 286.235 453.56 286.235C454.797 286.235 456.017 286.527 457.12 287.088L463.36 290.672C464.311 291.295 465.119 292.114 465.728 293.075C466.338 294.035 466.736 295.114 466.896 296.24Z" fill="white"/>
<path d="M249.36 487.664C248.315 488.076 247.195 488.263 246.073 488.213C244.951 488.164 243.852 487.878 242.848 487.376L236.608 483.792C235.572 483.117 234.709 482.208 234.09 481.138C233.47 480.067 233.11 478.867 233.04 477.632V416.448C233.088 415.199 233.451 413.983 234.096 412.912L247.456 420.624C246.807 421.681 246.443 422.888 246.4 424.128V485.328C246.4 487.36 247.68 488.304 249.36 487.664Z" fill="#263238"/>
<path d="M249.968 417.968L463.36 294.768C465.328 293.632 466.928 294.544 466.928 296.816V358.016C466.86 359.253 466.501 360.457 465.882 361.53C465.262 362.603 464.398 363.515 463.36 364.192L250 487.392C248.032 488.528 246.432 487.6 246.432 485.328V424.144C246.496 422.91 246.849 421.707 247.464 420.635C248.078 419.562 248.936 418.648 249.968 417.968Z" fill="#7196CE"/>
<path d="M393.424 319.744L236.624 410.288C235.585 410.94 234.727 411.842 234.128 412.912L247.488 420.624C248.082 419.537 248.948 418.622 250 417.968L406.8 327.44L393.424 319.744Z" fill="#455A64"/>
<path d="M406.768 327.44L249.968 417.968C248.93 418.645 248.066 419.557 247.446 420.63C246.827 421.703 246.468 422.907 246.4 424.144V485.312C246.4 487.584 248 488.512 249.968 487.376L406.768 396.848V327.44Z" fill="#37474F"/>
<path d="M286.128 410.512L367.04 363.808C370.384 361.872 373.104 363.248 373.104 366.88C372.954 368.92 372.326 370.896 371.269 372.647C370.213 374.399 368.758 375.876 367.024 376.96L286.128 423.68C282.784 425.616 280.048 424.24 280.048 420.608C280.199 418.566 280.828 416.589 281.884 414.835C282.94 413.081 284.394 411.6 286.128 410.512Z" fill="#8BDD76"/>
<path d="M302.704 425.984C302.719 425.967 302.738 425.953 302.758 425.944C302.779 425.935 302.802 425.93 302.824 425.93C302.847 425.93 302.869 425.935 302.89 425.944C302.911 425.953 302.929 425.967 302.944 425.984C303.016 426.093 303.05 426.222 303.04 426.352V435.456C303.041 436.336 302.966 437.213 302.816 438.08C302.684 438.872 302.458 439.645 302.144 440.384C301.857 441.061 301.481 441.696 301.024 442.272C300.574 442.806 300.032 443.256 299.424 443.6C298.948 443.91 298.393 444.077 297.824 444.08C297.607 444.063 297.396 444.001 297.203 443.9C297.011 443.798 296.841 443.658 296.704 443.488C296.353 443.017 296.122 442.468 296.032 441.888C295.879 441.114 295.809 440.325 295.824 439.536V430.416C295.824 430.256 295.856 430.098 295.92 429.952C295.959 429.82 296.045 429.707 296.16 429.632L297.168 429.04C297.201 429.01 297.244 428.993 297.288 428.993C297.333 428.993 297.376 429.01 297.408 429.04C297.482 429.148 297.516 429.278 297.504 429.408V438.4C297.492 438.895 297.54 439.389 297.648 439.872C297.692 440.181 297.826 440.47 298.032 440.704C298.104 440.79 298.195 440.858 298.298 440.902C298.401 440.946 298.512 440.966 298.624 440.96C298.898 440.942 299.162 440.854 299.392 440.704C299.677 440.534 299.935 440.324 300.16 440.08C300.41 439.792 300.615 439.469 300.768 439.12C300.949 438.71 301.083 438.28 301.168 437.84C301.262 437.312 301.304 436.776 301.296 436.24V427.232C301.301 427.071 301.339 426.913 301.408 426.768C301.447 426.636 301.533 426.523 301.648 426.448L302.704 425.984Z" fill="#FAFAFA"/>
<path d="M308.976 434.592C308.984 434.475 308.956 434.357 308.896 434.256C308.858 434.214 308.81 434.183 308.757 434.163C308.704 434.144 308.647 434.137 308.592 434.144C308.395 434.117 308.196 434.117 308 434.144L307.072 434.32C306.772 434.395 306.459 434.395 306.16 434.32C305.925 434.245 305.722 434.092 305.584 433.888C305.427 433.628 305.324 433.34 305.28 433.04C305.123 432.183 305.123 431.305 305.28 430.448C305.4 429.957 305.571 429.479 305.792 429.024C306.011 428.57 306.279 428.14 306.592 427.744C306.894 427.366 307.263 427.047 307.68 426.8C308.016 426.595 308.392 426.464 308.784 426.416C309.067 426.387 309.353 426.448 309.6 426.592C309.834 426.735 310.019 426.948 310.128 427.2C310.257 427.499 310.327 427.819 310.336 428.144C310.352 428.305 310.319 428.467 310.24 428.608C310.2 428.74 310.115 428.853 310 428.928L309.04 429.488C308.996 429.513 308.946 429.527 308.896 429.527C308.845 429.527 308.795 429.513 308.752 429.488L308.544 429.328C308.461 429.263 308.361 429.224 308.256 429.216C308.05 429.239 307.852 429.31 307.68 429.424C307.428 429.576 307.206 429.771 307.024 430C306.83 430.252 306.728 430.562 306.736 430.88C306.713 431.002 306.713 431.126 306.736 431.248C306.766 431.293 306.806 431.331 306.854 431.359C306.901 431.386 306.953 431.403 307.008 431.408C307.182 431.437 307.361 431.437 307.536 431.408L308.432 431.248C309.184 431.104 309.696 431.248 310.032 431.664C310.385 432.257 310.547 432.944 310.496 433.632C310.491 434.108 310.427 434.581 310.304 435.04C310.177 435.539 309.995 436.022 309.76 436.48C309.525 436.954 309.229 437.395 308.88 437.792C308.548 438.181 308.153 438.511 307.712 438.768C307.36 438.993 306.959 439.13 306.544 439.168C306.243 439.179 305.946 439.095 305.696 438.928C305.448 438.759 305.259 438.519 305.152 438.24C305.022 437.937 304.957 437.61 304.96 437.28C304.945 437.114 304.978 436.947 305.056 436.8C305.095 436.668 305.18 436.555 305.296 436.48L306.256 435.92C306.384 435.92 306.48 435.84 306.544 435.92L306.752 436.144C306.794 436.192 306.846 436.231 306.903 436.258C306.961 436.285 307.024 436.301 307.088 436.304C307.313 436.305 307.532 436.232 307.712 436.096C308 435.932 308.26 435.721 308.48 435.472C308.588 435.34 308.68 435.195 308.752 435.04C308.865 434.913 308.942 434.759 308.976 434.592Z" fill="#FAFAFA"/>
<path d="M312.24 430.256C312.237 429.425 312.306 428.595 312.448 427.776C312.581 427.005 312.79 426.25 313.072 425.52C313.307 424.866 313.63 424.247 314.032 423.68C314.367 423.193 314.804 422.783 315.312 422.48C315.683 422.231 316.135 422.133 316.576 422.208C316.967 422.299 317.309 422.533 317.536 422.864C317.837 423.298 318.049 423.788 318.16 424.304C318.313 424.976 318.388 425.663 318.384 426.352V427.344C318.389 427.511 318.35 427.677 318.272 427.824C318.233 427.956 318.147 428.069 318.032 428.144L313.872 430.56C313.862 430.842 313.9 431.123 313.984 431.392C314.046 431.573 314.156 431.734 314.304 431.856C314.435 431.96 314.601 432.012 314.768 432C314.961 431.977 315.147 431.912 315.312 431.808C315.554 431.677 315.771 431.503 315.952 431.296C316.115 431.112 316.255 430.907 316.368 430.688C316.436 430.562 316.511 430.439 316.592 430.32C316.66 430.239 316.741 430.168 316.832 430.112L317.824 429.536C317.858 429.509 317.9 429.494 317.944 429.494C317.987 429.494 318.03 429.509 318.064 429.536C318.106 429.587 318.136 429.646 318.153 429.709C318.169 429.773 318.172 429.839 318.16 429.904C318.142 430.216 318.078 430.524 317.968 430.816C317.83 431.26 317.647 431.689 317.424 432.096C317.173 432.564 316.873 433.004 316.528 433.408C316.183 433.82 315.772 434.172 315.312 434.448C314.934 434.696 314.481 434.803 314.032 434.752C313.638 434.657 313.295 434.417 313.072 434.08C312.757 433.595 312.544 433.05 312.448 432.48C312.302 431.748 312.233 431.003 312.24 430.256ZM315.312 425.152C315.066 425.285 314.853 425.47 314.688 425.696C314.51 425.92 314.365 426.168 314.256 426.432C314.144 426.696 314.053 426.969 313.984 427.248C313.927 427.501 313.89 427.758 313.872 428.016L316.688 426.416C316.671 426.195 316.639 425.976 316.592 425.76C316.567 425.567 316.49 425.384 316.368 425.232C316.32 425.163 316.258 425.104 316.187 425.06C316.115 425.016 316.035 424.988 315.952 424.976C315.724 424.957 315.497 425.019 315.312 425.152Z" fill="#FAFAFA"/>
<path d="M323.408 420.688C322.923 420.965 322.541 421.392 322.32 421.904C322.071 422.579 321.957 423.297 321.984 424.016V429.792C321.986 429.957 321.953 430.121 321.888 430.272C321.849 430.404 321.763 430.517 321.648 430.592L320.704 431.136C320.689 431.153 320.67 431.167 320.65 431.176C320.629 431.185 320.606 431.19 320.584 431.19C320.561 431.19 320.539 431.185 320.518 431.176C320.497 431.167 320.479 431.153 320.464 431.136C320.392 431.027 320.358 430.898 320.368 430.768V420.416C320.369 420.251 320.401 420.088 320.464 419.936C320.508 419.807 320.592 419.695 320.704 419.616L321.648 419.072C321.68 419.042 321.723 419.025 321.768 419.025C321.812 419.025 321.855 419.042 321.888 419.072C321.962 419.174 321.996 419.299 321.984 419.424V419.936C322.174 419.507 322.41 419.099 322.688 418.72C322.941 418.37 323.269 418.08 323.648 417.872L324.224 417.536C324.254 417.507 324.294 417.49 324.336 417.49C324.378 417.49 324.418 417.507 324.448 417.536C324.525 417.643 324.564 417.772 324.56 417.904V419.36C324.557 419.526 324.519 419.69 324.448 419.84C324.407 419.967 324.329 420.079 324.224 420.16L323.408 420.688Z" fill="#FAFAFA"/>
<path d="M335.344 419.92C335.359 419.903 335.377 419.889 335.398 419.88C335.419 419.871 335.441 419.866 335.464 419.866C335.486 419.866 335.509 419.871 335.53 419.88C335.55 419.889 335.569 419.903 335.584 419.92C335.655 420.029 335.689 420.158 335.68 420.288V421.888C335.679 422.053 335.646 422.216 335.584 422.368C335.529 422.487 335.447 422.591 335.344 422.672L329.872 425.872C329.839 425.902 329.796 425.919 329.752 425.919C329.707 425.919 329.664 425.902 329.632 425.872C329.56 425.769 329.526 425.645 329.536 425.52V411.12C329.537 410.955 329.569 410.792 329.632 410.64C329.676 410.515 329.761 410.408 329.872 410.336L330.88 409.744C330.912 409.714 330.955 409.697 331 409.697C331.044 409.697 331.087 409.714 331.12 409.744C331.191 409.847 331.225 409.971 331.216 410.096V422.272L335.344 419.92Z" fill="#FAFAFA"/>
<path d="M340.256 408.08C340.616 407.831 341.051 407.712 341.488 407.744C341.863 407.774 342.212 407.945 342.464 408.224C342.762 408.567 342.981 408.971 343.104 409.408C343.275 409.975 343.372 410.561 343.392 411.152C343.392 411.28 343.392 411.456 343.392 411.664V412.896C343.392 413.088 343.392 413.264 343.392 413.408C343.36 414.104 343.264 414.795 343.104 415.472C342.956 416.132 342.742 416.775 342.464 417.392C342.211 417.966 341.882 418.504 341.488 418.992C341.151 419.434 340.733 419.809 340.256 420.096C339.886 420.337 339.449 420.454 339.008 420.432C338.639 420.4 338.295 420.229 338.048 419.952C337.741 419.622 337.521 419.22 337.408 418.784C337.237 418.218 337.14 417.631 337.12 417.04C337.12 416.912 337.12 416.752 337.12 416.544V415.312C337.12 415.104 337.12 414.928 337.12 414.8C337.139 414.099 337.23 413.402 337.392 412.72C337.548 412.055 337.768 411.407 338.048 410.784C338.302 410.214 338.625 409.677 339.008 409.184C339.347 408.737 339.771 408.362 340.256 408.08ZM341.76 412.208C341.759 411.854 341.7 411.503 341.584 411.168C341.525 410.964 341.401 410.785 341.232 410.656C341.096 410.565 340.931 410.525 340.768 410.544C340.585 410.579 340.411 410.649 340.256 410.752C340.068 410.855 339.896 410.984 339.744 411.136C339.561 411.327 339.404 411.542 339.28 411.776C339.119 412.067 339.001 412.38 338.928 412.704C338.823 413.113 338.759 413.531 338.736 413.952C338.736 414.08 338.736 414.224 338.736 414.4V415.536C338.736 415.712 338.736 415.856 338.736 415.952C338.751 416.306 338.816 416.656 338.928 416.992C338.987 417.197 339.11 417.376 339.28 417.504C339.347 417.551 339.422 417.584 339.502 417.601C339.582 417.617 339.664 417.617 339.744 417.6C339.925 417.569 340.099 417.504 340.256 417.408C340.442 417.301 340.613 417.172 340.768 417.024C340.947 416.829 341.102 416.614 341.232 416.384C341.386 416.09 341.504 415.778 341.584 415.456C341.689 415.048 341.748 414.629 341.76 414.208C341.77 414.059 341.77 413.909 341.76 413.76V412.64C341.769 412.496 341.769 412.352 341.76 412.208Z" fill="#FAFAFA"/>
<path d="M348.288 417.44C348.493 417.315 348.676 417.158 348.832 416.976C349.025 416.75 349.191 416.503 349.328 416.24C349.487 415.918 349.61 415.58 349.696 415.232C349.794 414.84 349.843 414.437 349.84 414.032V413.216C349.84 413.376 349.68 413.568 349.568 413.792C349.458 414.026 349.33 414.251 349.184 414.464C349.017 414.689 348.835 414.903 348.64 415.104C348.439 415.315 348.207 415.493 347.952 415.632C347.788 415.744 347.602 415.822 347.407 415.86C347.212 415.899 347.011 415.897 346.816 415.856C346.46 415.745 346.155 415.513 345.952 415.2C345.691 414.787 345.502 414.332 345.392 413.856C345.256 413.252 345.181 412.635 345.168 412.016C345.168 411.808 345.168 411.552 345.168 411.248C345.168 410.944 345.168 410.688 345.168 410.464C345.188 409.761 345.263 409.06 345.392 408.368C345.523 407.687 345.711 407.018 345.952 406.368C346.178 405.804 346.468 405.267 346.816 404.768C347.111 404.327 347.499 403.956 347.952 403.68C348.165 403.552 348.397 403.46 348.64 403.408C348.82 403.375 349.004 403.375 349.184 403.408C349.326 403.448 349.457 403.519 349.568 403.616C349.67 403.694 349.762 403.786 349.84 403.888V403.376C349.841 403.211 349.873 403.048 349.936 402.896C349.981 402.771 350.065 402.665 350.176 402.592L351.12 402.032C351.153 402.002 351.195 401.985 351.24 401.985C351.285 401.985 351.327 402.002 351.36 402.032C351.437 402.139 351.477 402.268 351.472 402.4V412.8C351.515 414.358 351.226 415.907 350.624 417.344C350.152 418.474 349.334 419.426 348.288 420.064C347.931 420.286 347.524 420.412 347.104 420.432C346.772 420.452 346.442 420.368 346.16 420.192C345.89 419.99 345.67 419.727 345.52 419.424C345.364 419.059 345.277 418.669 345.264 418.272C345.249 418.106 345.282 417.939 345.36 417.792C345.399 417.66 345.484 417.547 345.6 417.472L346.448 416.992C346.467 416.971 346.491 416.955 346.517 416.943C346.543 416.932 346.571 416.926 346.6 416.926C346.628 416.926 346.657 416.932 346.683 416.943C346.709 416.955 346.733 416.971 346.752 416.992C346.831 417.075 346.901 417.166 346.96 417.264C347.057 417.436 347.218 417.562 347.408 417.616C347.6 417.76 347.888 417.6 348.288 417.44ZM346.784 409.68C346.784 410.107 346.784 410.523 346.784 410.928C346.738 411.567 346.92 412.202 347.296 412.72C347.438 412.843 347.62 412.91 347.808 412.91C347.996 412.91 348.178 412.843 348.32 412.72C348.784 412.418 349.147 411.983 349.36 411.472C349.651 410.805 349.814 410.088 349.84 409.36C349.84 409.12 349.84 408.832 349.84 408.496C349.84 408.16 349.84 407.872 349.84 407.664C349.873 407.091 349.703 406.525 349.36 406.064C349.218 405.934 349.033 405.861 348.84 405.861C348.647 405.861 348.462 405.934 348.32 406.064C347.865 406.365 347.508 406.793 347.296 407.296C346.967 408.048 346.793 408.859 346.784 409.68Z" fill="#FAFAFA"/>
<path d="M355.2 395.472C355.231 395.446 355.271 395.432 355.312 395.432C355.353 395.432 355.392 395.446 355.424 395.472C355.508 395.575 355.548 395.707 355.536 395.84V397.584C355.537 397.751 355.498 397.915 355.424 398.064C355.379 398.184 355.301 398.29 355.2 398.368L354.128 398.992C354.113 399.009 354.094 399.023 354.074 399.032C354.053 399.041 354.031 399.046 354.008 399.046C353.985 399.046 353.963 399.041 353.942 399.032C353.921 399.023 353.903 399.009 353.888 398.992C353.846 398.944 353.815 398.888 353.795 398.828C353.776 398.767 353.769 398.703 353.776 398.64V396.896C353.775 396.729 353.813 396.565 353.888 396.416C353.933 396.291 354.017 396.184 354.128 396.112L355.2 395.472ZM355.472 410.496C355.472 410.656 355.44 410.814 355.376 410.96C355.325 411.086 355.242 411.196 355.136 411.28L354.176 411.824C354.162 411.841 354.145 411.854 354.126 411.863C354.106 411.873 354.085 411.877 354.064 411.877C354.042 411.877 354.021 411.873 354.002 411.863C353.982 411.854 353.965 411.841 353.952 411.824C353.868 411.721 353.828 411.589 353.84 411.456V401.104C353.839 400.937 353.877 400.773 353.952 400.624C353.997 400.499 354.074 400.389 354.176 400.304L355.136 399.76C355.168 399.73 355.211 399.713 355.256 399.713C355.3 399.713 355.343 399.73 355.376 399.76C355.447 399.863 355.481 399.987 355.472 400.112V410.496Z" fill="#FAFAFA"/>
<path d="M363.888 405.616C363.887 405.781 363.854 405.944 363.792 406.096C363.747 406.221 363.663 406.328 363.552 406.4L362.592 406.96C362.562 406.989 362.521 407.006 362.48 407.006C362.438 407.006 362.397 406.989 362.368 406.96C362.284 406.857 362.244 406.725 362.256 406.592V400.96C362.305 400.295 362.184 399.629 361.904 399.024C361.68 398.624 361.328 398.56 360.832 398.848C360.337 399.18 359.97 399.671 359.792 400.24C359.524 400.995 359.394 401.791 359.408 402.592V408.24C359.407 408.405 359.374 408.568 359.312 408.72C359.272 408.852 359.187 408.965 359.072 409.04L358.128 409.584C358.113 409.601 358.094 409.615 358.073 409.624C358.053 409.633 358.03 409.638 358.008 409.638C357.985 409.638 357.962 409.633 357.942 409.624C357.921 409.615 357.903 409.601 357.888 409.584C357.813 409.483 357.779 409.357 357.792 409.232V398.88C357.789 398.715 357.822 398.551 357.888 398.4C357.927 398.268 358.012 398.155 358.128 398.08L359.072 397.536C359.087 397.519 359.105 397.505 359.126 397.496C359.146 397.487 359.169 397.482 359.192 397.482C359.214 397.482 359.237 397.487 359.257 397.496C359.278 397.505 359.297 397.519 359.312 397.536C359.383 397.645 359.417 397.774 359.408 397.904V398.4C359.618 397.912 359.875 397.446 360.176 397.008C360.439 396.604 360.796 396.269 361.216 396.032C361.58 395.766 362.033 395.651 362.48 395.712C362.657 395.757 362.822 395.838 362.966 395.951C363.109 396.064 363.227 396.206 363.312 396.368C363.544 396.801 363.696 397.273 363.76 397.76C363.845 398.397 363.888 399.038 363.888 399.68V405.616Z" fill="#FAFAFA"/>
<path d="M444.592 359.04L429.056 368L431.472 346.208C429.6 345.216 428.416 342.8 428.416 339.328C428.416 333.136 432.192 325.952 436.832 323.328C441.472 320.704 445.232 323.488 445.232 329.728C445.136 333.399 444.088 336.983 442.192 340.128L444.592 359.04Z" fill="#455A64"/>
<path d="M444.608 359.04L430.928 351.152L429.056 368.016L444.608 359.04Z" fill="#37474F"/>
<path d="M436.8 323.28C433.416 325.566 430.893 328.917 429.632 332.8L442.16 340.032C444.056 336.887 445.104 333.303 445.2 329.632C445.232 323.44 441.472 320.608 436.8 323.28Z" fill="#37474F"/>
<path d="M361.28 250.72C355.952 247.648 348.608 248.08 340.48 252.768C324.256 262.144 311.104 284.912 311.104 303.648C311.104 313.056 314.432 319.648 319.776 322.688L330.128 328.704C335.44 331.776 342.784 331.328 350.928 326.64C367.152 317.28 380.304 294.496 380.304 275.76C380.304 266.4 377.008 259.76 371.696 256.768" fill="#7196CE"/>
<path d="M350.912 258.8C334.688 268.176 321.536 290.96 321.536 309.68C321.536 328.4 334.688 336.016 350.912 326.64C367.136 317.264 380.304 294.496 380.288 275.76C380.272 257.024 367.12 249.44 350.912 258.8Z" fill="#7196CE"/>
<path d="M367.12 300.368V302.512C363.233 309.45 357.658 315.294 350.912 319.504C344.592 323.136 338.879 323.536 334.688 321.216V316.8C334.902 312.206 336.214 307.729 338.513 303.746C340.813 299.763 344.032 296.388 347.904 293.904L352.176 291.44C355.952 289.264 359.632 288.976 362.512 290.656C365.392 292.336 367.12 295.872 367.12 300.368Z" fill="#7196CE"/>
<path opacity="0.4" d="M361.28 250.72L371.68 256.768C366.368 253.68 359.024 254.112 350.88 258.8C340.256 264.944 330.944 276.832 325.792 289.568L315.376 283.536C320.544 270.736 329.776 258.912 340.464 252.768C348.624 248.096 355.968 247.648 361.28 250.72Z" fill="white"/>
<path opacity="0.2" d="M329.76 328.464L319.792 322.688C314.448 319.648 311.12 313.088 311.12 303.648L321.536 309.696C321.6 318.816 324.672 325.312 329.76 328.464Z" fill="black"/>
<path opacity="0.1" d="M315.408 283.536L325.824 289.568C323.155 295.944 321.721 302.769 321.6 309.68L311.184 303.632C311.312 296.727 312.745 289.908 315.408 283.536Z" fill="black"/>
<path d="M347.2 290.432C346.208 290.443 345.23 290.189 344.368 289.696C343.33 289.004 342.497 288.043 341.959 286.917C341.421 285.79 341.198 284.539 341.312 283.296C341.448 280.381 342.28 277.541 343.739 275.013C345.197 272.486 347.24 270.344 349.696 268.768C350.683 267.98 351.884 267.509 353.143 267.415C354.402 267.321 355.66 267.609 356.753 268.242C357.845 268.875 358.721 269.822 359.266 270.961C359.812 272.1 360 273.376 359.808 274.624C359.67 277.539 358.837 280.378 357.378 282.905C355.92 285.432 353.879 287.574 351.424 289.152C350.154 289.945 348.697 290.386 347.2 290.432Z" fill="white"/>
<path d="M362.512 290.64C359.632 288.96 355.952 289.248 352.176 291.424L347.904 293.888C344.03 296.373 340.809 299.751 338.51 303.737C336.21 307.723 334.9 312.203 334.688 316.8V321.232C338.879 323.552 344.592 323.152 350.912 319.52C357.658 315.31 363.233 309.466 367.12 302.528V300.384C367.12 295.872 365.456 292.336 362.512 290.64Z" fill="white"/>
<path d="M691.439 567.44C691.439 567.44 693.567 548.752 702.863 534.24C712.159 519.728 724.927 510.688 736.847 509.744C748.767 508.8 758.399 519.776 745.647 527.344C732.895 534.912 710.239 542.56 699.807 570.72L691.439 567.44Z" fill="#8BDD76"/>
<path opacity="0.1" d="M691.439 567.44C691.439 567.44 693.567 548.752 702.863 534.24C712.159 519.728 724.927 510.688 736.847 509.744C748.767 508.8 758.399 519.776 745.647 527.344C732.895 534.912 710.239 542.56 699.807 570.72L691.439 567.44Z" fill="black"/>
<path d="M694.943 562.576H694.815C694.659 562.512 694.534 562.389 694.468 562.233C694.402 562.077 694.4 561.901 694.463 561.744C707.039 530.784 730.975 517.84 741.887 515.344C741.969 515.325 742.054 515.322 742.137 515.336C742.22 515.35 742.3 515.38 742.371 515.425C742.442 515.47 742.504 515.528 742.553 515.596C742.602 515.665 742.637 515.742 742.655 515.824C742.674 515.906 742.677 515.991 742.663 516.074C742.649 516.157 742.619 516.236 742.574 516.307C742.53 516.379 742.472 516.441 742.403 516.489C742.335 516.538 742.257 516.573 742.175 516.592C731.487 519.056 708.015 531.76 695.647 562.24C695.586 562.368 695.482 562.47 695.354 562.532C695.226 562.593 695.081 562.608 694.943 562.576Z" fill="white"/>
<path d="M758.592 562.944C757.52 565.376 754.864 566.656 752.4 567.648C749.936 568.64 747.248 569.712 745.904 572.016C743.216 576.656 747.632 583.216 744.752 587.712C744.074 588.617 743.219 589.376 742.241 589.942C741.262 590.509 740.178 590.871 739.056 591.008C737.216 591.344 735.344 591.344 733.488 591.504C732.599 591.492 731.711 591.423 730.832 591.296C728.246 590.719 725.543 591.006 723.136 592.112C719.44 594.192 718.336 598.848 716.064 602.448C714.676 604.568 712.846 606.363 710.701 607.71C708.555 609.058 706.144 609.926 703.632 610.256C702.032 610.464 698.832 610.768 697.232 609.824C697.106 609.763 696.988 609.687 696.88 609.6C696.64 609.344 696.352 609.008 696.224 608.832C696.215 608.795 696.215 608.757 696.224 608.72C695.568 606.304 696.64 603.808 696.688 601.312V600.864C696.576 597.968 696.496 595.088 696.432 592.208C696.293 586.875 696.24 581.541 696.272 576.208C696.272 572.752 695.888 568.976 697.36 565.728C698.96 562.144 702.992 562.064 704.512 558.56C705.12 557.152 705.44 555.664 706.032 554.24C706.946 552.17 708.412 550.39 710.268 549.095C712.125 547.8 714.301 547.04 716.56 546.896C723.584 546.544 729.872 552.224 736.896 551.696C738.704 551.552 740.48 550.992 742.272 550.672C747.952 549.6 754.528 551.216 757.728 556.032C758.43 557.024 758.876 558.174 759.027 559.38C759.178 560.585 759.028 561.81 758.592 562.944Z" fill="#8BDD76"/>
<path d="M695.52 597.632C695.368 597.587 695.24 597.485 695.163 597.348C695.085 597.211 695.064 597.049 695.104 596.896C704.8 560.512 743.104 555.296 752.112 555.904C752.191 555.908 752.268 555.928 752.34 555.962C752.411 555.997 752.475 556.046 752.527 556.105C752.579 556.165 752.619 556.235 752.644 556.31C752.669 556.385 752.678 556.465 752.672 556.544C752.655 556.7 752.58 556.843 752.461 556.944C752.341 557.046 752.188 557.097 752.032 557.088C743.248 556.464 705.744 561.6 696.256 597.216C696.211 597.367 696.109 597.495 695.972 597.573C695.834 597.65 695.672 597.672 695.52 597.632Z" fill="white"/>
<path d="M738.128 579.2C738.006 579.183 737.894 579.127 737.808 579.04C734.266 575.971 730.091 573.721 725.58 572.452C721.07 571.182 716.334 570.924 711.712 571.696C711.556 571.71 711.4 571.666 711.276 571.571C711.151 571.476 711.067 571.338 711.04 571.184C711.017 571.027 711.055 570.868 711.148 570.739C711.241 570.611 711.38 570.523 711.536 570.496C716.357 569.694 721.295 569.967 725.998 571.298C730.7 572.629 735.05 574.983 738.736 578.192C738.792 578.247 738.837 578.313 738.868 578.386C738.899 578.459 738.915 578.537 738.915 578.616C738.915 578.695 738.899 578.773 738.868 578.846C738.837 578.919 738.792 578.985 738.736 579.04C738.663 579.126 738.566 579.188 738.457 579.217C738.348 579.245 738.233 579.24 738.128 579.2Z" fill="white"/>
<path d="M603.392 128L608.48 129.952V118.752C608.48 109.856 615.568 107.728 623.264 112.176C630.976 116.624 637.216 127.424 637.216 136.32V137.92C638.288 137.592 639.421 137.511 640.529 137.683C641.638 137.855 642.693 138.275 643.616 138.912C646.538 140.817 648.97 143.386 650.713 146.408C652.456 149.43 653.462 152.82 653.648 156.304V157.04L660.752 161.136C662.674 162.391 664.273 164.08 665.421 166.067C666.569 168.055 667.233 170.284 667.36 172.576C667.36 176.8 664.4 178.512 660.752 176.4L603.392 143.264C601.468 142.012 599.869 140.323 598.723 138.335C597.577 136.347 596.918 134.116 596.8 131.824C596.8 127.616 599.728 125.904 603.392 128Z" fill="#E6E6E6"/>
<path d="M671.536 119.136L680.768 124.464C680.717 124.061 680.69 123.655 680.688 123.248V120.576C680.688 115.776 684.016 113.888 688.144 116.272C689.917 117.358 691.435 118.815 692.592 120.544C693.264 114.56 697.968 112.336 703.664 115.616C706.919 117.734 709.629 120.589 711.575 123.95C713.521 127.311 714.647 131.083 714.864 134.96V138.96C714.905 140.558 714.582 142.145 713.92 143.6L721.6 148.016C722.797 148.81 723.791 149.873 724.502 151.121C725.213 152.369 725.622 153.766 725.696 155.2C725.696 157.84 723.84 158.912 721.552 157.6L671.536 128.8C670.326 128.012 669.32 126.949 668.6 125.697C667.879 124.446 667.465 123.042 667.392 121.6C667.392 118.896 669.248 117.824 671.536 119.136Z" fill="#E6E6E6"/>
<path d="M635.792 361.968C629.072 373.328 622.609 383.2 618.065 387.936C609.441 391.936 589.185 398.112 581.265 399.136C579.873 399.313 578.465 398.984 577.296 398.208C574.176 396.16 571.76 395.824 568.48 394.688C565.904 393.808 564.816 392.576 564.336 393.088C563.841 393.669 563.591 394.421 563.642 395.183C563.693 395.946 564.04 396.658 564.609 397.168C565.839 398.337 567.203 399.358 568.673 400.208C565.159 401.08 561.495 401.145 557.953 400.4C551.089 398.592 547.856 401.888 552.496 409.344C554.096 412 560.688 416.272 573.936 415.12C578.663 414.865 583.369 414.331 588.032 413.52C600.736 410.8 614.865 408.176 623.553 405.52C626.784 404.249 629.677 402.244 632.001 399.664C646.609 383.008 651.457 371.136 657.857 360.352L657.313 342.752C646.945 342.4 641.408 352.464 635.792 361.968Z" fill="#FFA8A7"/>
<path d="M659.088 342.4C656.082 341.977 653.017 342.384 650.225 343.577C647.434 344.77 645.021 346.703 643.248 349.168C636.144 358.272 623.568 380.128 623.568 380.128C623.568 380.128 627.68 391.088 638.784 392.928L656.624 368.832C656.624 368.832 665.072 352.096 659.088 342.4Z" fill="#455A64"/>
<path d="M697.664 588.064H686.032V608.8H697.664V588.064Z" fill="#FFA8A7"/>
<path d="M657.344 586.96L645.728 587.376L645.136 565.424L657.344 565.008V586.96Z" fill="#FFA8A7"/>
<path d="M699.296 408.56C699.296 420.112 697.6 513.184 697.6 513.184C697.856 516.512 700.8 522.656 700.208 535.44C699.328 552.8 698.16 598.432 698.16 598.432C696.164 599.454 693.961 600.008 691.718 600.052C689.475 600.097 687.252 599.63 685.216 598.688C685.216 598.688 675.776 534.688 673.696 517.552C671.872 502.528 667.2 452.8 667.2 452.8L660.912 511.584C662.245 517.891 662.73 524.348 662.352 530.784C661.808 538.784 658.064 580.192 658.064 580.192C656.055 581.377 653.802 582.09 651.476 582.276C649.15 582.462 646.813 582.116 644.64 581.264C644.64 581.264 638.016 518.864 637.888 511.536C637.728 503.216 641.76 408.464 641.76 408.464L699.296 408.56Z" fill="#37474F"/>
<path d="M686.032 602.816V601.088C684.912 601.584 682.336 611.856 677.712 616.24C674.048 619.728 669.056 623.744 667.776 627.632C666.496 631.52 674.736 633.904 678.176 633.28C682.144 632.544 689.056 629.616 690.784 626.88C692.512 624.144 693.328 620.176 694.736 618.192C696.144 616.208 699.392 614 700.144 611.696C700.379 609.54 700.155 607.359 699.488 605.296C698.944 603.152 698.368 600.8 697.664 601.008V602.32C696.024 603.666 693.962 604.391 691.84 604.368C690.144 604.512 686.016 604.16 686.032 602.816Z" fill="#263238"/>
<path d="M645.6 583.632C644.992 583.632 644.496 584.544 643.168 586.048C641.193 588.125 638.884 589.856 636.336 591.168C631.984 593.44 623.536 596.928 619.68 598.736C617.28 599.856 617.392 602.864 619.872 604.576C622.352 606.288 628.32 607.52 635.488 605.856C639.392 604.944 644.48 601.184 647.712 601.392C650.944 601.6 656.944 601.536 659.328 599.792C661.712 598.048 660.752 594.432 660.08 591.312C659.344 587.888 658.48 582.56 657.344 582.8V584C655.952 586.208 648.736 587.104 645.664 585.488L645.6 583.632Z" fill="#263238"/>
<path d="M667.2 452.8C661.149 450.819 655.617 447.512 651.008 443.12C651.008 443.12 654.208 449.216 663.424 454.896L661.44 507.392L667.2 452.8Z" fill="#263238"/>
<path d="M692.8 344.096C692.8 344.096 702.4 346.304 701.712 363.648L699.712 391.248V432.688C691.168 442.384 653.312 441.68 640.272 431.92C640.272 431.92 641.744 382.88 642.624 364C643.248 350.592 646.336 343.84 659.52 342.368L675.728 343.072L692.8 344.096Z" fill="#99256E"/>
<path d="M680.576 308.064C680.631 310.386 680.226 312.696 679.385 314.861C678.543 317.025 677.281 319.002 675.672 320.677C674.062 322.352 672.137 323.691 670.008 324.619C667.878 325.546 665.586 326.043 663.264 326.08C653.664 326.08 648.032 317.792 645.952 308.064C642.112 290.256 653.696 290.032 663.264 290.032C667.951 290.129 672.407 292.082 675.653 295.464C678.9 298.845 680.67 303.377 680.576 308.064Z" fill="#263238"/>
<path d="M689.408 315.344C689.408 315.344 686.752 328.336 685.68 330.48C685.006 331.77 683.86 332.75 682.48 333.216L682.673 324.08L689.408 315.344Z" fill="#263238"/>
<path d="M686.064 296.736C686.064 296.736 687.968 296.256 690 299.424C691.728 302.128 692.128 308.208 689.408 315.424L684.4 316.032L686.064 296.736Z" fill="#263238"/>
<path d="M687.904 299.376L694.048 299.488C694.09 299.091 694.05 298.689 693.929 298.309C693.809 297.928 693.611 297.576 693.348 297.276C693.085 296.975 692.763 296.732 692.401 296.562C692.04 296.392 691.647 296.299 691.248 296.288C690.408 296.3 689.602 296.622 688.985 297.192C688.368 297.762 687.983 298.54 687.904 299.376Z" fill="#263238"/>
<path d="M688.656 297.92L693.2 293.552C692.938 293.243 692.615 292.992 692.251 292.815C691.887 292.637 691.491 292.537 691.086 292.52C690.682 292.504 690.278 292.571 689.901 292.719C689.524 292.866 689.182 293.09 688.896 293.376C688.293 293.965 687.934 294.759 687.889 295.601C687.845 296.443 688.118 297.27 688.656 297.92Z" fill="#263238"/>
<path d="M682.896 315.952C683.904 316.576 685.328 314.576 686.576 313.216C687.824 311.856 691.696 310.608 693.712 315.024C695.728 319.44 692.288 323.808 689.408 325.248C684.24 327.808 682.608 324.08 682.608 324.08L682.176 344.656C674.912 355.856 658.432 355.504 664.368 344.112V337.856C661.926 338.262 659.446 338.391 656.976 338.24C652.944 337.6 650.416 334.288 649.184 329.744C647.232 322.448 646.48 316.56 648.144 302.208C649.968 286.496 667.536 286.32 676.944 292.608C686.352 298.896 682.896 315.952 682.896 315.952Z" fill="#FFA8A7"/>
<path d="M661.008 299.76C665.2 299.344 669.344 298.48 673.552 298.16C674.459 298.05 675.379 298.093 676.272 298.288C679.472 299.168 679.088 302.912 679.6 305.52C680.48 310.032 681.2 317.664 682.896 317.696C683.408 317.696 685.328 314.384 686.576 313.2C687.262 312.18 687.65 310.989 687.696 309.76C688.016 307.904 688.176 306 688.32 304.112C688.448 302.512 688.608 300.912 688.608 299.312C688.681 297.504 688.536 295.693 688.176 293.92C687.775 292.411 687.005 291.026 685.936 289.888L685.616 289.536C683.507 287.331 680.948 285.607 678.112 284.48C674.032 282.952 669.754 282.019 665.408 281.712C661.068 281.405 656.748 280.871 652.464 280.112C652.218 280.04 651.958 280.04 651.712 280.112C651.538 280.208 651.392 280.347 651.285 280.514C651.179 280.682 651.117 280.874 651.104 281.072C650.928 282.066 651.038 283.09 651.42 284.024C651.803 284.959 652.442 285.766 653.264 286.352C650.368 286.576 647.04 285.072 644.256 284.304C644.031 284.209 643.789 284.159 643.544 284.159C643.299 284.159 643.057 284.209 642.832 284.304C642.553 284.499 642.354 284.789 642.272 285.12C642.069 285.872 642.042 286.66 642.192 287.424C642.447 289.74 643.308 291.947 644.688 293.824C646.844 296.632 649.891 298.623 653.328 299.472C655.858 299.96 658.448 300.057 661.008 299.76Z" fill="#263238"/>
<path d="M664.384 337.856C664.384 337.856 673.376 335.968 676.512 334.224C678.38 333.202 679.896 331.641 680.864 329.744C680.392 331.65 679.549 333.444 678.384 335.024C676.096 338.096 664.384 340.336 664.384 340.336V337.856Z" fill="#F28F8F"/>
<path d="M666.544 313.6C666.527 314.094 666.705 314.575 667.041 314.937C667.377 315.3 667.842 315.515 668.336 315.536C668.728 315.568 669.121 315.481 669.462 315.287C669.804 315.092 670.079 314.799 670.251 314.445C670.423 314.091 670.485 313.694 670.427 313.305C670.37 312.916 670.196 312.553 669.929 312.265C669.661 311.976 669.313 311.775 668.93 311.687C668.546 311.6 668.146 311.63 667.78 311.775C667.414 311.919 667.1 312.171 666.88 312.496C666.659 312.822 666.542 313.207 666.544 313.6Z" fill="#263238"/>
<path d="M669.424 305.84L673.28 308.064C673.56 307.516 673.624 306.882 673.458 306.289C673.292 305.696 672.908 305.187 672.384 304.864C672.128 304.72 671.845 304.632 671.554 304.604C671.262 304.575 670.967 304.608 670.689 304.7C670.41 304.792 670.154 304.941 669.936 305.137C669.719 305.333 669.544 305.573 669.424 305.84Z" fill="#263238"/>
<path d="M665.184 326.576L661.072 328.176C661.155 328.458 661.295 328.72 661.483 328.946C661.671 329.172 661.904 329.356 662.166 329.488C662.429 329.62 662.716 329.697 663.009 329.713C663.303 329.73 663.597 329.686 663.872 329.584C664.432 329.343 664.879 328.898 665.123 328.339C665.366 327.781 665.388 327.15 665.184 326.576Z" fill="#F28F8F"/>
<path d="M650 307.488L653.52 304.672C653.362 304.426 653.154 304.216 652.91 304.056C652.666 303.896 652.391 303.789 652.102 303.742C651.814 303.695 651.519 303.71 651.237 303.785C650.955 303.859 650.691 303.993 650.464 304.176C649.993 304.575 649.686 305.133 649.6 305.744C649.515 306.354 649.657 306.975 650 307.488Z" fill="#263238"/>
<path d="M651.553 313.072C651.581 313.422 651.71 313.756 651.925 314.034C652.14 314.312 652.431 314.521 652.763 314.636C653.094 314.751 653.453 314.767 653.793 314.682C654.134 314.597 654.443 314.414 654.681 314.157C654.92 313.899 655.078 313.577 655.137 313.231C655.196 312.885 655.153 312.529 655.013 312.207C654.873 311.885 654.642 311.611 654.348 311.418C654.055 311.224 653.712 311.121 653.361 311.12C653.113 311.128 652.87 311.185 652.645 311.288C652.42 311.391 652.218 311.537 652.049 311.719C651.881 311.9 651.751 312.113 651.666 312.346C651.58 312.578 651.542 312.825 651.553 313.072Z" fill="#263238"/>
<path d="M661.2 311.568L660.992 322.944L654.528 321.472L661.2 311.568Z" fill="#F28F8F"/>
<path d="M507.696 406.848L517.728 401.056L521.696 396.24L511.68 402.032L507.696 406.848Z" fill="#7196CE"/>
<path opacity="0.4" d="M507.696 406.848L517.728 401.056L521.696 396.24L511.68 402.032L507.696 406.848Z" fill="black"/>
<path d="M534.977 422.592L545.009 416.8L553.377 409.392L543.361 415.168L534.977 422.592Z" fill="#7196CE"/>
<path opacity="0.4" d="M534.977 422.592L545.009 416.8L553.377 409.392L543.361 415.168L534.977 422.592Z" fill="black"/>
<path d="M620.192 442.576C622.564 445.756 624 449.535 624.336 453.488C621.974 450.303 620.54 446.526 620.192 442.576ZM643.504 442.88C640.128 419.92 627.792 397.216 613.104 388.72C606.048 384.64 599.52 384.496 594.288 387.552L584.848 392.992L584.32 393.312C583.9 393.543 583.494 393.8 583.104 394.08C582.329 394.614 581.601 395.213 580.928 395.872L580.608 396.176C580.32 396.464 580.016 396.8 579.744 397.12C579.472 397.44 579.056 397.936 578.736 398.368C578.057 399.262 577.442 400.203 576.896 401.184C576.608 401.68 576.336 402.208 576.08 402.784L493.632 355.2L483.616 360.976V367.376L484.464 367.856L485.264 368.32V369.6L483.664 370.544V374.256L495.776 399.856L507.744 406.784L511.728 401.984L522.288 408.304L528.352 418.688L535.04 422.544L543.408 415.12L553.68 421.056L557.136 435.312L574.4 445.296C575.253 448.924 576.322 452.499 577.6 456C577.712 456.352 577.856 456.72 578 457.12C583.728 472.16 592.832 485.04 603.104 490.976C604.335 491.706 605.625 492.332 606.96 492.848C607.666 493.129 608.387 493.369 609.12 493.568C609.76 493.739 610.4 493.883 611.04 494C613.061 494.368 615.132 494.368 617.152 494L617.984 493.792C618.382 493.712 618.773 493.599 619.152 493.456L620.048 493.104C620.365 492.989 620.671 492.845 620.96 492.672C621.256 492.544 621.544 492.4 621.824 492.24L622.24 491.984C622.316 491.959 622.386 491.921 622.448 491.872C624.736 490.56 630.368 487.296 631.904 486.432C639.52 482.016 644.448 470.848 644.448 455.056C644.435 450.98 644.12 446.91 643.504 442.88Z" fill="#7196CE"/>
<path d="M617.265 461.952C613.297 459.664 610.097 452.88 610.097 446.8C610.097 440.72 613.297 437.632 617.265 439.904C621.233 442.176 624.417 448.976 624.417 455.072C624.417 461.168 621.217 464.24 617.265 461.952ZM633.473 448.656C630.113 425.712 617.777 402.992 603.073 394.512C596.257 390.576 589.953 390.288 584.833 392.992L584.305 393.312C583.884 393.543 583.478 393.8 583.089 394.08C582.313 394.614 581.585 395.213 580.913 395.872L580.593 396.176C580.305 396.464 580.001 396.8 579.729 397.12C579.457 397.44 579.041 397.936 578.721 398.368C578.041 399.262 577.427 400.203 576.881 401.184C576.593 401.68 576.321 402.208 576.065 402.784C574.573 405.877 573.497 409.153 572.865 412.528L483.601 360.976V367.376L484.449 367.856L485.249 368.32V369.6L483.649 370.544V374.256L495.761 399.856L507.729 406.784L511.713 401.984L522.273 408.304L528.337 418.688L535.025 422.544L543.393 415.12L553.665 421.056L557.121 435.312L574.401 445.296C575.254 448.924 576.322 452.499 577.601 456C577.713 456.352 577.857 456.72 578.001 457.12C583.729 472.16 592.833 485.04 603.105 490.976C604.336 491.706 605.625 492.332 606.961 492.848C607.666 493.129 608.388 493.369 609.121 493.568C609.761 493.739 610.401 493.883 611.041 494C613.061 494.368 615.132 494.368 617.153 494L617.985 493.792C618.382 493.712 618.773 493.599 619.153 493.456L620.049 493.104C620.366 492.989 620.671 492.845 620.961 492.672C621.256 492.544 621.545 492.4 621.825 492.24L622.241 491.984C622.316 491.959 622.386 491.921 622.449 491.872C629.745 487.264 634.433 476.256 634.433 460.848C634.406 456.766 634.085 452.692 633.473 448.656Z" fill="#FEDC00"/>
<path opacity="0.4" d="M624.416 455.056C624.416 461.152 621.216 464.24 617.264 461.952C613.312 459.664 610.096 452.896 610.096 446.8C610.096 440.704 613.296 437.616 617.264 439.904C618.406 440.599 619.401 441.513 620.192 442.592C620.536 446.543 621.97 450.321 624.336 453.504C624.394 454.019 624.421 454.537 624.416 455.056Z" fill="black"/>
<path opacity="0.4" d="M644.416 455.04C644.416 470.832 639.488 482 631.872 486.416C630.272 487.28 624.704 490.544 622.416 491.856C629.712 487.248 634.4 476.24 634.4 460.832C634.383 456.756 634.073 452.687 633.472 448.656C630.112 425.712 617.776 402.992 603.072 394.512C596.256 390.576 589.952 390.288 584.832 392.992L594.272 387.552C599.504 384.496 606.032 384.64 613.088 388.72C627.792 397.216 640.128 419.92 643.488 442.88C644.097 446.905 644.408 450.969 644.416 455.04Z" fill="#FEDC00"/>
<path d="M634.4 460.8C634.4 476.208 629.712 487.216 622.416 491.824C624.704 490.512 630.336 487.248 631.872 486.384C639.488 481.968 644.416 470.8 644.416 455.008C644.416 454.432 644.416 453.84 644.416 453.248L634.4 459.04C634.384 459.664 634.4 460.24 634.4 460.8Z" fill="#968D55"/>
<path opacity="0.15" d="M573.248 419.072V422.32L483.616 370.576L485.264 369.616V368.272L573.248 419.072Z" fill="black"/>
<path opacity="0.15" d="M573.248 420.416V422.32L483.616 370.576L485.264 369.616V369.6L573.248 420.416Z" fill="black"/>
<path opacity="0.15" d="M612.224 486.4C608.827 486.312 605.514 485.323 602.624 483.536C588.016 475.104 576.128 450.016 576.128 427.616C576.128 414.544 580.08 404.784 586.976 400.8C591.776 398.016 597.456 398.368 603.424 401.808C618.016 410.24 629.904 435.408 629.904 457.808C629.904 470.864 625.952 480.64 619.056 484.608C616.976 485.796 614.619 486.414 612.224 486.4ZM593.904 400.56C591.772 400.548 589.674 401.1 587.824 402.16C581.536 405.792 577.776 415.312 577.776 427.6C577.776 449.488 589.296 474 603.472 482.128C608.896 485.328 614.032 485.616 618.304 483.152C624.592 479.52 628.352 470.016 628.352 457.728C628.352 435.824 616.832 411.328 602.672 403.184C600.026 401.574 597.001 400.691 593.904 400.624V400.56Z" fill="black"/>
<path opacity="0.4" d="M576 402.752C574.508 405.845 573.432 409.121 572.8 412.496L483.536 360.944L493.552 355.168L576 402.752Z" fill="#FEDC00"/>
<path d="M692.017 407.76C696.689 398.912 702.033 379.04 704.689 369.008C708.465 354.768 702.353 345.808 695.409 345.44C691.073 346.112 676.785 398.064 676.785 398.064C675.185 399.328 653.473 410.352 646.497 413.12C645.249 413.592 643.872 413.592 642.625 413.12C639.281 411.904 636.993 412.128 633.713 411.808C631.137 411.552 629.841 410.64 629.505 411.184C629.199 411.859 629.16 412.624 629.394 413.327C629.629 414.03 630.119 414.619 630.769 414.976C632.181 415.799 633.684 416.454 635.249 416.928C632.444 417.779 629.522 418.173 626.593 418.096C619.873 417.952 617.457 420.864 622.673 427.696C625.873 431.952 631.169 433.296 642.993 429.216C646.385 428.032 650.993 425.744 655.297 424.192C664.161 420.992 666.497 420.608 673.249 418.32C683.089 414.992 689.937 411.696 692.017 407.76Z" fill="#FFA8A7"/>
<path d="M692.8 344.096C696.88 344.656 700.8 345.568 703.216 348.896C705.632 352.224 707.568 356.896 705.2 369.616C703.387 378.562 700.959 387.372 697.936 395.984C697.936 395.984 688.432 400.048 678.336 389.744L685.28 362.896C685.28 362.896 686.4 345.44 692.8 344.096Z" fill="#455A64"/>
</svg>
