<svg width="380" height="380" viewBox="0 0 380 380" fill="none" xmlns="http://www.w3.org/2000/svg">
<path d="M344.793 305.731C343.453 307.855 342.063 309.937 340.616 311.97C321.336 339.025 289.943 357.075 259.688 364.831C246.433 368.235 232.874 369.843 219.376 369.992C130.843 370.933 100.268 296.452 72.2655 276.725C44.2629 256.996 1.37716 223.429 8.63919 155.449C14.1522 103.763 44.6242 54.9979 98.5081 33.8491C104.443 31.5122 110.668 29.5115 117.173 27.8867C129.273 24.8626 142.348 23.1064 156.394 22.8422C196.736 22.0791 229.198 32.7389 260.559 58.2692C267.848 64.2037 275.079 70.8717 284.715 71.8327C291.719 72.5312 298.438 70.159 291.282 63.1206C282.87 54.8478 293.23 39.2775 314.828 50.845C350.899 70.1651 364.902 110.186 370.936 150.667C378.342 200.355 372.525 261.757 344.793 305.731Z" fill="#7196CE"/>
<path opacity="0.8" d="M344.793 305.731C343.453 307.855 342.063 309.937 340.616 311.97C321.336 339.025 289.943 357.075 259.688 364.831C246.433 368.235 232.874 369.843 219.376 369.992C130.843 370.933 100.268 296.452 72.2655 276.725C44.2629 256.996 1.37716 223.429 8.63919 155.449C14.1522 103.763 44.6242 54.9979 98.5081 33.8491C104.443 31.5122 110.668 29.5115 117.173 27.8867C129.273 24.8626 142.348 23.1064 156.394 22.8422C196.736 22.0791 229.198 32.7389 260.559 58.2692C267.848 64.2037 275.079 70.8717 284.715 71.8327C291.719 72.5312 298.438 70.159 291.282 63.1206C282.87 54.8478 293.23 39.2775 314.828 50.845C350.899 70.1651 364.902 110.186 370.936 150.667C378.342 200.355 372.525 261.757 344.793 305.731Z" fill="white"/>
<path d="M360.78 311.429H14.3806" stroke="#263238" stroke-miterlimit="10"/>
<path d="M183.229 58.4468V100.804H115.341V28.2747H183.229V49.163" stroke="#263238" stroke-miterlimit="10"/>
<path d="M255.758 28.2747H187.87V100.804H255.758V28.2747Z" stroke="#263238" stroke-miterlimit="10"/>
<path d="M294.634 28.2747H328.287V100.804H260.4V28.2747H287.671" stroke="#263238" stroke-miterlimit="10"/>
<path d="M115.341 139.68V108.347H183.229V180.876H115.341V146.642" stroke="#263238" stroke-miterlimit="10"/>
<path d="M255.758 108.347H187.87V180.876H255.758V108.347Z" stroke="#263238" stroke-miterlimit="10"/>
<path d="M328.287 108.347H260.4V180.876H328.287V108.347Z" stroke="#263238" stroke-miterlimit="10"/>
<path d="M183.229 188.419H115.341V260.948H183.229V188.419Z" stroke="#263238" stroke-miterlimit="10"/>
<path d="M255.758 188.419H187.87V260.948H255.758V188.419Z" stroke="#263238" stroke-miterlimit="10"/>
<path d="M328.287 188.419H260.4V260.948H328.287V188.419Z" stroke="#263238" stroke-miterlimit="10"/>
<path d="M292.545 195.268C292.545 195.268 290.333 201.353 285.631 202.183C280.929 203.013 272.631 193.885 277.886 189.183C283.141 184.481 290.333 191.949 292.545 195.268Z" fill="#8BDD76" stroke="#263238" stroke-linecap="round" stroke-linejoin="round"/>
<path d="M299.737 165.396C299.737 165.396 292.822 182.268 295.588 190.566C298.354 198.864 315.503 204.949 320.481 194.162C325.46 183.375 314.396 168.162 310.247 164.843C306.099 161.524 301.12 162.63 299.737 165.396Z" fill="#8BDD76" stroke="#263238" stroke-linecap="round" stroke-linejoin="round"/>
<path d="M340.119 172.588C340.119 172.588 328.226 183.375 326.843 194.162C325.46 204.949 333.481 208.821 341.779 207.438C350.076 206.055 354.225 185.034 351.736 175.354C349.247 165.673 340.119 172.588 340.119 172.588Z" fill="#8BDD76" stroke="#263238" stroke-linecap="round" stroke-linejoin="round"/>
<path d="M342.332 232.331C342.332 232.331 329.056 232.885 328.502 239.246C327.949 245.608 334.311 246.991 340.672 241.459C347.034 235.927 347.864 232.608 342.332 232.331Z" fill="#8BDD76" stroke="#263238" stroke-linecap="round" stroke-linejoin="round"/>
<path d="M328.722 240.762C328.722 240.762 339.185 235.975 343.897 235.144L328.722 240.762Z" fill="#8BDD76"/>
<path d="M328.722 240.762C328.722 240.762 339.185 235.975 343.897 235.144" stroke="#263238" stroke-miterlimit="10"/>
<path d="M345.291 273.957C345.291 273.957 335.539 264.932 330.638 269.024C325.736 273.117 329.24 278.603 337.648 279.215C346.056 279.827 348.995 278.076 345.291 273.957Z" fill="#8BDD76" stroke="#263238" stroke-linecap="round" stroke-linejoin="round"/>
<path d="M329.717 270.249C329.717 270.249 340.489 274.295 344.4 277.05L329.717 270.249Z" fill="#8BDD76"/>
<path d="M329.717 270.249C329.717 270.249 340.489 274.295 344.4 277.05" stroke="#263238" stroke-miterlimit="10"/>
<path d="M293.85 271.299C293.85 271.299 307.294 258.858 314.05 264.499C320.807 270.141 315.977 277.704 304.387 278.547C292.796 279.391 288.745 276.976 293.85 271.299Z" fill="#8BDD76" stroke="#263238" stroke-linecap="round" stroke-linejoin="round"/>
<path d="M315.319 266.187C315.319 266.187 300.471 271.764 295.079 275.563L315.319 266.187Z" fill="#8BDD76"/>
<path d="M315.319 266.187C315.319 266.187 300.471 271.764 295.079 275.563" stroke="#263238" stroke-miterlimit="10"/>
<path d="M309.417 245.608C309.417 245.608 308.035 252.246 303.056 254.735C298.077 257.225 289.226 251.969 293.928 243.948C298.63 235.927 306.928 242.288 309.417 245.608Z" fill="#8BDD76" stroke="#263238" stroke-linecap="round" stroke-linejoin="round"/>
<path d="M297.801 224.863C297.801 224.863 295.311 219.332 285.631 222.927C275.95 226.523 272.078 232.055 278.163 233.991C284.248 235.927 297.801 224.863 297.801 224.863Z" fill="#8BDD76" stroke="#263238" stroke-linecap="round" stroke-linejoin="round"/>
<path d="M295.947 224.611C295.947 224.611 285.692 225.72 280.148 230.432L295.947 224.611Z" fill="#8BDD76"/>
<path d="M295.947 224.611C295.947 224.611 285.692 225.72 280.148 230.432" stroke="#263238" stroke-miterlimit="10"/>
<path d="M325.46 158.482C325.46 158.482 327.119 162.354 330.439 161.524C333.757 160.694 334.587 155.716 339.843 157.099C345.098 158.482 349.523 164.567 349.523 161.801C349.523 159.035 342.885 151.843 335.417 151.843C327.949 151.843 325.736 154.886 325.46 158.482Z" fill="#8BDD76" stroke="#263238" stroke-linecap="round" stroke-linejoin="round"/>
<path d="M297.801 224.863C297.801 224.863 309.71 222.577 314.67 235.803C315.157 237.1 315.568 238.457 315.913 239.85" fill="#8BDD76"/>
<path d="M297.801 224.863C297.801 224.863 309.71 222.577 314.67 235.803C315.157 237.1 315.568 238.457 315.913 239.85" stroke="#263238" stroke-miterlimit="10"/>
<path d="M347.506 212.051C347.506 212.051 349.995 206.519 359.676 210.115C369.357 213.711 373.229 219.243 367.143 221.179C361.059 223.115 347.506 212.051 347.506 212.051Z" fill="#8BDD76" stroke="#263238" stroke-linecap="round" stroke-linejoin="round"/>
<path d="M349.718 212.416C349.718 212.416 359.696 211.861 364.408 217.682L349.718 212.416Z" fill="#8BDD76"/>
<path d="M349.718 212.416C349.718 212.416 359.696 211.861 364.408 217.682" stroke="#263238" stroke-miterlimit="10"/>
<path d="M347.506 212.051C347.506 212.051 343.558 211.293 339.261 213.174L347.506 212.051Z" fill="#8BDD76"/>
<path d="M347.506 212.051C347.506 212.051 343.558 211.293 339.261 213.174" stroke="#263238" stroke-miterlimit="10"/>
<path d="M304.15 202.129C298.312 196.168 292.545 195.268 292.545 195.268C292.545 195.268 284.029 193.014 280.703 196.063" fill="#8BDD76"/>
<path d="M304.15 202.129C298.312 196.168 292.545 195.268 292.545 195.268C292.545 195.268 284.029 193.014 280.703 196.063" stroke="#263238" stroke-miterlimit="10"/>
<path d="M305.334 171.49L304.817 169.178" stroke="#263238" stroke-miterlimit="10"/>
<path d="M318.803 293.767C318.803 293.767 320.043 246.135 318.803 231.67C317.563 217.204 311.777 200.259 311.777 200.259L305.883 173.939" fill="#8BDD76"/>
<path d="M318.803 293.767C318.803 293.767 320.043 246.135 318.803 231.67C317.563 217.204 311.777 200.259 311.777 200.259L305.883 173.939" stroke="#263238" stroke-miterlimit="10"/>
<path d="M343.386 181.716L344.452 179.433" stroke="#263238" stroke-miterlimit="10"/>
<path d="M321.696 293.715C321.696 293.715 322.109 250.268 323.763 237.869C325.416 225.47 332.028 206.045 332.028 206.045L342.177 184.306" fill="#8BDD76"/>
<path d="M321.696 293.715C321.696 293.715 322.109 250.268 323.763 237.869C325.416 225.47 332.028 206.045 332.028 206.045L342.177 184.306" stroke="#263238" stroke-miterlimit="10"/>
<path d="M328.722 240.762C328.722 240.762 325.829 265.671 324.176 293.775L328.722 240.762Z" fill="#8BDD76"/>
<path d="M328.722 240.762C328.722 240.762 325.829 265.671 324.176 293.775" stroke="#263238" stroke-miterlimit="10"/>
<path d="M314.67 293.715C314.67 293.715 315.497 253.988 313.844 248.615C312.19 243.242 309.417 245.608 309.417 245.608C309.417 245.608 301.768 246.507 298.996 250.942" fill="#8BDD76"/>
<path d="M314.67 293.715C314.67 293.715 315.497 253.988 313.844 248.615C312.19 243.242 309.417 245.608 309.417 245.608C309.417 245.608 301.768 246.507 298.996 250.942" stroke="#263238" stroke-miterlimit="10"/>
<path d="M316.569 242.945C318.731 255.061 316.737 293.756 316.737 293.756L316.569 242.945Z" fill="#8BDD76"/>
<path d="M316.569 242.945C318.731 255.061 316.737 293.756 316.737 293.756" stroke="#263238" stroke-miterlimit="10"/>
<path d="M336.918 214.474C334.525 216.112 332.224 218.756 330.636 222.99C325.677 236.216 326.242 293.775 326.242 293.775" fill="#8BDD76"/>
<path d="M336.918 214.474C334.525 216.112 332.224 218.756 330.636 222.99C325.677 236.216 326.242 293.775 326.242 293.775" stroke="#263238" stroke-miterlimit="10"/>
<path d="M305.589 203.706C308.173 206.739 310.678 210.841 312.604 216.378C319.216 235.389 321.696 284.622 320.456 293.715" fill="#8BDD76"/>
<path d="M305.589 203.706C308.173 206.739 310.678 210.841 312.604 216.378C319.216 235.389 321.696 284.622 320.456 293.715" stroke="#263238" stroke-miterlimit="10"/>
<path d="M322.383 221.498C321.981 245.492 321.696 293.715 321.696 293.715L322.383 221.498Z" fill="#8BDD76"/>
<path d="M322.383 221.498C321.981 245.492 321.696 293.715 321.696 293.715" stroke="#263238" stroke-miterlimit="10"/>
<path d="M322.434 218.512C322.707 202.646 323.028 187.119 323.349 178.768C324.176 157.276 325.46 158.482 325.46 158.482C325.46 158.482 326.99 153.656 335.582 154.211" fill="#8BDD76"/>
<path d="M322.434 218.512C322.707 202.646 323.028 187.119 323.349 178.768C324.176 157.276 325.46 158.482 325.46 158.482C325.46 158.482 326.99 153.656 335.582 154.211" stroke="#263238" stroke-miterlimit="10"/>
<path d="M311.85 236.631C311.85 236.631 304.935 230.465 307.701 227.432C310.467 224.399 327.616 222.175 332.594 226.118C337.573 230.06 326.509 235.62 322.361 236.833C318.212 238.046 313.233 237.642 311.85 236.631Z" fill="#8BDD76" stroke="#263238" stroke-linecap="round" stroke-linejoin="round"/>
<path d="M318.236 231.582C318.139 232.206 318.082 232.826 318.082 233.423L318.236 231.582Z" fill="#8BDD76"/>
<path d="M318.236 231.582C318.139 232.206 318.082 232.826 318.082 233.423" stroke="#263238" stroke-miterlimit="10"/>
<path d="M320.613 224.383C320.613 224.383 319.584 226.441 318.839 228.963L320.613 224.383Z" fill="#8BDD76"/>
<path d="M320.613 224.383C320.613 224.383 319.584 226.441 318.839 228.963" stroke="#263238" stroke-miterlimit="10"/>
<path d="M311.85 276.948C311.85 276.948 304.935 270.782 307.701 267.749C310.467 264.716 327.616 262.492 332.594 266.435C337.573 270.377 326.509 275.937 322.361 277.15C318.212 278.363 313.233 277.959 311.85 276.948Z" fill="#8BDD76" stroke="#263238" stroke-linecap="round" stroke-linejoin="round"/>
<path d="M320.613 264.7C320.613 264.7 318.082 269.762 318.082 273.74L320.613 264.7Z" fill="#8BDD76"/>
<path d="M320.613 264.7C320.613 264.7 318.082 269.762 318.082 273.74" stroke="#263238" stroke-miterlimit="10"/>
<path d="M316.998 259.897C316.998 259.897 312.303 255.71 314.181 253.651C316.059 251.592 327.702 250.082 331.082 252.759C334.463 255.436 326.951 259.21 324.134 260.034C321.317 260.858 317.937 260.583 316.998 259.897Z" fill="#8BDD76" stroke="#263238" stroke-linecap="round" stroke-linejoin="round"/>
<path d="M322.948 251.581C322.948 251.581 321.229 255.018 321.229 257.719L322.948 251.581Z" fill="#8BDD76"/>
<path d="M322.948 251.581C322.948 251.581 321.229 255.018 321.229 257.719" stroke="#263238" stroke-miterlimit="10"/>
<path d="M310.503 286.857H329.221V323.57C329.221 326.215 327.074 328.363 324.429 328.363H315.296C312.651 328.363 310.503 326.215 310.503 323.57V286.857Z" fill="#263238" stroke="#263238" stroke-linecap="round" stroke-linejoin="round"/>
<path d="M122.483 221.037C116.068 220.735 109.664 246.063 108.18 277.609C106.695 309.154 110.693 334.971 117.108 335.273C123.523 335.575 129.927 310.247 131.412 278.702C132.896 247.156 128.899 221.339 122.483 221.037ZM127.705 278.527C126.453 305.127 122.64 326.558 119.188 326.395C115.737 326.233 113.953 304.538 115.205 277.939C116.457 251.34 120.269 229.909 123.721 230.071C127.173 230.234 128.956 251.928 127.705 278.527Z" fill="#263238" stroke="#263238" stroke-miterlimit="10"/>
<path d="M129.351 226.302C124.844 226.027 120.345 249.021 119.302 277.659C118.26 306.297 121.068 329.735 125.575 330.009C130.082 330.283 134.581 307.289 135.624 278.651C136.666 250.013 133.858 226.576 129.351 226.302ZM134.097 278.526C132.899 305.649 129.249 327.503 125.945 327.337C122.641 327.171 120.934 305.049 122.132 277.926C123.331 250.803 126.98 228.949 130.284 229.115C133.588 229.281 135.295 251.403 134.097 278.526Z" fill="#263238" stroke="#263238" stroke-miterlimit="10"/>
<path d="M201.087 91.7845C201.087 91.7845 207.852 105.314 214.617 106.603C221.381 107.891 231.367 100.482 238.776 101.449C246.185 102.415 244.253 110.468 245.863 114.656C247.474 118.844 257.782 114.656 264.547 117.233C271.312 119.81 264.869 124.642 266.802 133.339C268.735 142.037 278.721 137.527 280.976 148.802C283.231 160.076 272.922 167.163 274.533 173.284C276.144 179.404 281.298 176.505 277.11 186.491C272.922 196.477 263.258 199.054 257.782 199.054C252.306 199.054 219.449 165.231 211.395 163.298C203.342 161.365 188.524 154.922 187.235 138.171C185.947 121.421 201.087 91.7845 201.087 91.7845Z" fill="#263238" stroke="#263238" stroke-miterlimit="10"/>
<path d="M135.404 336.101C138.246 324.576 132.046 313.135 121.555 310.548C111.064 307.96 100.254 315.206 97.4117 326.731C94.5691 338.256 100.769 349.697 111.261 352.284C121.752 354.872 132.561 347.627 135.404 336.101Z" fill="#263238" stroke="#263238" stroke-miterlimit="10"/>
<path d="M127.978 335.733C129.523 329.47 126.741 323.397 121.763 322.17C116.786 320.942 111.498 325.024 109.953 331.287C108.408 337.55 111.191 343.623 116.168 344.851C121.146 346.079 126.433 341.997 127.978 335.733Z" fill="#263238" stroke="#263238" stroke-miterlimit="10"/>
<path d="M137.352 149.273C137.352 149.273 135.111 153.862 135.305 155.129C135.5 156.396 131.987 175.66 131.987 175.66C131.987 175.66 129.648 184.333 130.623 186.087C131.597 187.841 132.572 189.108 132.572 189.108C132.572 189.108 131.402 190.472 131.207 191.642C131.012 192.811 131.695 194.273 131.695 194.273C131.695 194.273 133.449 194.078 135.593 195.248C137.737 196.417 143.779 199.73 144.071 200.218C144.363 200.705 145.728 200.997 145.728 200.413C145.728 199.828 139.398 152.303 139.106 151.426C138.814 150.548 137.352 149.273 137.352 149.273Z" fill="#99256E" stroke="#263238" stroke-miterlimit="10"/>
<path d="M129.843 196.904C129.843 196.904 130.72 195.15 131.695 194.273C132.669 193.396 134.326 193.006 140.173 195.15C146.02 197.294 146.919 205.04 147.384 206.455C147.849 207.869 145.338 212.399 143.584 213.179C141.83 213.958 137.347 214.543 136.275 214.153C135.203 213.764 131.695 209.281 130.623 207.429C129.551 205.578 129.453 198.171 129.843 196.904Z" fill="#7196CE" stroke="#263238" stroke-miterlimit="10"/>
<path d="M215.745 264.321L215.591 307.593L221.772 307.13L222.081 311.921L215.9 312.693L215.745 315.321H210.491L211.881 291.521L208.791 294.766L209.409 284.875L210.336 264.321H215.745Z" fill="#8A8A8A" stroke="#263238" stroke-miterlimit="10"/>
<path d="M112.199 278.23L116.063 274.83L118.227 253.966L124.563 251.339L119.618 311.457L114.518 312.539L116.99 282.866L108.799 288.121L112.199 278.23Z" fill="#8A8A8A" stroke="#263238" stroke-miterlimit="10"/>
<path d="M219.418 304.49L175.87 277.235L191.024 267.915C192.235 267.17 192.613 265.583 191.868 264.372C191.123 263.161 189.537 262.785 188.326 263.528L170.998 274.186L144.483 257.591C143.276 256.836 141.688 257.202 140.934 258.408C140.18 259.614 140.546 261.202 141.751 261.956L166.102 277.197L111.522 310.767C110.31 311.512 109.932 313.098 110.677 314.309C111.163 315.099 112.008 315.534 112.873 315.534C113.333 315.534 113.798 315.412 114.219 315.153L170.974 280.246L216.687 308.855C217.112 309.121 217.583 309.247 218.05 309.247C218.908 309.247 219.747 308.819 220.235 308.038C220.989 306.833 220.624 305.244 219.418 304.49Z" fill="#263238" stroke="#263238" stroke-miterlimit="10"/>
<path d="M241.908 221.037C235.493 220.735 229.089 246.063 227.604 277.609C226.12 309.154 230.117 334.971 236.532 335.273C242.948 335.575 249.352 310.247 250.836 278.702C252.321 247.156 248.323 221.339 241.908 221.037ZM247.129 278.527C245.878 305.127 242.065 326.558 238.613 326.395C235.161 326.233 233.378 304.538 234.629 277.939C235.881 251.34 239.694 229.909 243.146 230.071C246.598 230.234 248.381 251.928 247.129 278.527Z" fill="#263238" stroke="#263238" stroke-miterlimit="10"/>
<path d="M248.776 226.302C244.269 226.027 239.77 249.021 238.727 277.659C237.684 306.297 240.492 329.735 244.999 330.009C249.506 330.283 254.005 307.289 255.048 278.651C256.091 250.013 253.283 226.576 248.776 226.302ZM253.522 278.526C252.324 305.649 248.674 327.503 245.37 327.337C242.066 327.171 240.359 305.049 241.557 277.926C242.755 250.803 246.405 228.949 249.709 229.115C253.013 229.281 254.72 251.403 253.522 278.526Z" fill="#263238" stroke="#263238" stroke-miterlimit="10"/>
<path d="M142.514 262.944C142.514 262.944 170.906 275.171 187.277 272.892C203.649 270.612 216.083 265.846 216.083 265.846C216.083 265.846 221.057 267.918 223.544 266.467C226.031 265.017 229.139 250.303 227.481 245.536C225.823 240.77 213.596 243.257 202.613 246.78C191.629 250.303 140.649 252.375 139.198 252.168C137.748 251.961 139.406 260.043 142.514 262.944Z" fill="#263238" stroke="#263238" stroke-miterlimit="10"/>
<path d="M167.346 132.235C167.346 132.235 159.622 134.507 152.615 138.107C142.092 143.514 136.274 145.989 137.352 149.274C138.515 152.819 148.017 207.197 147.849 207.869C147.681 208.542 139.95 210.391 138.269 212.239C136.588 214.088 131.378 218.626 130.369 219.467C130.002 219.773 128.119 221.238 125.768 223.131C121.662 226.438 116.128 231.05 114.738 233.081C112.553 236.274 108.856 245.35 108.183 247.535C107.511 249.72 109.864 252.073 111.881 253.082C113.898 254.09 116.587 254.763 116.587 254.763C116.587 254.763 117.428 241.989 119.108 237.451C120.789 232.913 122.47 222.324 134.067 218.962C134.067 218.962 142.975 218.962 143.984 218.794C144.992 218.626 151.043 215.265 152.387 214.76C153.732 214.256 160.455 209.718 163.648 205.853C166.842 201.987 169.027 185.851 169.027 178.288C169.027 170.725 169.195 166.859 169.195 166.859C169.195 166.859 167.514 152.909 169.699 144.505C171.884 136.101 173.397 132.572 172.893 132.235C172.388 131.899 167.346 132.235 167.346 132.235Z" fill="#99256E" stroke="#263238" stroke-miterlimit="10"/>
<path d="M173.397 89.7122C173.397 89.7122 170.54 91.8971 167.514 94.0821C164.489 96.2671 160.455 96.4353 160.455 99.2925C160.455 102.15 166.338 104.671 166.338 104.671C166.338 104.671 168.691 104.167 170.876 103.999C173.061 103.831 183.481 106.352 184.658 110.049C185.835 113.747 189.532 118.957 190.541 119.63C191.549 120.302 195.247 120.806 196.255 121.142C197.264 121.478 196.927 127.529 199.449 124C201.97 120.47 205.667 113.579 206.844 107.528C208.021 101.477 201.297 88.7037 193.062 86.5188C184.826 84.3338 177.431 87.1911 173.397 89.7122Z" fill="#263238" stroke="#263238" stroke-miterlimit="10"/>
<path d="M228.694 258.964C228.694 258.964 228.694 262.326 224.156 263.334C219.618 264.343 217.265 259.637 215.416 253.082C213.567 246.527 209.869 245.35 209.869 245.35C209.869 245.35 212.054 242.325 213.567 241.821C215.08 241.316 223.147 244.006 225.836 248.04C228.526 252.073 228.694 258.964 228.694 258.964Z" fill="#8A8A8A" stroke="#263238" stroke-miterlimit="10"/>
<path d="M186.171 163.329C186.171 163.329 185.666 173.414 185.498 181.482C185.33 189.549 182.977 204.004 186.003 208.542C189.028 213.08 207.012 227.534 209.533 231.568C212.054 235.602 213.399 239.131 213.567 241.821C213.735 244.51 224.324 250.393 226.509 254.09C228.694 257.788 227.685 260.981 228.694 258.964C229.702 256.947 231.215 239.468 231.719 236.61C232.223 233.753 224.996 205.18 224.156 199.13C223.315 193.079 229.366 164.002 229.366 164.002C229.366 164.002 261.3 158.791 262.645 158.119C263.99 157.447 265.502 151.9 265.166 149.715C264.83 147.53 254.241 144.841 254.241 144.841C254.241 144.841 251.888 139.967 247.182 139.463C242.476 138.958 238.778 141.311 237.266 141.648C235.753 141.984 228.021 140.135 217.601 136.269C207.18 132.403 208.693 131.563 200.793 131.227C192.894 130.891 189.7 131.059 189.7 131.059L186.339 159.296L186.171 163.329Z" fill="#99256E" stroke="#263238" stroke-miterlimit="10"/>
<path d="M243.316 157.111C243.316 157.111 242.644 151.06 244.157 148.539C245.669 146.018 252.729 144.169 256.258 144.169C259.788 144.169 264.662 146.354 266.511 148.875C268.36 151.396 267.519 155.43 267.183 157.447C266.847 159.464 263.317 160.976 258.947 161.481C254.577 161.985 243.989 161.144 243.316 157.111Z" fill="#7196CE" stroke="#263238" stroke-miterlimit="10"/>
<path d="M238.442 142.656C238.442 142.656 235.921 150.051 239.114 154.421" stroke="#263238" stroke-miterlimit="10"/>
<path d="M233.568 144.169C233.568 144.169 232.896 149.715 236.425 153.245" stroke="#263238" stroke-miterlimit="10"/>
<path d="M212.711 154.448C213.275 155.476 213.994 156.496 214.911 157.447" stroke="#263238" stroke-miterlimit="10"/>
<path d="M210.71 145.849C210.71 145.849 210.53 148.243 211.385 151.209" stroke="#263238" stroke-miterlimit="10"/>
<path d="M168.187 130.387C168.187 130.387 167.346 131.059 165.834 134.084C164.321 137.11 158.102 150.556 157.262 151.9C156.421 153.245 163.817 153.581 163.817 153.581L161.127 156.606L166.506 162.993L169.195 166.859L186.003 168.035C186.003 168.035 194.574 160.808 194.742 159.127C194.911 157.447 194.406 154.589 194.406 154.589C194.406 154.589 207.012 153.413 205.836 151.396C204.659 149.379 195.247 132.74 193.902 131.059C192.558 129.378 190.036 127.697 190.036 127.697L168.187 130.387Z" fill="#B16668" stroke="#263238" stroke-miterlimit="10"/>
<path d="M172.052 135.261C172.052 135.261 169.623 142.201 169.803 150.12C169.973 157.622 174.71 168.563 175.382 169.739C176.055 170.916 187.011 170.052 187.347 166.523C187.683 162.993 188.692 147.698 190.204 141.143C191.717 134.588 190.036 128.706 190.036 127.697C190.036 126.689 172.052 135.261 172.052 135.261Z" fill="white" stroke="#263238" stroke-miterlimit="10"/>
<path d="M171.794 135.624C171.794 135.624 173.547 139.799 172.777 141.022C171.243 143.461 170.343 145.621 170.343 145.621L170.679 140.544L171.794 135.624Z" fill="#263238" stroke="#263238" stroke-miterlimit="10"/>
<path d="M168.355 101.477C168.355 101.477 165.161 113.411 164.993 118.621C164.825 123.832 167.01 132.74 167.85 135.093C168.691 137.446 171.884 137.11 173.565 136.773C175.246 136.437 185.834 134.757 189.028 132.067C192.221 129.378 192.558 127.697 192.558 127.697C192.558 127.697 197.936 125.848 199.449 124C200.961 122.151 201.297 119.798 200.121 118.789C198.944 117.781 193.062 119.798 193.062 119.798C193.062 119.798 190.022 119.373 191.885 116.268C193.398 113.747 190.373 109.377 188.188 106.52C186.003 103.662 181.801 102.486 178.271 101.982C174.741 101.477 169.531 98.6202 168.355 101.477Z" fill="white" stroke="#263238" stroke-miterlimit="10"/>
<path d="M176.59 119.125C176.59 119.125 178.943 121.815 182.473 120.638" stroke="#263238" stroke-miterlimit="10"/>
<path d="M175.75 115.932C175.75 115.932 181.296 115.932 183.481 118.453" stroke="#263238" stroke-miterlimit="10"/>
<path d="M166.338 114.251C166.338 114.251 168.355 116.1 170.203 116.1" stroke="#263238" stroke-miterlimit="10"/>
<path d="M170.708 114.083C170.708 114.083 169.195 111.226 167.346 110.89" stroke="#263238" stroke-miterlimit="10"/>
<path d="M168.523 121.478C168.523 121.478 166.842 123.832 168.187 124.672C169.531 125.512 170.876 125.512 170.876 125.512" stroke="#263238" stroke-miterlimit="10"/>
<path d="M168.187 127.865C168.187 127.865 171.044 130.387 175.582 129.042" stroke="#263238" stroke-miterlimit="10"/>
<path d="M102.338 329.468C102.214 329.468 102.088 329.46 101.962 329.441C100.555 329.235 99.5812 327.927 99.7874 326.521C100.149 324.054 108.648 266.059 109.673 261.274C110.86 255.734 117.687 250.479 118.462 249.898C119.601 249.044 121.214 249.276 122.067 250.412C122.919 251.549 122.69 253.162 121.554 254.015C119.221 255.772 115.3 259.588 114.708 262.353C113.915 266.051 107.934 306.431 104.882 327.266C104.695 328.547 103.595 329.468 102.338 329.468Z" fill="#BFBFBF" stroke="#263238" stroke-miterlimit="10"/>
<path d="M99.7381 322.513C99.7381 322.513 105.176 322.254 109.837 324.844C114.499 327.434 138.582 339.864 143.243 339.734C147.905 339.605 149.329 338.439 149.847 337.404C150.365 336.368 151.53 335.72 151.789 337.015C152.048 338.31 149.976 350.481 149.976 350.481L96.76 340.77C96.76 340.77 99.6086 321.737 99.7381 322.513Z" fill="#263238" stroke="#263238" stroke-miterlimit="10"/>
<path d="M128.327 307.773L129.593 319.999C129.593 319.999 126.739 329.132 124.265 331.225C121.792 333.318 116.655 337.313 117.226 339.787C117.797 342.26 120.46 343.021 126.739 344.163C133.018 345.304 140.818 346.066 142.341 346.256C143.863 346.446 144.814 344.163 145.195 339.216C145.575 334.269 144.433 324.185 144.433 321.522C144.433 318.858 145.04 309.426 145.04 309.426L128.327 307.773Z" fill="white" stroke="#263238" stroke-miterlimit="10"/>
<path d="M145.195 339.216C145.478 335.53 144.917 328.993 144.612 324.798C143.683 324.576 142.217 324.07 141.96 323.044C141.579 321.521 138.345 318.287 134.92 317.526C131.495 316.765 129.593 319.999 129.593 319.999C129.593 319.999 126.739 329.132 124.265 331.225C121.792 333.318 116.655 337.313 117.226 339.787C117.797 342.26 120.46 343.021 126.739 344.163C133.018 345.304 140.818 346.066 142.341 346.256C143.863 346.446 144.814 344.163 145.195 339.216Z" fill="white" stroke="#263238" stroke-miterlimit="10"/>
<path d="M145.233 338.573C145.236 338.517 145.238 338.462 145.241 338.406C144.136 338.748 141.03 339.783 141.03 339.783C141.03 339.783 137.49 334.888 131.137 333.222C124.784 331.555 120.41 334.784 120.41 334.784L120.106 334.862C118.344 336.583 116.91 338.418 117.226 339.787C117.796 342.26 120.46 343.021 126.739 344.163C133.018 345.304 140.818 346.066 142.341 346.256C143.863 346.446 144.814 344.163 145.194 339.216C145.21 339.011 145.222 338.794 145.233 338.573Z" fill="white" stroke="#263238" stroke-miterlimit="10"/>
<path d="M138.204 345.789L138.635 345.511C138.635 345.511 133.844 341.033 128.533 339.366C123.222 337.7 118.431 341.449 118.431 341.449L118.374 341.626C119.755 342.757 122.37 343.368 126.739 344.163C130.59 344.863 135.007 345.419 138.204 345.789Z" fill="#B8B8B8" stroke="#263238" stroke-miterlimit="10"/>
<path d="M127.075 330.514C127.075 330.514 134.99 329.264 137.385 333.43L127.075 330.514Z" fill="white"/>
<path d="M127.075 330.514C127.075 330.514 134.99 329.264 137.385 333.43" stroke="#263238" stroke-miterlimit="10"/>
<path d="M116.756 252.122C116.756 252.122 119.511 278.203 122.633 289.222C125.755 300.242 128.327 307.772 128.327 307.772L144.673 305.569C144.673 305.569 148.53 277.468 148.53 270.856V260.755L157.529 260.02C157.529 260.02 164.141 233.389 171.855 231.368C179.569 229.348 188.018 228.246 187.65 225.124C187.283 222.001 168.182 218.695 163.774 217.593C159.366 216.492 156.796 215.05 152.387 214.76C147.979 214.471 143.984 218.794 143.984 218.794C143.984 218.794 136.501 218.862 134.067 218.962C131.633 219.063 125.572 222.92 123.368 226.593C121.164 230.266 116.021 239.082 116.756 252.122Z" fill="#8A8A8A" stroke="#263238" stroke-miterlimit="10"/>
<path d="M143.984 218.794C143.984 218.794 154.438 220.097 159.914 221.59C165.389 223.084 168.127 223.333 168.127 223.333L158.918 211.386C158.918 211.386 145.476 215.75 143.984 218.794Z" fill="#263238" stroke="#263238" stroke-miterlimit="10"/>
<path d="M148.692 254.702C148.845 256.046 148.923 257.401 148.897 258.734" stroke="#263238" stroke-miterlimit="10"/>
<path d="M144.122 238.899C144.122 238.899 147.183 245.362 148.406 252.676" stroke="#263238" stroke-miterlimit="10"/>
<path d="M124.47 304.467C124.47 304.467 125.572 309.058 127.041 309.976C128.51 310.895 144.122 309.793 145.04 309.425C145.958 309.058 146.877 304.099 145.958 303.181C145.04 302.263 127.776 302.446 124.47 304.467Z" fill="#4A4A4A" stroke="#263238" stroke-miterlimit="10"/>
<path d="M136.47 196.904C136.47 196.904 128.868 194.663 122.534 193.883C116.2 193.104 109.378 191.252 109.378 191.252L102.167 194.078C102.167 194.078 105.285 197.684 110.353 200.9C115.42 204.116 121.949 208.306 132.084 210.937C142.219 213.569 143.194 209.671 142.024 205.188C140.855 200.705 138.224 197.684 136.47 196.904Z" fill="white" stroke="#263238" stroke-miterlimit="10"/>
<path d="M205.99 336.775C205.944 336.775 205.898 336.774 205.852 336.771C204.432 336.696 203.342 335.484 203.417 334.064C203.563 331.316 206.988 266.728 207.158 264.191C207.414 260.338 212.094 257.902 213.03 257.453C214.313 256.838 215.849 257.378 216.466 258.66C217.081 259.94 216.542 261.476 215.264 262.093C213.778 262.816 212.389 264.046 212.294 264.546C212.128 267.036 208.595 333.664 208.559 334.337C208.487 335.71 207.349 336.775 205.99 336.775Z" fill="#BFBFBF" stroke="#263238" stroke-miterlimit="10"/>
<path d="M208.631 331.448C208.631 331.448 205.782 331.318 203.711 331.966C201.639 332.613 201.51 333.778 201.251 334.555C200.992 335.332 198.273 337.145 194.647 339.605C191.022 342.065 182.346 344.525 180.404 344.784C178.462 345.043 165.514 347.503 164.737 348.409C163.96 349.316 165.514 349.575 165.514 349.575L210.055 348.28L210.185 333.908C210.185 333.908 209.926 331.966 208.631 331.448Z" fill="#263238" stroke="#263238" stroke-miterlimit="10"/>
<path d="M170.69 313.911C170.69 313.911 169.929 320.57 169.358 322.473C168.787 324.375 166.504 331.415 164.982 333.128C163.46 334.84 164.411 334.269 162.508 335.22C160.606 336.172 156.801 335.791 155.469 339.406C154.137 343.021 154.898 345.875 157.181 347.397C159.464 348.92 189.145 349.681 189.906 348.539C190.668 347.397 189.526 341.309 188.194 338.645C186.862 335.982 186.482 334.269 186.482 332.937V324.946C186.482 322.663 186.101 321.141 186.101 320.19V315.814L170.69 313.911Z" fill="white" stroke="#263238" stroke-miterlimit="10"/>
<path d="M162.508 335.22C160.606 336.172 156.801 335.791 155.469 339.406C154.137 343.021 154.898 345.875 157.181 347.397C159.464 348.919 189.145 349.681 189.906 348.539C190.668 347.397 189.526 341.309 188.194 338.645C187.133 336.523 186.681 335.009 186.539 333.806C185.25 332.958 183.332 331.708 182.486 331.225C181.154 330.464 180.203 326.278 177.349 323.614C174.495 320.951 169.358 322.473 169.358 322.473C168.787 324.375 166.504 331.415 164.982 333.128C163.46 334.84 164.411 334.269 162.508 335.22Z" fill="white" stroke="#263238" stroke-miterlimit="10"/>
<path d="M185.292 349.044C184.094 348.856 182.294 348.533 179.632 347.968C173.354 346.636 165.743 343.402 161.177 343.402C156.61 343.402 157.181 347.397 157.181 347.397C158.927 348.561 176.685 349.28 185.292 349.044Z" fill="#B8B8B8" stroke="#263238" stroke-miterlimit="10"/>
<path d="M164.221 336.172C164.221 336.172 172.973 335.601 178.491 339.026L164.221 336.172Z" fill="white"/>
<path d="M164.221 336.172C164.221 336.172 172.973 335.601 178.491 339.026" stroke="#263238" stroke-miterlimit="10"/>
<path d="M155.278 341.309C155.278 341.309 159.655 338.836 164.601 340.167C169.548 341.499 178.3 345.305 183.247 346.066L188.194 346.827" fill="white"/>
<path d="M155.278 341.309C155.278 341.309 159.655 338.836 164.601 340.167C169.548 341.499 178.3 345.305 183.247 346.066L188.194 346.827" stroke="#263238" stroke-miterlimit="10"/>
<path d="M171.671 224.022C171.671 224.022 161.386 223.654 155.142 229.899C148.897 236.144 154.591 256.347 155.509 263.142C156.427 269.938 167.814 305.752 168.182 309.058C168.549 312.364 168.733 314.568 168.733 314.568L186.548 313.282C186.548 313.282 189.854 298.406 189.119 287.018C188.385 275.631 187.834 262.958 187.834 262.958C187.834 262.958 202.343 259.653 209.874 255.979C217.404 252.306 218.873 242.939 218.506 241.102C218.138 239.266 204.731 229.532 192.425 225.307C180.12 221.083 171.671 224.022 171.671 224.022Z" fill="#8A8A8A" stroke="#263238" stroke-miterlimit="10"/>
<path d="M181.649 243.832C183.686 248.228 186.119 254.157 186.732 258.551" stroke="#263238" stroke-miterlimit="10"/>
<path d="M178.651 237.797C178.651 237.797 179.108 238.639 179.806 240.024" stroke="#263238" stroke-miterlimit="10"/>
<path d="M166.345 310.527C166.345 310.527 166.896 315.486 168.733 316.772C170.569 318.058 185.446 318.241 187.283 316.588C189.12 314.935 190.589 310.344 188.385 309.058C186.181 307.772 169.467 309.058 168.182 309.058C166.896 309.058 165.978 308.691 166.345 310.527Z" fill="#4A4A4A" stroke="#263238" stroke-miterlimit="10"/>
<path d="M97.7958 333.26C97.7958 333.26 98.4432 331.318 100.256 332.613C102.069 333.908 104.14 337.922 106.989 339.346C109.837 340.77 146.351 347.633 149.07 348.539C151.789 349.445 151.919 349.445 151.789 350.481C151.66 351.517 151.271 354.236 151.271 354.236L98.3137 344.525L96.6305 343.489L97.7958 333.26Z" fill="#8A8A8A" stroke="#263238" stroke-miterlimit="10"/>
<path d="M210.508 340.976C210.508 340.976 210.138 338.963 208.163 339.991C206.187 341.02 203.574 344.705 200.555 345.717C197.535 346.729 160.421 348.421 157.602 348.938C154.782 349.455 154.654 349.437 154.638 350.481C154.621 351.525 154.626 354.272 154.626 354.272L208.421 352.058L210.232 351.268L210.508 340.976Z" fill="#8A8A8A" stroke="#263238" stroke-miterlimit="10"/>
<path d="M242.624 343.554C245.467 332.029 241.074 321.033 232.812 318.996C224.55 316.958 215.548 324.649 212.705 336.174C209.862 347.699 214.255 358.694 222.517 360.732C230.779 362.77 239.782 355.079 242.624 343.554Z" fill="#263238" stroke="#263238" stroke-miterlimit="10"/>
<path d="M236.704 343.557C235.159 349.82 230.729 354.114 226.809 353.147C222.89 352.18 220.964 346.319 222.509 340.055C224.054 333.792 228.484 329.498 232.404 330.465C236.324 331.432 238.249 337.293 236.704 343.557Z" fill="white" stroke="#263238" stroke-miterlimit="10"/>
<path d="M233.88 351.776L237.505 348.798L226.888 317.075L221.708 314.874L215.105 316.428L221.708 319.794L233.88 351.776Z" fill="#BFBFBF" stroke="#263238" stroke-miterlimit="10"/>
<path d="M215.364 328.47L215.105 316.428C215.105 316.428 221.967 317.982 223.003 319.535C224.039 321.089 233.88 351.776 233.88 351.776L221.708 320.83L216.659 318.888L216.529 326.657L215.364 328.47Z" fill="#263238" stroke="#263238" stroke-miterlimit="10"/>
<path d="M221.145 299.078H220.459C219.075 299.078 217.953 300.199 217.953 301.583V313.664C217.953 315.047 219.075 316.169 220.459 316.169H221.145C222.529 316.169 223.651 315.047 223.651 313.664V301.583C223.651 300.199 222.529 299.078 221.145 299.078Z" fill="#8A8A8A" stroke="#263238" stroke-miterlimit="10"/>
<path d="M214.878 164.67C214.877 164.67 200.818 168.814 194.751 168.666C188.683 168.518 177.287 160.378 167.075 162.154C156.864 163.93 149.316 178.73 148.872 193.233C148.428 207.737 149.908 217.653 158.196 221.648C166.483 225.644 180.099 221.353 189.275 226.68C198.451 232.008 208.81 242.664 221.094 246.364C233.378 250.064 243.737 247.252 251.433 240.296C258.217 234.165 259.972 223.892 261.516 215.318C263.164 206.166 264.042 196.304 262.936 187.036C262.234 181.153 260.335 174.926 255.963 170.714C249.132 164.132 238.786 162.054 229.614 162.312C224.632 162.453 219.658 163.261 214.878 164.67Z" fill="#263238" stroke="#263238" stroke-miterlimit="10"/>
<path d="M216.124 158.443C216.122 158.443 202.064 162.586 195.996 162.439C189.928 162.29 178.533 154.151 168.321 155.927C158.109 157.703 150.561 172.502 150.117 187.006C149.673 201.509 151.153 211.425 159.441 215.421C167.729 219.417 181.345 215.125 190.52 220.453C199.696 225.781 210.056 236.437 222.34 240.136C234.623 243.836 244.983 241.024 252.679 234.068C259.462 227.938 261.217 217.665 262.761 209.09C264.41 199.939 265.288 190.076 264.182 180.809C263.479 174.925 261.581 168.699 257.208 164.486C250.377 157.905 240.032 155.827 230.86 156.085C225.877 156.225 220.904 157.034 216.124 158.443Z" fill="#FEDC00" stroke="#263238" stroke-miterlimit="10"/>
<path d="M220.924 189.315L261.087 172.838L259.452 169.212L222.125 186.398C222.125 186.398 219.722 188.114 220.924 189.315Z" fill="#263238" stroke="#263238" stroke-miterlimit="10"/>
<path d="M191.683 196.538C195.944 192.277 195.944 185.368 191.683 181.107C187.422 176.846 180.514 176.846 176.253 181.107C171.991 185.368 171.991 192.277 176.253 196.538C180.514 200.799 187.422 200.799 191.683 196.538Z" fill="#263238" stroke="#263238" stroke-miterlimit="10"/>
<path d="M216.716 178.422L213.608 209.797L219.231 210.093L221.007 204.025L224.115 180.79L223.819 176.054L217.308 175.462L216.716 178.422Z" fill="#263238" stroke="#263238" stroke-miterlimit="10"/>
<path d="M173.589 180.944L171.867 193.341L70.6282 172.852L72.5221 164.416L173.589 180.944Z" fill="#263238" stroke="#263238" stroke-miterlimit="10"/>
<path d="M72.5221 164.416C72.5221 164.416 68.6926 163.875 67.4706 163.06C66.2486 162.245 65.1285 161.329 64.8229 161.227C64.5174 161.125 37.8367 158.172 37.8367 158.172C37.8367 158.172 34.578 163.875 34.578 164.588C34.578 165.3 33.8651 171.818 34.2725 171.818C34.6798 171.818 61.4624 175.178 62.3789 174.771C63.2954 174.364 66.4523 173.244 67.4706 172.734C68.4889 172.225 70.4238 172.225 70.4238 172.225L72.5221 164.416Z" fill="#263238" stroke="#263238" stroke-miterlimit="10"/>
<path d="M40.9935 176.4L39.2623 176.604V178.132L43.2557 178.635L43.5611 177.108L42.1137 176.502L42.7892 172.905L41.6629 172.851L40.9935 176.4Z" fill="white" stroke="#263238" stroke-miterlimit="10"/>
<path d="M49.2537 177.58L47.5226 177.784V179.312L51.5159 179.815L51.8214 178.288L50.374 177.682L51.0494 174.085L49.923 174.031L49.2537 177.58Z" fill="white" stroke="#263238" stroke-miterlimit="10"/>
<path d="M57.7821 178.224L56.0509 178.428V179.955L60.0442 180.459L60.3498 178.932L58.9023 178.326L59.5778 174.728L58.4514 174.675L57.7821 178.224Z" fill="white" stroke="#263238" stroke-miterlimit="10"/>
<path d="M64.0833 157.457L65.8227 157.342L65.9012 155.817L61.939 155.109L61.5554 156.619L62.9699 157.298L62.1104 160.856L63.2326 160.967L64.0833 157.457Z" fill="white" stroke="#263238" stroke-miterlimit="10"/>
<path d="M55.7159 156.331L57.4553 156.216L57.5337 154.691L53.5716 153.982L53.188 155.492L54.6024 156.171L53.743 159.729L54.8652 159.841L55.7159 156.331Z" fill="white" stroke="#263238" stroke-miterlimit="10"/>
<path d="M46.5439 155.526L48.2832 155.412L48.3617 153.886L44.3995 153.178L44.016 154.688L45.4304 155.367L44.5709 158.925L45.6932 159.036L46.5439 155.526Z" fill="white" stroke="#263238" stroke-miterlimit="10"/>
<path d="M45.9002 160.917C45.9002 161.554 45.384 162.07 44.7471 162.07C44.1101 162.07 43.5939 161.554 43.5939 160.917C43.5939 160.28 44.1101 159.763 44.7471 159.763C45.384 159.763 45.9002 160.28 45.9002 160.917Z" fill="white"/>
<path d="M42.8698 171.725C43.5067 171.725 44.023 171.208 44.023 170.571C44.023 169.934 43.5067 169.418 42.8698 169.418C42.2329 169.418 41.7166 169.934 41.7166 170.571C41.7166 171.208 42.2329 171.725 42.8698 171.725Z" fill="white"/>
<path d="M53.5973 163.303C54.2342 163.303 54.7505 162.787 54.7505 162.15C54.7505 161.513 54.2342 160.997 53.5973 160.997C52.9604 160.997 52.4441 161.513 52.4441 162.15C52.4441 162.787 52.9604 163.303 53.5973 163.303Z" fill="white"/>
<path d="M52.5512 171.59C52.5512 172.227 52.035 172.744 51.3981 172.744C50.7611 172.744 50.2449 172.227 50.2449 171.59C50.2449 170.954 50.7611 170.437 51.3981 170.437C52.035 170.437 52.5512 170.954 52.5512 171.59Z" fill="white"/>
<path d="M62.1792 164.484C62.8161 164.484 63.3324 163.967 63.3324 163.33C63.3324 162.693 62.8161 162.177 62.1792 162.177C61.5423 162.177 61.026 162.693 61.026 163.33C61.026 163.967 61.5423 164.484 62.1792 164.484Z" fill="white"/>
<path d="M60.0338 173.334C60.6707 173.334 61.1871 172.817 61.1871 172.181C61.1871 171.544 60.6707 171.027 60.0338 171.027C59.3969 171.027 58.8806 171.544 58.8806 172.181C58.8806 172.817 59.3969 173.334 60.0338 173.334Z" fill="white"/>
<path d="M213.262 188.624L71.4078 165.289L63.3325 163.33" stroke="white" stroke-width="0.5" stroke-miterlimit="10"/>
<path d="M207.706 189.626L71.8895 166.858L53.5973 163.303" stroke="white" stroke-width="0.5" stroke-miterlimit="10"/>
<path d="M213.744 194.727L70.6703 169.753L43.7266 165.997L41.9209 168.943" stroke="white" stroke-width="0.5" stroke-miterlimit="10"/>
<path d="M214.993 199.307L70.4239 172.225L61.1183 171.414" stroke="white" stroke-width="0.5" stroke-miterlimit="10"/>
<path d="M215.305 196.704L70.3655 171.125C70.3655 171.125 51.6146 168.943 51.2344 169.038C50.8543 169.133 50.5692 170.083 50.5692 170.083" stroke="white" stroke-width="0.5" stroke-miterlimit="10"/>
<path d="M215.722 193.061L71.7371 168.382L44.2969 163.621L43.5939 160.917" stroke="white" stroke-width="0.5" stroke-miterlimit="10"/>
<path d="M176.225 101.689C176.225 101.689 176.777 103.895 181.924 108.676C187.072 113.456 194.242 112.169 194.242 112.169C194.242 112.169 189.462 102.792 182.476 99.1155C175.49 95.4384 175.857 98.5639 176.225 101.689Z" fill="#263238" stroke="#263238" stroke-miterlimit="10"/>
<path d="M105.577 197.099C104.505 196.027 93.6882 187.939 93.3959 187.159C93.1035 186.379 92.129 177.999 92.2264 176.732C92.3239 175.465 94.9551 169.033 94.9551 169.033C94.9551 169.033 95.5398 167.766 96.4169 168.448C97.294 169.13 97.6838 169.91 97.3915 171.079C97.0991 172.249 96.0271 175.757 96.0271 176.342C96.0271 176.927 96.5143 180.435 96.5143 180.435C96.5143 180.435 99.8277 177.024 100.412 175.855C100.997 174.685 101.874 173.516 102.556 174.1C103.239 174.685 103.628 175.562 103.336 176.05C103.044 176.537 100.997 180.63 100.607 181.117C100.218 181.604 100.51 182.969 100.51 182.969C100.51 182.969 102.849 179.071 103.336 178.291C103.823 177.511 105.09 177.024 105.09 177.024C105.09 177.024 105.967 175.27 106.942 175.855C107.916 176.439 107.721 178.486 107.624 179.168C107.526 179.85 107.721 185.405 107.721 185.405C107.721 185.405 110.255 188.134 110.937 189.888C111.619 191.642 111.425 193.104 111.425 193.104" fill="white"/>
<path d="M105.577 197.099C104.505 196.027 93.6882 187.939 93.3959 187.159C93.1035 186.379 92.129 177.999 92.2264 176.732C92.3239 175.465 94.9551 169.033 94.9551 169.033C94.9551 169.033 95.5398 167.766 96.4169 168.448C97.294 169.13 97.6838 169.91 97.3915 171.079C97.0991 172.249 96.0271 175.757 96.0271 176.342C96.0271 176.927 96.5143 180.435 96.5143 180.435C96.5143 180.435 99.8277 177.024 100.412 175.855C100.997 174.685 101.874 173.516 102.556 174.1C103.239 174.685 103.628 175.562 103.336 176.05C103.044 176.537 100.997 180.63 100.607 181.117C100.218 181.604 100.51 182.969 100.51 182.969C100.51 182.969 102.849 179.071 103.336 178.291C103.823 177.511 105.09 177.024 105.09 177.024C105.09 177.024 105.967 175.27 106.942 175.855C107.916 176.439 107.721 178.486 107.624 179.168C107.526 179.85 107.721 185.405 107.721 185.405C107.721 185.405 110.255 188.134 110.937 189.888C111.619 191.642 111.425 193.104 111.425 193.104" stroke="#263238" stroke-miterlimit="10"/>
<path d="M105.09 177.024C105.09 177.024 104.798 181.02 103.823 184.43C103.288 186.304 105.577 187.744 105.577 187.744" stroke="#263238" stroke-miterlimit="10"/>
<path d="M101.095 181.897C101.095 181.897 99.243 185.015 99.5353 185.795C99.8277 186.574 100.705 188.426 100.705 188.426" stroke="#263238" stroke-miterlimit="10"/>
<path d="M96.5143 180.435C96.5143 180.435 95.15 182.676 95.6373 183.846C96.1245 185.015 96.7093 187.744 96.7093 187.744" stroke="#263238" stroke-miterlimit="10"/>
<path d="M267.651 154.769C266.958 154.19 266.059 153.673 265.099 152.984C263.844 152.084 262.58 151.177 261.173 150.538C256.808 148.554 248.384 150.698 244.997 154.085C243.148 155.934 226.509 171.061 221.467 174.254C216.424 177.448 213.903 179.129 213.063 179.297C212.222 179.465 206.34 182.154 203.146 183.33C199.953 184.507 196.423 186.02 193.734 186.188C191.045 186.356 190.373 187.364 191.381 188.205C192.389 189.045 195.079 189.381 196.255 188.877C197.432 188.373 202.81 187.364 202.81 187.364C202.81 187.364 199.281 192.238 198.272 193.247C197.264 194.255 190.541 201.146 190.036 201.819C189.532 202.491 189.364 203.668 190.204 204.004C191.045 204.34 192.726 203.836 192.726 203.836L202.474 195.264L192.558 207.533C192.558 207.533 192.726 208.878 193.566 208.878C194.406 208.878 195.919 207.869 195.919 207.869C195.919 207.869 195.919 210.054 196.759 210.222C197.6 210.391 202.978 207.197 203.482 206.861C203.987 206.525 202.306 210.054 203.482 209.886C204.659 209.718 209.533 205.348 210.878 204.172C212.222 202.995 216.928 196.272 218.609 194.087C220.29 191.902 220.122 189.045 225.5 186.188C230.879 183.33 255.922 170.725 259.452 169.212C262.981 167.699 268.024 162.657 268.864 158.622C269.273 156.659 268.699 155.643 267.651 154.769Z" fill="white" stroke="#263238" stroke-miterlimit="10"/>
<path d="M203.482 206.861C203.482 206.861 207.148 204.451 207.97 203.747C208.792 203.042 212.314 199.11 212.314 199.11" stroke="#263238" stroke-miterlimit="10"/>
<path d="M195.919 207.869C195.919 207.869 203.157 202.749 203.626 202.279C204.096 201.81 208.733 197.407 208.733 197.407" stroke="#263238" stroke-miterlimit="10"/>
<path d="M202.474 195.264L204.683 193.239" stroke="#263238" stroke-miterlimit="10"/>
<path d="M202.81 187.364L204.39 184.669" stroke="#263238" stroke-miterlimit="10"/>
<path d="M282.838 284.355C282.766 284.355 282.695 284.335 282.632 284.292C262.464 270.711 236.03 268.321 205.421 265.553C185.478 263.75 162.873 261.706 138.457 256.297C76.9481 242.669 42.5352 197.764 42.1948 197.312C42.0726 197.15 42.1049 196.919 42.2673 196.797C42.4292 196.675 42.6606 196.708 42.7824 196.87C43.1211 197.32 77.3817 242.011 138.615 255.578C162.986 260.978 185.566 263.02 205.487 264.821C236.197 267.598 262.719 269.996 283.043 283.682C283.212 283.796 283.256 284.024 283.143 284.192C283.072 284.298 282.955 284.355 282.838 284.355Z" fill="#7196CE"/>
<path d="M272.311 295.646C272.24 295.646 272.169 295.626 272.106 295.583C251.938 282.002 225.504 279.612 194.895 276.844C174.951 275.041 152.347 272.997 127.93 267.588C66.4217 253.96 32.0091 209.055 31.6686 208.603C31.5465 208.441 31.5788 208.21 31.7411 208.088C31.9035 207.966 32.1348 207.999 32.2563 208.161C32.595 208.61 66.8552 253.302 128.09 266.869C152.459 272.269 175.04 274.311 194.962 276.112C225.671 278.888 252.192 281.286 272.517 294.973C272.685 295.086 272.73 295.315 272.616 295.483C272.545 295.589 272.429 295.646 272.311 295.646Z" fill="#7196CE"/>
<path d="M261.785 306.937C261.714 306.937 261.642 306.916 261.579 306.874C241.411 293.293 214.977 290.903 184.369 288.135C164.425 286.332 141.82 284.288 117.404 278.878C55.8957 265.251 21.4828 220.346 21.1422 219.894C21.0201 219.732 21.0525 219.501 21.2148 219.379C21.3778 219.257 21.6081 219.29 21.7299 219.451C22.0686 219.901 56.3292 264.593 117.563 278.16C141.933 283.56 164.513 285.601 184.435 287.403C215.145 290.179 241.666 292.577 261.99 306.264C262.159 306.377 262.204 306.606 262.09 306.774C262.019 306.88 261.903 306.937 261.785 306.937Z" fill="#7196CE"/>
<path d="M251.258 318.227C251.187 318.227 251.116 318.207 251.053 318.164C230.885 304.584 204.451 302.193 173.843 299.426C153.899 297.623 131.294 295.578 106.878 290.169C45.3692 276.541 10.9567 231.637 10.6161 231.185C10.494 231.022 10.5264 230.792 10.6887 230.67C10.8511 230.547 11.0817 230.581 11.2038 230.742C11.5425 231.192 45.8027 275.884 107.037 289.451C131.407 294.85 153.988 296.892 173.909 298.693C204.618 301.47 231.139 303.868 251.464 317.554C251.633 317.668 251.677 317.896 251.564 318.065C251.492 318.17 251.376 318.227 251.258 318.227Z" fill="#7196CE"/>
<path d="M67.706 218.527C67.706 218.527 64.3801 219.678 65.5314 220.446C66.6826 221.213 70.3922 231.063 69.6247 232.342C68.8571 233.621 66.4268 229.4 65.0198 230.807C63.6126 232.214 65.6594 235.668 67.8339 235.412C70.0085 235.156 71.0318 232.981 70.5201 230.295C70.0085 227.609 68.2176 223.26 67.9619 222.364C67.706 221.469 68.7293 220.957 70.2644 221.853C71.7993 222.748 74.4856 221.213 75.253 219.55C76.0205 217.887 75.3809 215.073 75.3809 215.073C75.3809 215.073 75.8925 216.48 73.3342 217.12C70.7759 217.759 68.6014 218.143 67.706 218.527Z" fill="#7196CE"/>
<path d="M52.9091 262.767C52.9091 262.767 49.5832 263.918 50.7344 264.686C51.8856 265.453 55.5952 275.303 54.8278 276.582C54.0602 277.861 51.6298 273.64 50.2228 275.047C48.8157 276.454 50.8623 279.908 53.0369 279.652C55.2115 279.396 56.2347 277.221 55.7231 274.535C55.2115 271.849 53.4206 267.5 53.1648 266.605C52.9091 265.709 53.9323 265.197 55.4673 266.093C57.0023 266.988 59.6886 265.453 60.4561 263.79C61.2235 262.127 60.5839 259.313 60.5839 259.313C60.5839 259.313 61.0956 260.72 58.5372 261.36C55.9789 262 53.8043 262.383 52.9091 262.767Z" fill="#7196CE"/>
<path d="M256.403 274.258C256.403 274.258 253.916 273.019 251.557 271.44C249.198 269.861 247.906 270.62 248.214 271.667C248.521 272.712 246.533 280.118 243.519 284.036C240.504 287.955 240.778 283.479 238.505 282.708C236.232 281.937 235.002 284.194 236.75 286.786C238.498 289.379 242.436 288.598 242.953 287.006C243.47 285.415 247.169 278.415 248.264 276.729C249.359 275.043 250.174 275.116 252.161 277.097C255.271 280.198 258.869 279.291 258.869 279.291C258.869 279.291 254.797 287.082 253.558 289.569C252.32 292.055 251.287 295.239 249.449 295.173C247.611 295.108 245.555 291.469 244.095 293.718C242.635 295.966 246.988 299.686 249.326 298.619C251.665 297.552 253.104 292.658 254.834 289.269C256.565 285.88 261.597 276.973 261.297 275.697C260.997 274.421 258.651 275.718 256.403 274.258Z" fill="#7196CE"/>
<path d="M209.256 289.258C209.256 289.258 207.498 288.382 205.83 287.265C204.161 286.149 203.248 286.686 203.465 287.426C203.683 288.165 202.277 293.402 200.145 296.173C198.013 298.944 198.207 295.779 196.6 295.234C194.992 294.689 194.122 296.284 195.358 298.118C196.595 299.951 199.38 299.399 199.745 298.274C200.11 297.148 202.726 292.198 203.501 291.005C204.275 289.813 204.852 289.865 206.257 291.266C208.456 293.459 211.001 292.817 211.001 292.817C211.001 292.817 208.121 298.327 207.245 300.086C206.369 301.844 205.639 304.095 204.339 304.049C203.039 304.003 201.585 301.43 200.553 303.02C199.52 304.61 202.599 307.241 204.252 306.486C205.906 305.732 206.923 302.27 208.147 299.874C209.371 297.477 212.93 291.178 212.718 290.276C212.506 289.373 210.846 290.29 209.256 289.258Z" fill="#7196CE"/>
<path d="M220.844 300.049C220.844 300.049 219.519 299.389 218.261 298.547C217.003 297.705 216.314 298.11 216.479 298.667C216.643 299.225 215.583 303.173 213.976 305.262C212.368 307.351 212.515 304.965 211.303 304.554C210.091 304.143 209.435 305.346 210.367 306.728C211.299 308.11 213.399 307.694 213.674 306.845C213.949 305.997 215.922 302.265 216.505 301.366C217.089 300.467 217.524 300.506 218.583 301.563C220.241 303.216 222.159 302.732 222.159 302.732C222.159 302.732 219.988 306.886 219.328 308.211C218.668 309.537 218.117 311.234 217.137 311.199C216.157 311.165 215.061 309.225 214.283 310.424C213.504 311.622 215.825 313.605 217.072 313.036C218.318 312.468 219.086 309.858 220.008 308.052C220.931 306.245 223.614 301.496 223.454 300.816C223.294 300.136 222.043 300.827 220.844 300.049Z" fill="#7196CE"/>
<path d="M50.8107 218.441C50.8107 218.441 49.0525 217.565 47.3841 216.449C45.7157 215.332 44.8019 215.869 45.0197 216.609C45.2373 217.348 43.8313 222.585 41.6995 225.356C39.5676 228.127 39.7614 224.962 38.1541 224.417C36.5467 223.872 35.6766 225.468 36.9128 227.301C38.1491 229.134 40.9341 228.583 41.2995 227.457C41.6648 226.331 44.2807 221.381 45.0551 220.189C45.8295 218.996 46.406 219.048 47.8113 220.449C50.0107 222.642 52.555 222.001 52.555 222.001C52.555 222.001 49.6752 227.51 48.7994 229.269C47.9236 231.027 47.1929 233.279 45.8931 233.232C44.5934 233.186 43.1394 230.613 42.1069 232.203C41.0744 233.793 44.153 236.424 45.8066 235.669C47.4601 234.915 48.4777 231.453 49.7016 229.057C50.9255 226.66 54.484 220.361 54.272 219.459C54.0601 218.557 52.4008 219.474 50.8107 218.441Z" fill="#7196CE"/>
</svg>
